SplineFontDB: 3.0
FontName: Ruda-Bold
FullName: Ruda Bold
FamilyName: Ruda
Weight: Bold
Copyright: Copyright (c) 2011, Mariela Monsalve (marmonsalve@gmail.com), Copyright (c) 2011, Angelina Sanchez (ange_dg@yahoo.com.ar), With Reserved Font Name "Ruda"
Version: 1.002
ItalicAngle: 0
UnderlinePosition: -50
UnderlineWidth: 50
Ascent: 800
Descent: 200
sfntRevision: 0x00010083
LayerCount: 2
Layer: 0 1 "Back"  1
Layer: 1 1 "Fore"  0
XUID: [1021 462 1249333498 4660]
FSType: 0
OS2Version: 2
OS2_WeightWidthSlopeOnly: 0
OS2_UseTypoMetrics: 1
CreationTime: 1325880218
ModificationTime: 1325881675
PfmFamily: 17
TTFWeight: 700
TTFWidth: 5
LineGap: 0
VLineGap: 0
Panose: 2 0 0 0 0 0 0 0 0 0
OS2TypoAscent: 122
OS2TypoAOffset: 1
OS2TypoDescent: -95
OS2TypoDOffset: 1
OS2TypoLinegap: 0
OS2WinAscent: 19
OS2WinAOffset: 1
OS2WinDescent: 34
OS2WinDOffset: 1
HheadAscent: 19
HheadAOffset: 1
HheadDescent: -34
HheadDOffset: 1
OS2SubXSize: 700
OS2SubYSize: 650
OS2SubXOff: 0
OS2SubYOff: 140
OS2SupXSize: 700
OS2SupYSize: 650
OS2SupXOff: 0
OS2SupYOff: 477
OS2StrikeYSize: 50
OS2StrikeYPos: 250
OS2Vendor: 'pyrs'
OS2CodePages: 00000001.00000000
OS2UnicodeRanges: 00000023.00000000.00000000.00000000
Lookup: 258 0 0 "'kern' Horizontal Kerning in Latin lookup 0"  {"'kern' Horizontal Kerning in Latin lookup 0 subtable"  } ['kern' ('DFLT' <'dflt' > 'latn' <'dflt' > ) ]
DEI: 91125
TtTable: prep
PUSHW_1
 511
SCANCTRL
PUSHB_1
 4
SCANTYPE
EndTTInstrs
ShortTable: maxp 16
  1
  0
  244
  59
  5
  0
  0
  2
  0
  1
  1
  0
  64
  0
  0
  0
EndShort
LangName: 1033 "" "" "" "MarielaMonsalve,AngelinaSanchez: Ruda Bold: 2011" "" "Version 1.002" "" "Ruda is a trademark of Mariela Monsalve and Angelina Sanchez" "Mariela Monsalve, Angelina Sanchez" "Mariela Monsalve, Angelina Sanchez" "" "www.angelinasanchez.com.ar" "www.mukamonsalve.com.ar" "This Font Software is licensed under the SIL Open Font License, Version 1.1. This license is available with a FAQ at: http://scripts.sil.org/OFL" "http://scripts.sil.org/OFL" 

StartChar: exclam
Encoding: 33 33 4
Width: 284
GlyphClass: 2
Flags: W
LayerCount: 2
Fore
SplineSet
94 196 m 1,0,-1
 79 699 l 1,1,-1
 206 699 l 1,2,-1
 190 196 l 1,3,-1
 94 196 l 1,0,-1
74 0 m 1,4,-1
 74 109 l 1,5,-1
 212 109 l 1,6,-1
 212 0 l 1,7,-1
 74 0 l 1,4,-1
EndSplineSet
EndChar

StartChar: quotedbl
Encoding: 34 34 5
Width: 375
GlyphClass: 2
Flags: W
LayerCount: 2
Fore
SplineSet
150 721 m 1,0,-1
 150 688 l 1,1,-1
 133 464 l 1,2,-1
 64 464 l 1,3,-1
 48 721 l 1,4,-1
 150 721 l 1,0,-1
327 721 m 1,5,-1
 327 688 l 1,6,-1
 309 464 l 1,7,-1
 240 464 l 1,8,-1
 225 671 l 1,9,-1
 224 721 l 1,10,-1
 327 721 l 1,5,-1
EndSplineSet
EndChar

StartChar: numbersign
Encoding: 35 35 6
Width: 571
GlyphClass: 2
Flags: W
LayerCount: 2
Fore
SplineSet
17 183 m 1,0,-1
 17 282 l 1,1,-1
 113 282 l 1,2,-1
 133 412 l 1,3,-1
 52 412 l 1,4,-1
 52 511 l 1,5,-1
 149 511 l 1,6,-1
 178 695 l 1,7,-1
 276 695 l 1,8,-1
 247 511 l 1,9,-1
 362 511 l 1,10,-1
 391 695 l 1,11,-1
 490 695 l 1,12,-1
 461 511 l 1,13,-1
 542 511 l 1,14,-1
 542 412 l 1,15,-1
 445 412 l 1,16,-1
 425 282 l 1,17,-1
 507 282 l 1,18,-1
 507 183 l 1,19,-1
 409 183 l 1,20,-1
 381 0 l 1,21,-1
 283 0 l 1,22,-1
 311 183 l 1,23,-1
 196 183 l 1,24,-1
 168 0 l 1,25,-1
 69 0 l 1,26,-1
 97 183 l 1,27,-1
 17 183 l 1,0,-1
212 282 m 1,28,-1
 327 282 l 1,29,-1
 347 412 l 1,30,-1
 232 412 l 1,31,-1
 212 282 l 1,28,-1
EndSplineSet
EndChar

StartChar: dollar
Encoding: 36 36 7
Width: 531
GlyphClass: 2
Flags: W
LayerCount: 2
Fore
SplineSet
274 92 m 0,0,1
 362 92 362 92 362 188 c 0,2,3
 362 229 362 229 329.5 256 c 128,-1,4
 297 283 297 283 230 314 c 128,-1,5
 163 345 163 345 145 355 c 128,-1,6
 127 365 127 365 99 388 c 0,7,8
 47 431 47 431 47 510.5 c 128,-1,9
 47 590 47 590 90 641 c 128,-1,10
 133 692 133 692 214 707 c 1,11,-1
 214 802 l 1,12,-1
 311 802 l 1,13,-1
 311 710 l 1,14,15
 381 703 381 703 455 683 c 1,16,-1
 436 585 l 1,17,18
 327 606 327 606 268 606 c 128,-1,19
 209 606 209 606 188.5 589 c 128,-1,20
 168 572 168 572 168 530 c 128,-1,21
 168 488 168 488 192 466 c 1,22,23
 224 439 224 439 323 395 c 0,24,25
 351 383 351 383 385.5 362.5 c 128,-1,26
 420 342 420 342 431.5 329 c 128,-1,27
 443 316 443 316 456 297 c 0,28,29
 482 261 482 261 482 203 c 0,30,31
 482 120 482 120 435 63.5 c 128,-1,32
 388 7 388 7 309 -8 c 1,33,-1
 309 -117 l 1,34,-1
 213 -117 l 1,35,-1
 213 -11 l 1,36,37
 168 -6 168 -6 122 8.5 c 128,-1,38
 76 23 76 23 28 48 c 1,39,40
 37 75 37 75 43 91.5 c 128,-1,41
 49 108 49 108 53 119.5 c 128,-1,42
 57 131 57 131 62 144 c 1,43,44
 177 92 177 92 274 92 c 0,0,1
EndSplineSet
EndChar

StartChar: percent
Encoding: 37 37 8
Width: 812
GlyphClass: 2
Flags: W
LayerCount: 2
Fore
SplineSet
170 -9 m 1,0,-1
 374 393 l 1,1,-1
 531 733 l 1,2,-1
 633 733 l 1,3,-1
 443 347 l 1,4,-1
 273 -9 l 1,5,-1
 170 -9 l 1,0,-1
204 399 m 128,-1,7
 138 399 138 399 91.5 438.5 c 128,-1,8
 45 478 45 478 45 559 c 128,-1,9
 45 640 45 640 91 678.5 c 128,-1,10
 137 717 137 717 204 717 c 128,-1,11
 271 717 271 717 317 678.5 c 128,-1,12
 363 640 363 640 363 559 c 128,-1,13
 363 478 363 478 316.5 438.5 c 128,-1,6
 270 399 270 399 204 399 c 128,-1,7
608 -13 m 128,-1,15
 541 -13 541 -13 495 26 c 128,-1,16
 449 65 449 65 449 146.5 c 128,-1,17
 449 228 449 228 495 266.5 c 128,-1,18
 541 305 541 305 608 305 c 128,-1,19
 675 305 675 305 721 266.5 c 128,-1,20
 767 228 767 228 767 146.5 c 128,-1,21
 767 65 767 65 721 26 c 128,-1,14
 675 -13 675 -13 608 -13 c 128,-1,15
204.5 488 m 128,-1,23
 272 488 272 488 272 558 c 128,-1,24
 272 628 272 628 204.5 628 c 128,-1,25
 137 628 137 628 137 558 c 128,-1,22
 137 488 137 488 204.5 488 c 128,-1,23
608 76 m 128,-1,27
 675 76 675 76 675 146 c 128,-1,28
 675 216 675 216 608 216 c 128,-1,29
 541 216 541 216 541 146 c 128,-1,26
 541 76 541 76 608 76 c 128,-1,27
EndSplineSet
EndChar

StartChar: ampersand
Encoding: 38 38 9
Width: 679
GlyphClass: 2
Flags: W
LayerCount: 2
Fore
SplineSet
253 -13 m 0,0,1
 149 -13 149 -13 86 49.5 c 128,-1,2
 23 112 23 112 23 187.5 c 128,-1,3
 23 263 23 263 64 312.5 c 128,-1,4
 105 362 105 362 159 384 c 1,5,6
 73 441 73 441 73 537 c 0,7,8
 73 613 73 613 126 662.5 c 128,-1,9
 179 712 179 712 274 712 c 128,-1,10
 369 712 369 712 418 661.5 c 128,-1,11
 467 611 467 611 467 541 c 0,12,13
 467 439 467 439 362 379 c 1,14,15
 436 329 436 329 488 266 c 1,16,17
 520 322 520 322 546 390 c 1,18,-1
 645 361 l 1,19,20
 611 272 611 272 554 184 c 1,21,22
 605 107 605 107 648 -9 c 1,23,-1
 534 -13 l 1,24,25
 522 27 522 27 482 96 c 1,26,27
 378 -13 378 -13 253 -13 c 0,0,1
143 189 m 128,-1,29
 143 141 143 141 174.5 110.5 c 128,-1,30
 206 80 206 80 254 80 c 128,-1,31
 302 80 302 80 347 108 c 128,-1,32
 392 136 392 136 425 180 c 1,33,34
 356 270 356 270 260 328 c 1,35,36
 206 309 206 309 174.5 273 c 128,-1,28
 143 237 143 237 143 189 c 128,-1,29
327 474 m 128,-1,38
 351 503 351 503 351 540.5 c 128,-1,39
 351 578 351 578 331 600 c 128,-1,40
 311 622 311 622 269 622 c 0,41,42
 189 622 189 622 189 542 c 0,43,44
 189 469 189 469 267 429 c 1,45,37
 303 445 303 445 327 474 c 128,-1,38
EndSplineSet
EndChar

StartChar: quotesingle
Encoding: 39 39 10
Width: 208
GlyphClass: 2
Flags: W
LayerCount: 2
Fore
SplineSet
155 723 m 1,0,-1
 155 689 l 1,1,-1
 138 466 l 1,2,-1
 68 466 l 1,3,-1
 54 675 l 1,4,-1
 53 723 l 1,5,-1
 155 723 l 1,0,-1
EndSplineSet
EndChar

StartChar: parenleft
Encoding: 40 40 11
Width: 336
GlyphClass: 2
Flags: W
LayerCount: 2
Fore
SplineSet
61 336 m 0,0,1
 61 682 61 682 262 796 c 1,2,-1
 312 728 l 1,3,4
 179 641 179 641 179 337 c 128,-1,5
 179 33 179 33 312 -56 c 1,6,-1
 262 -124 l 1,7,8
 173 -74 173 -74 117 37.5 c 128,-1,9
 61 149 61 149 61 336 c 0,0,1
EndSplineSet
EndChar

StartChar: parenright
Encoding: 41 41 12
Width: 336
GlyphClass: 2
Flags: W
LayerCount: 2
Fore
SplineSet
23 -56 m 1,0,1
 156 33 156 33 156 337 c 128,-1,2
 156 641 156 641 23 728 c 1,3,-1
 74 796 l 1,4,5
 274 681 274 681 274 336 c 128,-1,6
 274 -9 274 -9 74 -124 c 1,7,-1
 23 -56 l 1,0,1
EndSplineSet
EndChar

StartChar: asterisk
Encoding: 42 42 13
Width: 420
GlyphClass: 2
Flags: W
LayerCount: 2
Fore
SplineSet
158 715 m 1,0,-1
 261 715 l 1,1,-1
 261 695 l 1,2,-1
 243 590 l 1,3,-1
 340 638 l 1,4,-1
 360 645 l 1,5,-1
 391 546 l 1,6,-1
 371 540 l 1,7,-1
 259 524 l 1,8,-1
 348 443 l 1,9,-1
 362 429 l 1,10,-1
 283 362 l 1,11,-1
 272 378 l 1,12,-1
 209 481 l 1,13,-1
 145 377 l 1,14,-1
 133 361 l 1,15,-1
 57 428 l 1,16,-1
 70 443 l 1,17,-1
 158 524 l 1,18,-1
 47 540 l 1,19,-1
 28 546 l 1,20,-1
 59 645 l 1,21,-1
 79 638 l 1,22,-1
 176 590 l 1,23,-1
 158 695 l 1,24,-1
 158 715 l 1,0,-1
EndSplineSet
EndChar

StartChar: plus
Encoding: 43 43 14
Width: 630
GlyphClass: 2
Flags: W
LayerCount: 2
Fore
SplineSet
264 19 m 1,0,-1
 264 243 l 1,1,-1
 44 243 l 1,2,-1
 44 342 l 1,3,-1
 264 342 l 1,4,-1
 264 564 l 1,5,-1
 365 564 l 1,6,-1
 365 342 l 1,7,-1
 585 342 l 1,8,-1
 585 243 l 1,9,-1
 365 243 l 1,10,-1
 365 19 l 1,11,-1
 264 19 l 1,0,-1
EndSplineSet
EndChar

StartChar: comma
Encoding: 44 44 15
Width: 288
GlyphClass: 2
Flags: W
LayerCount: 2
Fore
SplineSet
88 -20 m 2,0,-1
 88 106 l 1,1,-1
 203 106 l 1,2,-1
 203 52 l 2,3,4
 203 -104 203 -104 119 -170 c 1,5,-1
 56 -134 l 1,6,7
 88 -93 88 -93 88 -20 c 2,0,-1
EndSplineSet
EndChar

StartChar: hyphen
Encoding: 45 45 16
Width: 319
GlyphClass: 2
Flags: W
LayerCount: 2
Fore
SplineSet
38 278 m 1,0,-1
 38 376 l 1,1,-1
 281 376 l 1,2,-1
 281 278 l 1,3,-1
 38 278 l 1,0,-1
EndSplineSet
EndChar

StartChar: period
Encoding: 46 46 17
Width: 277
GlyphClass: 2
Flags: W
LayerCount: 2
Fore
SplineSet
68 0 m 1,0,-1
 68 112 l 1,1,-1
 206 112 l 1,2,-1
 206 0 l 1,3,-1
 68 0 l 1,0,-1
EndSplineSet
EndChar

StartChar: slash
Encoding: 47 47 18
Width: 462
GlyphClass: 2
Flags: W
LayerCount: 2
Fore
SplineSet
-4 -98 m 1,0,-1
 180 325 l 1,1,-1
 333 699 l 1,2,-1
 447 699 l 1,3,-1
 268 285 l 1,4,-1
 110 -98 l 1,5,-1
 -4 -98 l 1,0,-1
EndSplineSet
EndChar

StartChar: zero
Encoding: 48 48 19
Width: 596
GlyphClass: 2
Flags: W
LayerCount: 2
Fore
SplineSet
298 -13 m 128,-1,1
 242 -13 242 -13 200.5 3 c 128,-1,2
 159 19 159 19 124 58 c 0,3,4
 52 137 52 137 52 350 c 0,5,6
 52 562 52 562 124 642 c 0,7,8
 159 680 159 680 200.5 696 c 128,-1,9
 242 712 242 712 298 712 c 128,-1,10
 354 712 354 712 395.5 696 c 128,-1,11
 437 680 437 680 472 642 c 0,12,13
 543 563 543 563 543 350 c 0,14,15
 543 136 543 136 472 58 c 0,16,17
 437 19 437 19 395.5 3 c 128,-1,0
 354 -13 354 -13 298 -13 c 128,-1,1
202 144 m 128,-1,19
 232 88 232 88 298.5 88 c 128,-1,20
 365 88 365 88 394.5 143 c 128,-1,21
 424 198 424 198 424 327 c 128,-1,22
 424 456 424 456 408 515 c 128,-1,23
 392 574 392 574 366.5 592.5 c 128,-1,24
 341 611 341 611 297.5 611 c 128,-1,25
 254 611 254 611 228 592 c 0,26,27
 172 550 172 550 172 352 c 0,28,18
 172 200 172 200 202 144 c 128,-1,19
EndSplineSet
EndChar

StartChar: one
Encoding: 49 49 20
Width: 533
GlyphClass: 2
Flags: W
LayerCount: 2
Fore
SplineSet
73 0 m 1,0,-1
 73 100 l 1,1,-1
 243 98 l 1,2,-1
 249 581 l 1,3,-1
 244 581 l 1,4,-1
 111 443 l 1,5,-1
 35 519 l 1,6,-1
 244 706 l 1,7,-1
 360 698 l 1,8,-1
 360 98 l 1,9,-1
 509 100 l 1,10,-1
 509 0 l 1,11,-1
 73 0 l 1,0,-1
EndSplineSet
EndChar

StartChar: two
Encoding: 50 50 21
Width: 565
GlyphClass: 2
Flags: W
LayerCount: 2
Fore
SplineSet
51 0 m 1,0,-1
 51 87 l 1,1,2
 118 158 118 158 200 255.5 c 128,-1,3
 282 353 282 353 303.5 381 c 128,-1,4
 325 409 325 409 350.5 457.5 c 128,-1,5
 376 506 376 506 376 543 c 0,6,7
 376 608 376 608 301 608 c 0,8,9
 257 608 257 608 198.5 587 c 128,-1,10
 140 566 140 566 91 535 c 1,11,-1
 43 622 l 1,12,13
 80 653 80 653 146.5 682.5 c 128,-1,14
 213 712 213 712 282 712 c 0,15,16
 375 712 375 712 434.5 663.5 c 128,-1,17
 494 615 494 615 494 534 c 0,18,19
 494 476 494 476 460.5 415.5 c 128,-1,20
 427 355 427 355 370 284 c 1,21,-1
 220 102 l 1,22,-1
 220 96 l 1,23,-1
 509 102 l 1,24,-1
 509 0 l 1,25,-1
 51 0 l 1,0,-1
EndSplineSet
EndChar

StartChar: three
Encoding: 51 51 22
Width: 527
GlyphClass: 2
Flags: W
LayerCount: 2
Fore
SplineSet
258 89 m 0,0,1
 310 89 310 89 330 113.5 c 128,-1,2
 350 138 350 138 350 201 c 128,-1,3
 350 264 350 264 321.5 292.5 c 128,-1,4
 293 321 293 321 228 321 c 2,5,-1
 118 321 l 1,6,-1
 118 416 l 1,7,8
 253 427 253 427 285 439 c 0,9,10
 332 456 332 456 332 516 c 128,-1,11
 332 576 332 576 309.5 593.5 c 128,-1,12
 287 611 287 611 225 611 c 128,-1,13
 163 611 163 611 59 598 c 1,14,-1
 45 692 l 1,15,16
 125 712 125 712 219 712 c 0,17,18
 451 712 451 712 451 530 c 0,19,20
 451 419 451 419 356 378 c 1,21,-1
 356 373 l 1,22,23
 473 341 473 341 473 200 c 0,24,25
 473 106 473 106 417.5 46.5 c 128,-1,26
 362 -13 362 -13 244 -13 c 0,27,28
 187 -13 187 -13 128 3 c 128,-1,29
 69 19 69 19 38 35 c 2,30,-1
 8 51 l 1,31,-1
 47 137 l 1,32,33
 169 89 169 89 258 89 c 0,0,1
EndSplineSet
EndChar

StartChar: four
Encoding: 52 52 23
Width: 560
GlyphClass: 2
Flags: W
LayerCount: 2
Fore
SplineSet
21 152 m 1,0,-1
 21 232 l 1,1,-1
 186 711 l 1,2,-1
 298 696 l 1,3,-1
 145 251 l 1,4,-1
 145 246 l 1,5,-1
 340 251 l 1,6,-1
 366 510 l 1,7,-1
 454 510 l 1,8,-1
 454 253 l 1,9,-1
 519 255 l 1,10,-1
 519 152 l 1,11,-1
 454 152 l 1,12,-1
 455 0 l 1,13,-1
 338 0 l 1,14,-1
 340 152 l 1,15,-1
 21 152 l 1,0,-1
EndSplineSet
EndChar

StartChar: five
Encoding: 53 53 24
Width: 533
GlyphClass: 2
Flags: W
LayerCount: 2
Fore
SplineSet
269 89 m 0,0,1
 322 89 322 89 342.5 116 c 128,-1,2
 363 143 363 143 363 210 c 128,-1,3
 363 277 363 277 335 302.5 c 128,-1,4
 307 328 307 328 165 328 c 1,5,-1
 69 326 l 1,6,-1
 124 699 l 1,7,-1
 453 699 l 1,8,-1
 453 600 l 1,9,-1
 221 604 l 1,10,-1
 196 427 l 1,11,12
 264 423 264 423 311.5 413 c 128,-1,13
 359 403 359 403 400 380 c 0,14,15
 484 335 484 335 484 212 c 0,16,17
 484 106 484 106 423 46.5 c 128,-1,18
 362 -13 362 -13 256 -13 c 0,19,20
 197 -13 197 -13 138 6 c 128,-1,21
 79 25 79 25 50 44 c 2,22,-1
 20 63 l 1,23,-1
 58 149 l 1,24,25
 180 89 180 89 269 89 c 0,0,1
EndSplineSet
EndChar

StartChar: six
Encoding: 54 54 25
Width: 575
GlyphClass: 2
Flags: W
LayerCount: 2
Fore
SplineSet
464 588 m 1,0,1
 378 609 378 609 310.5 609 c 128,-1,2
 243 609 243 609 213.5 573 c 128,-1,3
 184 537 184 537 176 425 c 1,4,5
 227 430 227 430 267 430 c 0,6,7
 391 430 391 430 456.5 380.5 c 128,-1,8
 522 331 522 331 522 219 c 128,-1,9
 522 107 522 107 461 47 c 128,-1,10
 400 -13 400 -13 287.5 -13 c 128,-1,11
 175 -13 175 -13 113.5 67 c 128,-1,12
 52 147 52 147 52 332 c 0,13,14
 52 553 52 553 135 638 c 0,15,16
 175 678 175 678 222 695 c 128,-1,17
 269 712 269 712 320 712 c 0,18,19
 410 712 410 712 470 690 c 1,20,-1
 490 682 l 1,21,-1
 464 588 l 1,0,1
173 254 m 2,22,23
 173 142 173 142 210 108 c 1,24,25
 238 85 238 85 299 85 c 128,-1,26
 360 85 360 85 383.5 114 c 128,-1,27
 407 143 407 143 407 212.5 c 128,-1,28
 407 282 407 282 383 306.5 c 128,-1,29
 359 331 359 331 288 331 c 0,30,31
 239 331 239 331 173 321 c 1,32,-1
 173 254 l 2,22,23
EndSplineSet
EndChar

StartChar: seven
Encoding: 55 55 26
Width: 514
GlyphClass: 2
Flags: W
LayerCount: 2
Fore
SplineSet
27 699 m 1,0,-1
 488 699 l 1,1,-1
 488 627 l 1,2,-1
 196 -8 l 1,3,-1
 73 2 l 1,4,-1
 365 598 l 1,5,-1
 365 604 l 1,6,-1
 27 597 l 1,7,-1
 27 699 l 1,0,-1
EndSplineSet
EndChar

StartChar: eight
Encoding: 56 56 27
Width: 563
GlyphClass: 2
Flags: W
LayerCount: 2
Fore
SplineSet
64 531 m 0,0,1
 64 612 64 612 120 662 c 128,-1,2
 176 712 176 712 281 712 c 128,-1,3
 386 712 386 712 442 661 c 128,-1,4
 498 610 498 610 498 530 c 0,5,6
 498 422 498 422 400 361 c 1,7,8
 523 295 523 295 523 188 c 0,9,10
 523 105 523 105 456 46 c 128,-1,11
 389 -13 389 -13 277.5 -13 c 128,-1,12
 166 -13 166 -13 102.5 49.5 c 128,-1,13
 39 112 39 112 39 196 c 0,14,15
 39 253 39 253 71.5 299.5 c 128,-1,16
 104 346 104 346 149 369 c 1,17,18
 64 431 64 431 64 531 c 0,0,1
161 192 m 0,19,20
 161 86 161 86 281.5 86 c 128,-1,21
 402 86 402 86 402 181 c 0,22,23
 402 231 402 231 369.5 260 c 128,-1,24
 337 289 337 289 253 317 c 1,25,26
 206 299 206 299 183.5 271.5 c 128,-1,27
 161 244 161 244 161 192 c 0,19,20
382 525 m 0,28,29
 382 618 382 618 280.5 618 c 128,-1,30
 179 618 179 618 179 535 c 0,31,32
 179 491 179 491 206 461.5 c 128,-1,33
 233 432 233 432 297 406 c 1,34,35
 382 439 382 439 382 525 c 0,28,29
EndSplineSet
EndChar

StartChar: nine
Encoding: 57 57 28
Width: 573
GlyphClass: 2
Flags: W
LayerCount: 2
Fore
SplineSet
284 86 m 0,0,1
 331 86 331 86 352 107 c 0,2,3
 395 148 395 148 398 282 c 1,4,5
 332 270 332 270 278 270 c 0,6,7
 172 270 172 270 112 322.5 c 128,-1,8
 52 375 52 375 52 483 c 128,-1,9
 52 591 52 591 112.5 651.5 c 128,-1,10
 173 712 173 712 284.5 712 c 128,-1,11
 396 712 396 712 458 631 c 128,-1,12
 520 550 520 550 520 362.5 c 128,-1,13
 520 175 520 175 462 81 c 128,-1,14
 404 -13 404 -13 277 -13 c 0,15,16
 230 -13 230 -13 178 2.5 c 128,-1,17
 126 18 126 18 98 34 c 2,18,-1
 70 50 l 1,19,-1
 106 137 l 1,20,21
 206 86 206 86 284 86 c 0,0,1
354 598 m 0,22,23
 329 613 329 613 270 613 c 128,-1,24
 211 613 211 613 189.5 582.5 c 128,-1,25
 168 552 168 552 168 488 c 128,-1,26
 168 424 168 424 187.5 397.5 c 128,-1,27
 207 371 207 371 274 371 c 0,28,29
 328 371 328 371 398 391 c 1,30,31
 398 573 398 573 354 598 c 0,22,23
EndSplineSet
EndChar

StartChar: colon
Encoding: 58 58 29
Width: 331
GlyphClass: 2
Flags: W
LayerCount: 2
Fore
SplineSet
100 441 m 1,0,-1
 100 553 l 1,1,-1
 238 553 l 1,2,-1
 238 441 l 1,3,-1
 100 441 l 1,0,-1
100 0 m 1,4,-1
 100 112 l 1,5,-1
 238 112 l 1,6,-1
 238 0 l 1,7,-1
 100 0 l 1,4,-1
EndSplineSet
EndChar

StartChar: semicolon
Encoding: 59 59 30
Width: 331
GlyphClass: 2
Flags: W
LayerCount: 2
Fore
SplineSet
111 -20 m 2,0,-1
 111 106 l 1,1,-1
 226 106 l 1,2,-1
 226 52 l 2,3,4
 226 -104 226 -104 142 -170 c 1,5,-1
 79 -134 l 1,6,7
 111 -93 111 -93 111 -20 c 2,0,-1
100 441 m 1,8,-1
 100 553 l 1,9,-1
 238 553 l 1,10,-1
 238 441 l 1,11,-1
 100 441 l 1,8,-1
EndSplineSet
EndChar

StartChar: less
Encoding: 60 60 31
Width: 654
GlyphClass: 2
Flags: W
LayerCount: 2
Fore
SplineSet
67 251 m 1,0,-1
 67 337 l 1,1,-1
 608 577 l 1,2,-1
 608 465 l 1,3,-1
 212 297 l 1,4,-1
 212 291 l 1,5,-1
 608 122 l 1,6,-1
 608 11 l 1,7,-1
 67 251 l 1,0,-1
EndSplineSet
EndChar

StartChar: equal
Encoding: 61 61 32
Width: 637
GlyphClass: 2
Flags: W
LayerCount: 2
Fore
SplineSet
44 340 m 1,0,-1
 44 440 l 1,1,-1
 592 440 l 1,2,-1
 592 340 l 1,3,-1
 44 340 l 1,0,-1
44 143 m 1,4,-1
 44 242 l 1,5,-1
 592 242 l 1,6,-1
 592 143 l 1,7,-1
 44 143 l 1,4,-1
EndSplineSet
EndChar

StartChar: greater
Encoding: 62 62 33
Width: 656
GlyphClass: 2
Flags: W
LayerCount: 2
Fore
SplineSet
57 11 m 1,0,-1
 57 122 l 1,1,-1
 452 291 l 1,2,-1
 452 297 l 1,3,-1
 57 465 l 1,4,-1
 57 577 l 1,5,-1
 597 337 l 1,6,-1
 597 251 l 1,7,-1
 57 11 l 1,0,-1
EndSplineSet
EndChar

StartChar: question
Encoding: 63 63 34
Width: 481
GlyphClass: 2
Flags: W
LayerCount: 2
Fore
SplineSet
62 559 m 1,0,-1
 23 649 l 1,1,2
 35 656 35 656 55 666.5 c 128,-1,3
 75 677 75 677 132 694.5 c 128,-1,4
 189 712 189 712 240 712 c 0,5,6
 336 712 336 712 397 658.5 c 128,-1,7
 458 605 458 605 458 522 c 0,8,9
 458 446 458 446 415 399 c 0,10,11
 392 374 392 374 376.5 361 c 128,-1,12
 361 348 361 348 330.5 326.5 c 128,-1,13
 300 305 300 305 285.5 292 c 128,-1,14
 271 279 271 279 257 253.5 c 128,-1,15
 243 228 243 228 242 196 c 1,16,-1
 139 196 l 1,17,18
 139 201 139 201 139 206 c 0,19,20
 139 258 139 258 158 298.5 c 128,-1,21
 177 339 177 339 206.5 363 c 128,-1,22
 236 387 236 387 266 408 c 0,23,24
 338 458 338 458 338 527 c 0,25,26
 338 607 338 607 249 607 c 0,27,28
 212 607 212 607 165.5 595 c 128,-1,29
 119 583 119 583 62 559 c 1,0,-1
124 0 m 1,30,-1
 124 109 l 1,31,-1
 261 109 l 1,32,-1
 261 0 l 1,33,-1
 124 0 l 1,30,-1
EndSplineSet
EndChar

StartChar: at
Encoding: 64 64 35
Width: 831
GlyphClass: 2
Flags: W
LayerCount: 2
Fore
SplineSet
515 -33 m 1,0,1
 470 -48 470 -48 407.5 -48 c 128,-1,2
 345 -48 345 -48 283 -24.5 c 128,-1,3
 221 -1 221 -1 170 44 c 128,-1,4
 119 89 119 89 88.5 161.5 c 128,-1,5
 58 234 58 234 58 325.5 c 128,-1,6
 58 417 58 417 90.5 491.5 c 128,-1,7
 123 566 123 566 176 610 c 0,8,9
 287 702 287 702 427 702 c 128,-1,10
 567 702 567 702 667.5 617 c 128,-1,11
 768 532 768 532 768 387 c 0,12,13
 768 275 768 275 706.5 195.5 c 128,-1,14
 645 116 645 116 572 116 c 0,15,16
 531 116 531 116 513 143 c 128,-1,17
 495 170 495 170 491 222 c 1,18,-1
 487 222 l 1,19,20
 431 116 431 116 364 116 c 0,21,22
 318 116 318 116 281.5 166.5 c 128,-1,23
 245 217 245 217 245 335 c 128,-1,24
 245 453 245 453 285.5 501.5 c 128,-1,25
 326 550 326 550 410 550 c 0,26,27
 469 550 469 550 571 523 c 1,28,29
 569 384 569 384 569 324.5 c 128,-1,30
 569 265 569 265 569.5 244.5 c 128,-1,31
 570 224 570 224 572 212 c 128,-1,32
 574 200 574 200 576.5 197.5 c 128,-1,33
 579 195 579 195 584 195 c 0,34,35
 615 195 615 195 651 249 c 128,-1,36
 687 303 687 303 687 383 c 0,37,38
 687 492 687 492 618.5 556 c 128,-1,39
 550 620 550 620 425.5 620 c 128,-1,40
 301 620 301 620 221.5 545.5 c 128,-1,41
 142 471 142 471 142 331.5 c 128,-1,42
 142 192 142 192 221 111.5 c 128,-1,43
 300 31 300 31 415 31 c 0,44,45
 443 31 443 31 505 42 c 1,46,-1
 515 -33 l 1,0,1
480 456 m 1,47,48
 456 464 456 464 410 464 c 128,-1,49
 364 464 364 464 352.5 440.5 c 128,-1,50
 341 417 341 417 341 336 c 0,51,52
 341 206 341 206 374 206 c 0,53,54
 409 206 409 206 444.5 291.5 c 128,-1,55
 480 377 480 377 480 456 c 1,47,48
EndSplineSet
EndChar

StartChar: A
Encoding: 65 65 36
Width: 542
GlyphClass: 2
Flags: W
LayerCount: 2
Fore
SplineSet
-3 0 m 1,0,-1
 196 699 l 1,1,-1
 338 699 l 1,2,-1
 536 0 l 1,3,-1
 415 0 l 1,4,-1
 371 172 l 1,5,-1
 163 172 l 1,6,-1
 118 0 l 1,7,-1
 -3 0 l 1,0,-1
185 270 m 1,8,-1
 349 270 l 1,9,-1
 270 596 l 1,10,-1
 264 596 l 1,11,-1
 185 270 l 1,8,-1
EndSplineSet
EndChar

StartChar: B
Encoding: 66 66 37
Width: 637
GlyphClass: 2
Flags: W
LayerCount: 2
Fore
SplineSet
328 712 m 0,0,1
 543 712 543 712 543 520 c 0,2,3
 543 472 543 472 530.5 448.5 c 128,-1,4
 518 425 518 425 510 414 c 128,-1,5
 502 403 502 403 490 394 c 0,6,7
 470 380 470 380 444 368 c 1,8,-1
 444 364 l 1,9,10
 561 333 561 333 561 209 c 0,11,12
 561 81 561 81 490 30 c 1,13,14
 427 -13 427 -13 335 -13 c 0,15,16
 256 -13 256 -13 97 4 c 1,17,-1
 102 326 l 1,18,-1
 97 699 l 1,19,20
 230 712 230 712 328 712 c 0,0,1
214 88 m 1,21,22
 286 79 286 79 342 79 c 128,-1,23
 398 79 398 79 418 108 c 128,-1,24
 438 137 438 137 438 205 c 128,-1,25
 438 273 438 273 409 296 c 128,-1,26
 380 319 380 319 326 319 c 2,27,-1
 214 320 l 1,28,-1
 214 88 l 1,21,22
214 409 m 1,29,30
 286 408 286 408 335 408 c 128,-1,31
 384 408 384 408 403.5 432 c 128,-1,32
 423 456 423 456 423 515.5 c 128,-1,33
 423 575 423 575 400.5 598.5 c 128,-1,34
 378 622 378 622 325 622 c 1,35,-1
 214 616 l 1,36,-1
 214 409 l 1,29,30
EndSplineSet
EndChar

StartChar: C
Encoding: 67 67 38
Width: 604
GlyphClass: 2
Flags: W
LayerCount: 2
Fore
SplineSet
324 -13 m 0,0,1
 202 -13 202 -13 133 72 c 128,-1,2
 64 157 64 157 64 342 c 0,3,4
 64 595 64 595 176 670 c 0,5,6
 212 694 212 694 251 703 c 128,-1,7
 290 712 290 712 366.5 712 c 128,-1,8
 443 712 443 712 525 692 c 1,9,-1
 512 594 l 1,10,11
 418 608 418 608 338.5 608 c 128,-1,12
 259 608 259 608 237 585 c 0,13,14
 188 534 188 534 188 339 c 0,15,16
 188 248 188 248 205 187.5 c 128,-1,17
 222 127 222 127 245.5 106.5 c 128,-1,18
 269 86 269 86 314.5 86 c 128,-1,19
 360 86 360 86 410 100 c 128,-1,20
 460 114 460 114 518 141 c 1,21,-1
 554 52 l 1,22,23
 543 45 543 45 523.5 34 c 128,-1,24
 504 23 504 23 444 5 c 128,-1,25
 384 -13 384 -13 324 -13 c 0,0,1
EndSplineSet
EndChar

StartChar: D
Encoding: 68 68 39
Width: 655
GlyphClass: 2
Flags: W
LayerCount: 2
Fore
SplineSet
97 699 m 1,0,1
 247 712 247 712 318 712 c 128,-1,2
 389 712 389 712 437 692.5 c 128,-1,3
 485 673 485 673 514 641.5 c 128,-1,4
 543 610 543 610 560 563 c 0,5,6
 590 484 590 484 590 358 c 0,7,8
 590 -13 590 -13 313 -13 c 0,9,10
 268 -13 268 -13 97 0 c 1,11,-1
 97 699 l 1,0,1
311 88 m 0,12,13
 386 88 386 88 412 112 c 0,14,15
 463 159 463 159 463 356.5 c 128,-1,16
 463 554 463 554 415 592 c 0,17,18
 392 611 392 611 327 611 c 1,19,-1
 213 605 l 1,20,-1
 214 96 l 1,21,22
 268 88 268 88 311 88 c 0,12,13
EndSplineSet
EndChar

StartChar: E
Encoding: 69 69 40
Width: 535
GlyphClass: 2
Flags: W
LayerCount: 2
Fore
SplineSet
97 0 m 1,0,-1
 97 699 l 1,1,-1
 475 699 l 1,2,-1
 475 597 l 1,3,-1
 214 600 l 1,4,-1
 209 404 l 1,5,-1
 450 404 l 1,6,-1
 450 305 l 1,7,-1
 209 305 l 1,8,-1
 214 100 l 1,9,-1
 475 102 l 1,10,-1
 475 0 l 1,11,-1
 97 0 l 1,0,-1
EndSplineSet
EndChar

StartChar: F
Encoding: 70 70 41
Width: 521
GlyphClass: 2
Flags: W
LayerCount: 2
Fore
SplineSet
97 0 m 1,0,-1
 97 699 l 1,1,-1
 475 699 l 1,2,-1
 475 594 l 1,3,-1
 213 597 l 1,4,-1
 209 402 l 1,5,-1
 443 402 l 1,6,-1
 443 304 l 1,7,-1
 209 304 l 1,8,-1
 214 0 l 1,9,-1
 97 0 l 1,0,-1
EndSplineSet
EndChar

StartChar: G
Encoding: 71 71 42
Width: 636
GlyphClass: 2
Flags: W
LayerCount: 2
Fore
SplineSet
333 377 m 1,0,-1
 550 377 l 1,1,-1
 550 29 l 1,2,3
 462 -13 462 -13 341 -13 c 0,4,5
 293 -13 293 -13 254.5 -4.5 c 128,-1,6
 216 4 216 4 179.5 28 c 128,-1,7
 143 52 143 52 118 92 c 0,8,9
 64 181 64 181 64 352 c 0,10,11
 64 569 64 569 146 645 c 0,12,13
 187 683 187 683 236.5 697.5 c 128,-1,14
 286 712 286 712 370.5 712 c 128,-1,15
 455 712 455 712 548 691 c 1,16,-1
 534 594 l 1,17,18
 397 608 397 608 351 608 c 0,19,20
 258 608 258 608 235 584 c 0,21,22
 188 537 188 537 188 351.5 c 128,-1,23
 188 166 188 166 237 114 c 0,24,25
 263 86 263 86 334.5 86 c 128,-1,26
 406 86 406 86 437 97 c 1,27,-1
 437 286 l 1,28,-1
 333 292 l 1,29,-1
 333 377 l 1,0,-1
EndSplineSet
EndChar

StartChar: H
Encoding: 72 72 43
Width: 688
GlyphClass: 2
Flags: W
LayerCount: 2
Fore
SplineSet
97 0 m 1,0,-1
 97 699 l 1,1,-1
 214 699 l 1,2,-1
 211 406 l 1,3,-1
 477 406 l 1,4,-1
 474 699 l 1,5,-1
 591 699 l 1,6,-1
 591 0 l 1,7,-1
 474 0 l 1,8,-1
 477 305 l 1,9,-1
 212 305 l 1,10,-1
 214 0 l 1,11,-1
 97 0 l 1,0,-1
EndSplineSet
EndChar

StartChar: I
Encoding: 73 73 44
Width: 313
GlyphClass: 2
Flags: W
LayerCount: 2
Fore
SplineSet
97 -1 m 1,0,-1
 101 321 l 1,1,-1
 97 699 l 1,2,-1
 215 699 l 1,3,-1
 211 389 l 1,4,-1
 215 -1 l 1,5,-1
 97 -1 l 1,0,-1
EndSplineSet
EndChar

StartChar: J
Encoding: 74 74 45
Width: 342
GlyphClass: 2
Flags: W
LayerCount: 2
Fore
SplineSet
0 95 m 1,0,1
 35 87 35 87 66.5 87 c 128,-1,2
 98 87 98 87 108 96 c 1,3,4
 133 115 133 115 133 233 c 2,5,-1
 133 699 l 1,6,-1
 249 699 l 1,7,-1
 249 241 l 2,8,9
 249 -13 249 -13 67 -13 c 0,10,11
 34 -13 34 -13 -13 -4 c 1,12,-1
 0 95 l 1,0,1
EndSplineSet
EndChar

StartChar: K
Encoding: 75 75 46
Width: 621
GlyphClass: 2
Flags: W
LayerCount: 2
Fore
SplineSet
484 0 m 1,0,-1
 217 360 l 1,1,-1
 464 699 l 1,2,-1
 604 699 l 1,3,-1
 342 365 l 1,4,-1
 342 359 l 1,5,-1
 631 0 l 1,6,-1
 484 0 l 1,0,-1
215 699 m 1,7,-1
 215 0 l 1,8,-1
 97 0 l 1,9,-1
 102 355 l 1,10,-1
 97 699 l 1,11,-1
 215 699 l 1,7,-1
EndSplineSet
EndChar

StartChar: L
Encoding: 76 76 47
Width: 467
GlyphClass: 2
Flags: W
LayerCount: 2
Fore
SplineSet
97 0 m 1,0,-1
 97 699 l 1,1,-1
 214 699 l 1,2,-1
 209 102 l 1,3,-1
 464 104 l 1,4,-1
 464 0 l 1,5,-1
 97 0 l 1,0,-1
EndSplineSet
EndChar

StartChar: M
Encoding: 77 77 48
Width: 821
GlyphClass: 2
Flags: W
LayerCount: 2
Fore
SplineSet
93 0 m 1,0,-1
 116 699 l 1,1,-1
 274 699 l 1,2,-1
 407 275 l 1,3,-1
 413 275 l 1,4,-1
 544 699 l 1,5,-1
 703 699 l 1,6,-1
 727 0 l 1,7,-1
 611 0 l 1,8,-1
 609 584 l 1,9,-1
 604 584 l 1,10,-1
 473 172 l 1,11,-1
 349 172 l 1,12,-1
 215 584 l 1,13,-1
 209 584 l 1,14,-1
 210 0 l 1,15,-1
 93 0 l 1,0,-1
EndSplineSet
EndChar

StartChar: N
Encoding: 78 78 49
Width: 699
GlyphClass: 2
Flags: W
LayerCount: 2
Fore
SplineSet
97 0 m 1,0,-1
 97 699 l 1,1,-1
 250 699 l 1,2,-1
 501 135 l 1,3,-1
 506 135 l 1,4,-1
 492 699 l 1,5,-1
 603 699 l 1,6,-1
 603 0 l 1,7,-1
 450 0 l 1,8,-1
 200 563 l 1,9,-1
 195 563 l 1,10,-1
 208 0 l 1,11,-1
 97 0 l 1,0,-1
EndSplineSet
EndChar

StartChar: O
Encoding: 79 79 50
Width: 680
GlyphClass: 2
Flags: W
LayerCount: 2
Fore
SplineSet
340 -13 m 0,0,1
 292 -13 292 -13 253 -3.5 c 128,-1,2
 214 6 214 6 178 30.5 c 128,-1,3
 142 55 142 55 118 95 c 0,4,5
 64 182 64 182 64 351 c 0,6,7
 64 564 64 564 146 642 c 0,8,9
 186 680 186 680 232.5 696 c 128,-1,10
 279 712 279 712 340 712 c 128,-1,11
 401 712 401 712 447.5 696 c 128,-1,12
 494 680 494 680 534 642 c 0,13,14
 616 564 616 564 616 351 c 0,15,16
 616 108 616 108 502 30 c 0,17,18
 438 -13 438 -13 340 -13 c 0,0,1
283.5 96.5 m 128,-1,20
 306 91 306 91 352 91 c 128,-1,21
 398 91 398 91 428 108 c 0,22,23
 494 145 494 145 494 348 c 0,24,25
 494 432 494 432 486 483 c 128,-1,26
 478 534 478 534 457.5 562 c 128,-1,27
 437 590 437 590 410.5 599 c 128,-1,28
 384 608 384 608 340 608 c 128,-1,29
 296 608 296 608 270 599 c 128,-1,30
 244 590 244 590 223.5 562 c 128,-1,31
 203 534 203 534 195 483 c 128,-1,32
 187 432 187 432 187 356.5 c 128,-1,33
 187 281 187 281 193 235 c 128,-1,34
 199 189 199 189 210 160.5 c 128,-1,35
 221 132 221 132 241 117 c 128,-1,19
 261 102 261 102 283.5 96.5 c 128,-1,20
EndSplineSet
EndChar

StartChar: P
Encoding: 80 80 51
Width: 604
GlyphClass: 2
Flags: W
LayerCount: 2
Fore
SplineSet
97 698 m 1,0,1
 238 712 238 712 342 712 c 128,-1,2
 446 712 446 712 499 651 c 128,-1,3
 552 590 552 590 552 472 c 0,4,5
 552 328 552 328 480 272 c 1,6,7
 418 222 418 222 325 222 c 1,8,-1
 214 227 l 1,9,-1
 214 0 l 1,10,-1
 97 0 l 1,11,-1
 101 325 l 1,12,-1
 97 698 l 1,0,1
214 331 m 1,13,14
 272 321 272 321 335 321 c 128,-1,15
 398 321 398 321 414 349.5 c 128,-1,16
 430 378 430 378 430 480.5 c 128,-1,17
 430 583 430 583 402 604 c 1,18,19
 384 619 384 619 324 619 c 128,-1,20
 264 619 264 619 214 611 c 1,21,-1
 214 331 l 1,13,14
EndSplineSet
EndChar

StartChar: Q
Encoding: 81 81 52
Width: 695
GlyphClass: 2
Flags: W
LayerCount: 2
Fore
SplineSet
422 -4 m 1,0,1
 382 -13 382 -13 329.5 -13 c 128,-1,2
 277 -13 277 -13 231 3 c 128,-1,3
 185 19 185 19 145.5 58 c 128,-1,4
 106 97 106 97 85 171 c 128,-1,5
 64 245 64 245 64 351 c 128,-1,6
 64 457 64 457 85 530.5 c 128,-1,7
 106 604 106 604 146 642 c 128,-1,8
 186 680 186 680 233 696 c 128,-1,9
 280 712 280 712 341 712 c 128,-1,10
 402 712 402 712 448 696 c 128,-1,11
 494 680 494 680 534 642 c 0,12,13
 616 564 616 564 616 352.5 c 128,-1,14
 616 141 616 141 521 51 c 1,15,-1
 521 45 l 1,16,-1
 659 3 l 1,17,-1
 621 -97 l 1,18,-1
 422 -4 l 1,0,1
283.5 96.5 m 128,-1,20
 306 91 306 91 352 91 c 128,-1,21
 398 91 398 91 428 108 c 0,22,23
 494 145 494 145 494 348 c 0,24,25
 494 432 494 432 486 483 c 128,-1,26
 478 534 478 534 457.5 562 c 128,-1,27
 437 590 437 590 411 599 c 128,-1,28
 385 608 385 608 341 608 c 128,-1,29
 297 608 297 608 270.5 599 c 128,-1,30
 244 590 244 590 223.5 562 c 128,-1,31
 203 534 203 534 195 483 c 128,-1,32
 187 432 187 432 187 356.5 c 128,-1,33
 187 281 187 281 193 235 c 128,-1,34
 199 189 199 189 210 160.5 c 128,-1,35
 221 132 221 132 241 117 c 128,-1,19
 261 102 261 102 283.5 96.5 c 128,-1,20
EndSplineSet
EndChar

StartChar: R
Encoding: 82 82 53
Width: 667
GlyphClass: 2
Flags: W
LayerCount: 2
Fore
SplineSet
340 712 m 0,0,1
 581 712 581 712 581 487 c 0,2,3
 581 321 581 321 435 280 c 1,4,-1
 435 275 l 1,5,-1
 598 0 l 1,6,-1
 461 0 l 1,7,-1
 325 264 l 1,8,-1
 215 268 l 1,9,-1
 215 0 l 1,10,-1
 97 0 l 1,11,-1
 102 328 l 1,12,-1
 99 698 l 1,13,14
 211 712 211 712 340 712 c 0,0,1
214 368 m 1,15,16
 293 359 293 359 352.5 359 c 128,-1,17
 412 359 412 359 435.5 388.5 c 128,-1,18
 459 418 459 418 459 494.5 c 128,-1,19
 459 571 459 571 435 598 c 1,20,21
 414 620 414 620 348.5 620 c 128,-1,22
 283 620 283 620 215 611 c 1,23,-1
 214 368 l 1,15,16
EndSplineSet
EndChar

StartChar: S
Encoding: 83 83 54
Width: 542
GlyphClass: 2
Flags: W
LayerCount: 2
Fore
SplineSet
283 92 m 0,0,1
 371 92 371 92 371 188 c 0,2,3
 371 229 371 229 338 257 c 128,-1,4
 305 285 305 285 246.5 311.5 c 128,-1,5
 188 338 188 338 179.5 342.5 c 128,-1,6
 171 347 171 347 149 359 c 128,-1,7
 127 371 127 371 118.5 379 c 128,-1,8
 110 387 110 387 94.5 402.5 c 128,-1,9
 79 418 79 418 73 434 c 0,10,11
 56 477 56 477 56 518 c 0,12,13
 56 603 56 603 114.5 657.5 c 128,-1,14
 173 712 173 712 281 712 c 0,15,16
 360 712 360 712 437 690 c 1,17,-1
 464 683 l 1,18,-1
 445 585 l 1,19,20
 336 606 336 606 278.5 606 c 128,-1,21
 221 606 221 606 199 587.5 c 128,-1,22
 177 569 177 569 177 528.5 c 128,-1,23
 177 488 177 488 204.5 465.5 c 128,-1,24
 232 443 232 443 268.5 425.5 c 128,-1,25
 305 408 305 408 327.5 398 c 128,-1,26
 350 388 350 388 361.5 382.5 c 128,-1,27
 373 377 373 377 393 365.5 c 128,-1,28
 413 354 413 354 424 344.5 c 128,-1,29
 435 335 435 335 450 319.5 c 128,-1,30
 465 304 465 304 472 288 c 0,31,32
 491 249 491 249 491 204 c 0,33,34
 491 107 491 107 428 47 c 128,-1,35
 365 -13 365 -13 263 -13 c 0,36,37
 211 -13 211 -13 154.5 2 c 128,-1,38
 98 17 98 17 68 32 c 2,39,-1
 37 48 l 1,40,41
 46 75 46 75 52 91.5 c 128,-1,42
 58 108 58 108 62 119.5 c 128,-1,43
 66 131 66 131 71 144 c 1,44,45
 186 92 186 92 283 92 c 0,0,1
EndSplineSet
EndChar

StartChar: T
Encoding: 84 84 55
Width: 498
GlyphClass: 2
Flags: W
LayerCount: 2
Fore
SplineSet
-4 699 m 1,0,-1
 497 699 l 1,1,-1
 497 596 l 1,2,-1
 302 599 l 1,3,-1
 304 0 l 1,4,-1
 188 0 l 1,5,-1
 191 599 l 1,6,-1
 -4 596 l 1,7,-1
 -4 699 l 1,0,-1
EndSplineSet
EndChar

StartChar: U
Encoding: 85 85 56
Width: 684
GlyphClass: 2
Flags: W
LayerCount: 2
Fore
SplineSet
97 305 m 2,0,-1
 97 699 l 1,1,-1
 214 699 l 1,2,-1
 214 332 l 2,3,4
 214 223 214 223 225.5 172.5 c 128,-1,5
 237 122 237 122 262 106 c 128,-1,6
 287 90 287 90 342.5 90.5 c 128,-1,7
 398 91 398 91 422.5 106.5 c 128,-1,8
 447 122 447 122 458.5 172 c 128,-1,9
 470 222 470 222 470 332 c 2,10,-1
 470 699 l 1,11,-1
 587 699 l 1,12,-1
 587 314 l 2,13,14
 587 124 587 124 523 54 c 0,15,16
 490 17 490 17 447 2 c 128,-1,17
 404 -13 404 -13 342 -13 c 0,18,19
 218 -13 218 -13 157.5 57 c 128,-1,20
 97 127 97 127 97 305 c 2,0,-1
EndSplineSet
EndChar

StartChar: V
Encoding: 86 86 57
Width: 569
GlyphClass: 2
Flags: W
LayerCount: 2
Fore
SplineSet
207 0 m 1,0,-1
 16 699 l 1,1,-1
 139 699 l 1,2,-1
 277 103 l 1,3,-1
 283 103 l 1,4,-1
 422 699 l 1,5,-1
 546 699 l 1,6,-1
 353 0 l 1,7,-1
 207 0 l 1,0,-1
EndSplineSet
EndChar

StartChar: W
Encoding: 87 87 58
Width: 785
GlyphClass: 2
Flags: W
LayerCount: 2
Fore
SplineSet
129 0 m 1,0,-1
 28 699 l 1,1,-1
 145 699 l 1,2,-1
 209 114 l 1,3,-1
 215 114 l 1,4,-1
 313 531 l 1,5,-1
 459 531 l 1,6,-1
 557 114 l 1,7,-1
 563 114 l 1,8,-1
 626 699 l 1,9,-1
 744 699 l 1,10,-1
 641 0 l 1,11,-1
 490 0 l 1,12,-1
 389 428 l 1,13,-1
 383 428 l 1,14,-1
 283 0 l 1,15,-1
 129 0 l 1,0,-1
EndSplineSet
EndChar

StartChar: X
Encoding: 88 88 59
Width: 579
GlyphClass: 2
Flags: W
LayerCount: 2
Fore
SplineSet
5 0 m 1,0,-1
 211 350 l 1,1,-1
 12 699 l 1,2,-1
 145 699 l 1,3,-1
 282 424 l 1,4,-1
 288 424 l 1,5,-1
 426 699 l 1,6,-1
 559 699 l 1,7,-1
 360 348 l 1,8,-1
 567 0 l 1,9,-1
 433 0 l 1,10,-1
 290 271 l 1,11,-1
 285 271 l 1,12,-1
 139 0 l 1,13,-1
 5 0 l 1,0,-1
EndSplineSet
EndChar

StartChar: Y
Encoding: 89 89 60
Width: 547
GlyphClass: 2
Flags: W
LayerCount: 2
Fore
SplineSet
210 0 m 1,0,-1
 213 256 l 1,1,-1
 3 699 l 1,2,-1
 130 699 l 1,3,-1
 267 352 l 1,4,-1
 272 352 l 1,5,-1
 410 699 l 1,6,-1
 537 699 l 1,7,-1
 327 256 l 1,8,-1
 329 0 l 1,9,-1
 210 0 l 1,0,-1
EndSplineSet
EndChar

StartChar: Z
Encoding: 90 90 61
Width: 557
GlyphClass: 2
Flags: W
LayerCount: 2
Fore
SplineSet
29 0 m 1,0,-1
 29 98 l 1,1,-1
 380 596 l 1,2,-1
 380 603 l 1,3,-1
 50 596 l 1,4,-1
 50 699 l 1,5,-1
 516 699 l 1,6,-1
 516 601 l 1,7,-1
 170 102 l 1,8,-1
 170 97 l 1,9,-1
 520 102 l 1,10,-1
 520 0 l 1,11,-1
 29 0 l 1,0,-1
EndSplineSet
EndChar

StartChar: bracketleft
Encoding: 91 91 62
Width: 330
GlyphClass: 2
Flags: W
LayerCount: 2
Fore
SplineSet
98 -124 m 1,0,-1
 98 787 l 1,1,-1
 296 787 l 1,2,-1
 296 697 l 1,3,-1
 205 700 l 1,4,-1
 205 -37 l 1,5,-1
 296 -35 l 1,6,-1
 296 -124 l 1,7,-1
 98 -124 l 1,0,-1
EndSplineSet
EndChar

StartChar: backslash
Encoding: 92 92 63
Width: 464
GlyphClass: 2
Flags: W
LayerCount: 2
Fore
SplineSet
352 -98 m 1,0,-1
 194 285 l 1,1,-1
 15 699 l 1,2,-1
 129 699 l 1,3,-1
 281 325 l 1,4,-1
 465 -98 l 1,5,-1
 352 -98 l 1,0,-1
EndSplineSet
EndChar

StartChar: bracketright
Encoding: 93 93 64
Width: 330
GlyphClass: 2
Flags: W
LayerCount: 2
Fore
SplineSet
33 -124 m 1,0,-1
 33 -35 l 1,1,-1
 126 -37 l 1,2,-1
 126 700 l 1,3,-1
 33 697 l 1,4,-1
 33 787 l 1,5,-1
 231 787 l 1,6,-1
 231 -124 l 1,7,-1
 33 -124 l 1,0,-1
EndSplineSet
EndChar

StartChar: asciicircum
Encoding: 94 94 65
Width: 520
GlyphClass: 2
Flags: W
LayerCount: 2
Fore
SplineSet
50 325 m 1,0,-1
 200 700 l 1,1,-1
 320 700 l 1,2,-1
 469 325 l 1,3,-1
 363 314 l 1,4,-1
 263 606 l 1,5,-1
 257 606 l 1,6,-1
 157 314 l 1,7,-1
 50 325 l 1,0,-1
EndSplineSet
EndChar

StartChar: underscore
Encoding: 95 95 66
Width: 556
GlyphClass: 2
Flags: W
LayerCount: 2
Fore
SplineSet
13 -163 m 1,0,-1
 13 -81 l 1,1,-1
 543 -81 l 1,2,-1
 543 -163 l 1,3,-1
 13 -163 l 1,0,-1
EndSplineSet
EndChar

StartChar: grave
Encoding: 96 96 67
Width: 623
GlyphClass: 2
Flags: W
LayerCount: 2
Fore
SplineSet
162 721 m 1,0,-1
 194 813 l 1,1,-1
 456 720 l 1,2,-1
 434 652 l 1,3,-1
 162 721 l 1,0,-1
EndSplineSet
EndChar

StartChar: a
Encoding: 97 97 68
Width: 588
GlyphClass: 2
Flags: W
LayerCount: 2
Fore
SplineSet
216 -13 m 0,0,1
 139 -13 139 -13 92.5 35.5 c 128,-1,2
 46 84 46 84 46 180.5 c 128,-1,3
 46 277 46 277 108.5 321 c 128,-1,4
 171 365 171 365 289 365 c 1,5,-1
 385 364 l 1,6,7
 385 461 385 461 369.5 481.5 c 128,-1,8
 354 502 354 502 309 502 c 128,-1,9
 264 502 264 502 208.5 491 c 128,-1,10
 153 480 153 480 91 457 c 1,11,-1
 60 542 l 1,12,13
 74 548 74 548 97.5 557.5 c 128,-1,14
 121 567 121 567 185 582.5 c 128,-1,15
 249 598 249 598 302 598 c 0,16,17
 501 598 501 598 501 382 c 2,18,-1
 501 0 l 1,19,-1
 427 0 l 1,20,-1
 411 63 l 1,21,-1
 406 63 l 1,22,23
 395 54 395 54 376.5 41.5 c 128,-1,24
 358 29 358 29 307.5 8 c 128,-1,25
 257 -13 257 -13 216 -13 c 0,0,1
385 270 m 1,26,27
 344 276 344 276 274 276 c 128,-1,28
 204 276 204 276 187 259 c 1,29,30
 165 239 165 239 165 182.5 c 128,-1,31
 165 126 165 126 179.5 105.5 c 128,-1,32
 194 85 194 85 226.5 85 c 128,-1,33
 259 85 259 85 298.5 96.5 c 128,-1,34
 338 108 338 108 385 130 c 1,35,-1
 385 270 l 1,26,27
EndSplineSet
EndChar

StartChar: b
Encoding: 98 98 69
Width: 599
GlyphClass: 2
Flags: W
LayerCount: 2
Fore
SplineSet
82 757 m 1,0,-1
 198 757 l 1,1,-1
 198 579 l 1,2,3
 282 598 282 598 339 598 c 0,4,5
 537 598 537 598 537 301 c 0,6,7
 537 -13 537 -13 320 -13 c 0,8,9
 274 -13 274 -13 203 -1 c 128,-1,10
 132 11 132 11 82 28 c 1,11,-1
 82 757 l 1,0,-1
198 97 m 1,12,13
 256 83 256 83 308 83 c 128,-1,14
 360 83 360 83 376 98 c 1,15,16
 417 132 417 132 417 318 c 0,17,18
 417 414 417 414 405 460 c 0,19,20
 400 480 400 480 386 488.5 c 128,-1,21
 372 497 372 497 361 498.5 c 128,-1,22
 350 500 350 500 323 500 c 0,23,24
 268 500 268 500 198 480 c 1,25,-1
 198 97 l 1,12,13
EndSplineSet
EndChar

StartChar: c
Encoding: 99 99 70
Width: 534
GlyphClass: 2
Flags: W
LayerCount: 2
Fore
SplineSet
467 129 m 1,0,1
 478 95 478 95 501 44 c 1,2,3
 492 38 492 38 476.5 28.5 c 128,-1,4
 461 19 461 19 411 3 c 128,-1,5
 361 -13 361 -13 309 -13 c 0,6,7
 194 -13 194 -13 128 62 c 128,-1,8
 62 137 62 137 62 294 c 0,9,10
 62 468 62 468 142 537 c 0,11,12
 214 598 214 598 332 598 c 0,13,14
 410 598 410 598 486 579 c 1,15,-1
 473 488 l 1,16,17
 364 502 364 502 306 502 c 128,-1,18
 248 502 248 502 224 478 c 1,19,20
 182 433 182 433 182 286 c 128,-1,21
 182 139 182 139 239 97 c 0,22,23
 260 82 260 82 293.5 82 c 128,-1,24
 327 82 327 82 370 94 c 128,-1,25
 413 106 413 106 467 129 c 1,0,1
EndSplineSet
EndChar

StartChar: d
Encoding: 100 100 71
Width: 604
GlyphClass: 2
Flags: W
LayerCount: 2
Fore
SplineSet
255 -13 m 0,0,1
 168 -13 168 -13 115 61.5 c 128,-1,2
 62 136 62 136 62 284 c 0,3,4
 62 490 62 490 160 562 c 1,5,6
 211 598 211 598 283 598 c 0,7,8
 332 598 332 598 406 579 c 1,9,-1
 406 757 l 1,10,-1
 522 757 l 1,11,-1
 522 0 l 1,12,-1
 446 0 l 1,13,-1
 433 59 l 1,14,-1
 427 59 l 1,15,16
 398 37 398 37 379 25 c 128,-1,17
 360 13 360 13 324.5 0 c 128,-1,18
 289 -13 289 -13 255 -13 c 0,0,1
406 476 m 1,19,20
 345 501 345 501 288.5 501 c 128,-1,21
 232 501 232 501 215 480 c 0,22,23
 182 438 182 438 182 284.5 c 128,-1,24
 182 131 182 131 220 99 c 0,25,26
 233 87 233 87 264 87 c 0,27,28
 322 87 322 87 385 120 c 2,29,-1
 406 131 l 1,30,-1
 406 476 l 1,19,20
EndSplineSet
EndChar

StartChar: e
Encoding: 101 101 72
Width: 589
GlyphClass: 2
Flags: W
LayerCount: 2
Fore
SplineSet
312 -13 m 0,0,1
 62 -13 62 -13 62 292.5 c 128,-1,2
 62 598 62 598 310 598 c 0,3,4
 421 598 421 598 476.5 534 c 128,-1,5
 532 470 532 470 532 322 c 2,6,-1
 532 250 l 1,7,-1
 183 250 l 1,8,9
 183 139 183 139 221 104 c 0,10,11
 246 82 246 82 288 82 c 0,12,13
 369 82 369 82 459 112 c 1,14,-1
 490 123 l 1,15,-1
 518 35 l 1,16,17
 420 -13 420 -13 312 -13 c 0,0,1
414 372 m 2,18,19
 414 378 414 378 413 398.5 c 128,-1,20
 412 419 412 419 411 423.5 c 128,-1,21
 410 428 410 428 407.5 443.5 c 128,-1,22
 405 459 405 459 401.5 462.5 c 128,-1,23
 398 466 398 466 392.5 476 c 128,-1,24
 387 486 387 486 380 488.5 c 128,-1,25
 373 491 373 491 364 496 c 0,26,27
 350 503 350 503 310.5 503 c 128,-1,28
 271 503 271 503 245.5 494 c 128,-1,29
 220 485 220 485 206.5 462 c 128,-1,30
 193 439 193 439 189 412 c 128,-1,31
 185 385 185 385 184 337 c 1,32,-1
 414 342 l 1,33,-1
 414 372 l 2,18,19
EndSplineSet
EndChar

StartChar: f
Encoding: 102 102 73
Width: 361
GlyphClass: 2
Flags: W
LayerCount: 2
Fore
SplineSet
109 0 m 1,0,-1
 109 466 l 1,1,-1
 42 466 l 1,2,-1
 42 537 l 1,3,-1
 109 551 l 1,4,5
 115 671 115 671 164.5 720.5 c 128,-1,6
 214 770 214 770 302 770 c 1,7,-1
 374 767 l 1,8,-1
 366 673 l 1,9,10
 316 676 316 676 290 676 c 128,-1,11
 264 676 264 676 252 669 c 0,12,13
 225 653 225 653 225 553 c 1,14,-1
 354 553 l 1,15,-1
 354 463 l 1,16,-1
 225 463 l 1,17,-1
 225 0 l 1,18,-1
 109 0 l 1,0,-1
EndSplineSet
EndChar

StartChar: g
Encoding: 103 103 74
Width: 545
GlyphClass: 2
Flags: W
LayerCount: 2
Fore
SplineSet
66 -59 m 1,0,1
 240 -85 240 -85 321.5 -85 c 128,-1,2
 403 -85 403 -85 403 -60 c 0,3,4
 403 -44 403 -44 376.5 -28 c 128,-1,5
 350 -12 350 -12 246 31.5 c 128,-1,6
 142 75 142 75 142 77 c 2,7,-1
 183 192 l 1,8,9
 39 239 39 239 39 384 c 0,10,11
 39 497 39 497 108.5 547.5 c 128,-1,12
 178 598 178 598 290 598 c 0,13,14
 352 598 352 598 520 586 c 1,15,-1
 520 516 l 1,16,-1
 456 506 l 1,17,18
 486 440 486 440 486 381 c 0,19,20
 486 293 486 293 424.5 238 c 128,-1,21
 363 183 363 183 255 182 c 1,22,23
 251 143 251 143 251 138 c 128,-1,24
 251 133 251 133 343.5 95 c 128,-1,25
 436 57 436 57 468.5 28.5 c 128,-1,26
 501 0 501 0 501 -44 c 0,27,28
 501 -108 501 -108 436.5 -143.5 c 128,-1,29
 372 -179 372 -179 266 -179 c 0,30,31
 169 -179 169 -179 81 -157 c 2,32,-1
 53 -150 l 1,33,-1
 66 -59 l 1,0,1
172.5 481 m 128,-1,35
 144 456 144 456 144 389 c 128,-1,36
 144 322 144 322 170.5 298 c 128,-1,37
 197 274 197 274 260.5 274 c 128,-1,38
 324 274 324 274 349 297.5 c 128,-1,39
 374 321 374 321 374 385 c 256,40,41
 374 449 374 449 367 472.5 c 128,-1,42
 360 496 360 496 357 498 c 0,43,44
 351 502 351 502 272 506 c 1,45,34
 201 506 201 506 172.5 481 c 128,-1,35
EndSplineSet
EndChar

StartChar: h
Encoding: 104 104 75
Width: 607
GlyphClass: 2
Flags: W
LayerCount: 2
Fore
SplineSet
77 0 m 1,0,-1
 77 757 l 1,1,-1
 193 757 l 1,2,-1
 193 548 l 1,3,4
 304 599 304 599 382 599 c 128,-1,5
 460 599 460 599 493.5 545.5 c 128,-1,6
 527 492 527 492 527 386 c 2,7,-1
 527 0 l 1,8,-1
 411 0 l 1,9,-1
 411 358 l 2,10,11
 411 443 411 443 397 469 c 128,-1,12
 383 495 383 495 341 495 c 0,13,14
 315 495 315 495 278 485.5 c 128,-1,15
 241 476 241 476 193 456 c 1,16,-1
 193 0 l 1,17,-1
 77 0 l 1,0,-1
EndSplineSet
EndChar

StartChar: i
Encoding: 105 105 76
Width: 310
GlyphClass: 2
Flags: W
LayerCount: 2
Fore
SplineSet
97 0 m 1,0,-1
 97 585 l 1,1,-1
 213 585 l 1,2,-1
 213 0 l 1,3,-1
 97 0 l 1,0,-1
88 663 m 1,4,-1
 88 757 l 1,5,-1
 222 757 l 1,6,-1
 222 663 l 1,7,-1
 88 663 l 1,4,-1
EndSplineSet
EndChar

StartChar: j
Encoding: 106 106 77
Width: 328
GlyphClass: 2
Flags: W
LayerCount: 2
Fore
SplineSet
-12 -74 m 1,0,1
 27 -80 27 -80 61 -80 c 128,-1,2
 95 -80 95 -80 105 -56.5 c 128,-1,3
 115 -33 115 -33 115 60 c 2,4,-1
 115 585 l 1,5,-1
 231 585 l 1,6,-1
 231 61 l 2,7,8
 231 -66 231 -66 183 -122 c 128,-1,9
 135 -178 135 -178 57 -178 c 1,10,-1
 -25 -171 l 1,11,-1
 -12 -74 l 1,0,1
106 663 m 1,12,-1
 106 757 l 1,13,-1
 240 757 l 1,14,-1
 240 663 l 1,15,-1
 106 663 l 1,12,-1
EndSplineSet
EndChar

StartChar: k
Encoding: 107 107 78
Width: 571
GlyphClass: 2
Flags: W
LayerCount: 2
Fore
SplineSet
198 753 m 1,0,-1
 198 0 l 1,1,-1
 82 0 l 1,2,-1
 87 321 l 1,3,-1
 82 753 l 1,4,-1
 198 753 l 1,0,-1
438 0 m 1,5,-1
 199 314 l 1,6,-1
 422 582 l 1,7,-1
 570 582 l 1,8,-1
 325 319 l 1,9,-1
 325 314 l 1,10,-1
 588 0 l 1,11,-1
 438 0 l 1,5,-1
EndSplineSet
EndChar

StartChar: l
Encoding: 108 108 79
Width: 280
GlyphClass: 2
Flags: W
LayerCount: 2
Fore
SplineSet
82 0 m 1,0,-1
 82 757 l 1,1,-1
 198 757 l 1,2,-1
 198 0 l 1,3,-1
 82 0 l 1,0,-1
EndSplineSet
EndChar

StartChar: m
Encoding: 109 109 80
Width: 941
GlyphClass: 2
Flags: W
LayerCount: 2
Fore
SplineSet
93 0 m 1,0,-1
 93 585 l 1,1,-1
 169 585 l 1,2,-1
 182 527 l 1,3,-1
 187 527 l 1,4,5
 308 599 308 599 394 599 c 128,-1,6
 480 599 480 599 512 523 c 1,7,8
 551 547 551 547 573 559.5 c 128,-1,9
 595 572 595 572 636 585.5 c 128,-1,10
 677 599 677 599 714 599 c 0,11,12
 795 599 795 599 828 543.5 c 128,-1,13
 861 488 861 488 861 384 c 2,14,-1
 861 0 l 1,15,-1
 745 0 l 1,16,-1
 745 356 l 2,17,18
 745 439 745 439 733.5 466.5 c 128,-1,19
 722 494 722 494 682.5 494 c 128,-1,20
 643 494 643 494 599.5 477 c 128,-1,21
 556 460 556 460 531 444 c 1,22,23
 535 404 535 404 535 382 c 2,24,-1
 535 0 l 1,25,-1
 419 0 l 1,26,-1
 419 358 l 2,27,28
 419 469 419 469 393 486 c 0,29,30
 381 494 381 494 356 494 c 0,31,32
 294 494 294 494 209 447 c 1,33,-1
 209 0 l 1,34,-1
 93 0 l 1,0,-1
EndSplineSet
EndChar

StartChar: n
Encoding: 110 110 81
Width: 620
GlyphClass: 2
Flags: W
LayerCount: 2
Fore
SplineSet
93 0 m 1,0,-1
 93 585 l 1,1,-1
 169 585 l 1,2,-1
 182 527 l 1,3,-1
 187 527 l 1,4,5
 310 598 310 598 394.5 598 c 128,-1,6
 479 598 479 598 509.5 543 c 128,-1,7
 540 488 540 488 540 386 c 2,8,-1
 540 0 l 1,9,-1
 424 0 l 1,10,-1
 424 357 l 2,11,12
 424 446 424 446 412.5 469.5 c 128,-1,13
 401 493 401 493 362 493 c 128,-1,14
 323 493 323 493 278.5 477 c 128,-1,15
 234 461 234 461 209 445 c 1,16,-1
 209 0 l 1,17,-1
 93 0 l 1,0,-1
EndSplineSet
EndChar

StartChar: o
Encoding: 111 111 82
Width: 598
GlyphClass: 2
Flags: W
LayerCount: 2
Fore
SplineSet
482 64.5 m 128,-1,1
 428 -13 428 -13 299.5 -13 c 128,-1,2
 171 -13 171 -13 116.5 64.5 c 128,-1,3
 62 142 62 142 62 292 c 128,-1,4
 62 442 62 442 116.5 520 c 128,-1,5
 171 598 171 598 299.5 598 c 128,-1,6
 428 598 428 598 482 520 c 128,-1,7
 536 442 536 442 536 292 c 128,-1,0
 536 142 536 142 482 64.5 c 128,-1,1
300 79 m 128,-1,9
 369 79 369 79 393 120.5 c 128,-1,10
 417 162 417 162 417 292.5 c 128,-1,11
 417 423 417 423 393 464 c 128,-1,12
 369 505 369 505 300 505 c 128,-1,13
 231 505 231 505 206.5 464 c 128,-1,14
 182 423 182 423 182 292.5 c 128,-1,15
 182 162 182 162 206.5 120.5 c 128,-1,8
 231 79 231 79 300 79 c 128,-1,9
EndSplineSet
EndChar

StartChar: p
Encoding: 112 112 83
Width: 605
GlyphClass: 2
Flags: W
LayerCount: 2
Fore
SplineSet
82 -166 m 1,0,-1
 82 585 l 1,1,-1
 158 585 l 1,2,-1
 172 525 l 1,3,-1
 177 525 l 1,4,5
 179 526 179 526 194.5 537 c 128,-1,6
 210 548 210 548 218.5 553.5 c 128,-1,7
 227 559 227 559 245.5 569 c 128,-1,8
 264 579 264 579 279 584 c 0,9,10
 321 598 321 598 356 598 c 0,11,12
 443 598 443 598 493 525.5 c 128,-1,13
 543 453 543 453 543 303 c 0,14,15
 543 -13 543 -13 315 -13 c 0,16,17
 272 -13 272 -13 198 -1 c 1,18,-1
 198 -166 l 1,19,-1
 82 -166 l 1,0,-1
198 102 m 1,20,21
 266 84 266 84 314 84 c 128,-1,22
 362 84 362 84 381 98 c 0,23,24
 423 131 423 131 423 313 c 0,25,26
 423 380 423 380 419.5 418 c 128,-1,27
 416 456 416 456 404.5 473 c 128,-1,28
 393 490 393 490 382.5 493 c 128,-1,29
 372 496 372 496 344.5 496 c 128,-1,30
 317 496 317 496 279.5 484 c 128,-1,31
 242 472 242 472 198 449 c 1,32,-1
 198 102 l 1,20,21
EndSplineSet
EndChar

StartChar: q
Encoding: 113 113 84
Width: 600
GlyphClass: 2
Flags: W
LayerCount: 2
Fore
SplineSet
402 -166 m 1,0,-1
 402 15 l 1,1,2
 337 -13 337 -13 282.5 -13 c 128,-1,3
 228 -13 228 -13 193.5 1.5 c 128,-1,4
 159 16 159 16 128 49 c 0,5,6
 62 119 62 119 62 291.5 c 128,-1,7
 62 464 62 464 118.5 531 c 128,-1,8
 175 598 175 598 291 598 c 0,9,10
 337 598 337 598 393.5 589 c 128,-1,11
 450 580 450 580 518 562 c 1,12,-1
 518 -166 l 1,13,-1
 402 -166 l 1,0,-1
402 487 m 1,14,15
 346 501 346 501 287.5 501 c 128,-1,16
 229 501 229 501 211 483 c 1,17,18
 182 449 182 449 182 302 c 0,19,20
 182 130 182 130 217 101 c 0,21,22
 235 86 235 86 268 86 c 0,23,24
 330 86 330 86 402 110 c 1,25,-1
 402 487 l 1,14,15
EndSplineSet
EndChar

StartChar: r
Encoding: 114 114 85
Width: 416
GlyphClass: 2
Flags: W
LayerCount: 2
Fore
SplineSet
347 598 m 128,-1,1
 376 598 376 598 400 590 c 1,2,-1
 391 486 l 1,3,4
 366 488 366 488 346 488 c 0,5,6
 271 488 271 488 209 444 c 1,7,-1
 209 0 l 1,8,-1
 93 0 l 1,9,-1
 93 585 l 1,10,-1
 166 585 l 1,11,12
 175 538 175 538 181 524 c 1,13,-1
 187 524 l 1,14,15
 223 553 223 553 270.5 575.5 c 128,-1,0
 318 598 318 598 347 598 c 128,-1,1
EndSplineSet
EndChar

StartChar: s
Encoding: 115 115 86
Width: 512
GlyphClass: 2
Flags: W
LayerCount: 2
Fore
SplineSet
270 83 m 0,0,1
 309 83 309 83 329 101 c 128,-1,2
 349 119 349 119 349 159 c 128,-1,3
 349 199 349 199 323 216.5 c 128,-1,4
 297 234 297 234 262 244.5 c 128,-1,5
 227 255 227 255 223 256.5 c 128,-1,6
 219 258 219 258 200 264 c 128,-1,7
 181 270 181 270 164 276 c 128,-1,8
 147 282 147 282 120.5 296 c 128,-1,9
 94 310 94 310 82 326 c 0,10,11
 49 366 49 366 49 426 c 0,12,13
 49 505 49 505 99.5 551.5 c 128,-1,14
 150 598 150 598 246.5 598 c 128,-1,15
 343 598 343 598 436 566 c 1,16,-1
 418 474 l 1,17,18
 314 499 314 499 251.5 499 c 128,-1,19
 189 499 189 499 174.5 482.5 c 128,-1,20
 160 466 160 466 160 436 c 128,-1,21
 160 406 160 406 188.5 387.5 c 128,-1,22
 217 369 217 369 269.5 353.5 c 128,-1,23
 322 338 322 338 333 334.5 c 128,-1,24
 344 331 344 331 367 322.5 c 128,-1,25
 390 314 390 314 399.5 307 c 128,-1,26
 409 300 409 300 424 287.5 c 128,-1,27
 439 275 439 275 446 260 c 0,28,29
 462 224 462 224 462 180 c 0,30,31
 462 92 462 92 409.5 39.5 c 128,-1,32
 357 -13 357 -13 261 -13 c 0,33,34
 213 -13 213 -13 159.5 0 c 128,-1,35
 106 13 106 13 47 39 c 1,36,-1
 75 133 l 1,37,38
 192 83 192 83 270 83 c 0,0,1
EndSplineSet
EndChar

StartChar: t
Encoding: 116 116 87
Width: 384
GlyphClass: 2
Flags: W
LayerCount: 2
Fore
SplineSet
104 190 m 2,0,-1
 104 465 l 1,1,-1
 37 465 l 1,2,-1
 37 537 l 1,3,-1
 109 551 l 1,4,-1
 132 689 l 1,5,-1
 221 689 l 1,6,-1
 221 553 l 1,7,-1
 338 553 l 1,8,-1
 338 463 l 1,9,-1
 220 463 l 1,10,-1
 220 185 l 2,11,12
 220 118 220 118 228.5 102.5 c 128,-1,13
 237 87 237 87 273 87 c 1,14,-1
 337 90 l 1,15,-1
 337 -3 l 1,16,17
 303 -11 303 -11 258 -11 c 0,18,19
 179 -11 179 -11 141.5 30.5 c 128,-1,20
 104 72 104 72 104 190 c 2,0,-1
EndSplineSet
EndChar

StartChar: u
Encoding: 117 117 88
Width: 619
GlyphClass: 2
Flags: W
LayerCount: 2
Fore
SplineSet
80 199 m 2,0,-1
 80 585 l 1,1,-1
 196 585 l 1,2,-1
 196 222 l 2,3,4
 196 126 196 126 209 107 c 1,5,6
 223 90 223 90 260 90 c 0,7,8
 320 90 320 90 410 138 c 1,9,-1
 410 585 l 1,10,-1
 526 585 l 1,11,-1
 526 0 l 1,12,-1
 450 0 l 1,13,-1
 436 58 l 1,14,-1
 431 58 l 1,15,16
 430 57 430 57 408.5 45 c 128,-1,17
 387 33 387 33 378.5 29 c 128,-1,18
 370 25 370 25 348 14.5 c 128,-1,19
 326 4 326 4 311 0 c 0,20,21
 269 -13 269 -13 235 -13 c 0,22,23
 80 -13 80 -13 80 199 c 2,0,-1
EndSplineSet
EndChar

StartChar: v
Encoding: 118 118 89
Width: 495
GlyphClass: 2
Flags: W
LayerCount: 2
Fore
SplineSet
176 0 m 1,0,-1
 6 585 l 1,1,-1
 126 585 l 1,2,-1
 243 97 l 1,3,-1
 249 97 l 1,4,-1
 368 585 l 1,5,-1
 488 585 l 1,6,-1
 315 0 l 1,7,-1
 176 0 l 1,0,-1
EndSplineSet
EndChar

StartChar: w
Encoding: 119 119 90
Width: 751
GlyphClass: 2
Flags: W
LayerCount: 2
Fore
SplineSet
130 0 m 1,0,-1
 13 585 l 1,1,-1
 129 585 l 1,2,-1
 207 78 l 1,3,-1
 212 78 l 1,4,-1
 298 506 l 1,5,-1
 449 506 l 1,6,-1
 535 78 l 1,7,-1
 541 78 l 1,8,-1
 617 585 l 1,9,-1
 734 585 l 1,10,-1
 617 0 l 1,11,-1
 461 0 l 1,12,-1
 376 430 l 1,13,-1
 370 430 l 1,14,-1
 285 0 l 1,15,-1
 130 0 l 1,0,-1
EndSplineSet
EndChar

StartChar: x
Encoding: 120 120 91
Width: 528
GlyphClass: 2
Flags: W
LayerCount: 2
Fore
SplineSet
9 0 m 1,0,-1
 191 306 l 1,1,-1
 15 585 l 1,2,-1
 143 585 l 1,3,-1
 258 370 l 1,4,-1
 264 370 l 1,5,-1
 377 585 l 1,6,-1
 505 585 l 1,7,-1
 329 305 l 1,8,-1
 511 0 l 1,9,-1
 379 0 l 1,10,-1
 262 236 l 1,11,-1
 256 236 l 1,12,-1
 141 0 l 1,13,-1
 9 0 l 1,0,-1
EndSplineSet
EndChar

StartChar: y
Encoding: 121 121 92
Width: 499
GlyphClass: 2
Flags: W
LayerCount: 2
Fore
SplineSet
117 -166 m 1,0,-1
 199 54 l 1,1,-1
 -5 585 l 1,2,-1
 124 585 l 1,3,-1
 248 173 l 1,4,-1
 253 173 l 1,5,-1
 375 585 l 1,6,-1
 497 585 l 1,7,-1
 292 34 l 1,8,-1
 237 -166 l 1,9,-1
 117 -166 l 1,0,-1
EndSplineSet
EndChar

StartChar: z
Encoding: 122 122 93
Width: 488
GlyphClass: 2
Flags: W
LayerCount: 2
Fore
SplineSet
26 0 m 1,0,-1
 26 84 l 1,1,-1
 319 489 l 1,2,-1
 319 495 l 1,3,-1
 39 488 l 1,4,-1
 39 585 l 1,5,-1
 454 585 l 1,6,-1
 454 501 l 1,7,-1
 162 95 l 1,8,-1
 162 89 l 1,9,-1
 460 96 l 1,10,-1
 460 0 l 1,11,-1
 26 0 l 1,0,-1
EndSplineSet
EndChar

StartChar: braceleft
Encoding: 123 123 94
Width: 443
GlyphClass: 2
Flags: W
LayerCount: 2
Fore
SplineSet
171 70 m 2,0,-1
 171 190 l 2,1,2
 171 249 171 249 148.5 267 c 128,-1,3
 126 285 126 285 48 297 c 1,4,-1
 48 384 l 1,5,6
 124 395 124 395 147.5 414 c 128,-1,7
 171 433 171 433 171 491 c 2,8,-1
 171 588 l 2,9,10
 171 683 171 683 213 734.5 c 128,-1,11
 255 786 255 786 351 786 c 1,12,-1
 416 783 l 1,13,-1
 411 698 l 1,14,15
 358 701 358 701 333.5 701 c 128,-1,16
 309 701 309 701 297.5 679.5 c 128,-1,17
 286 658 286 658 286 586 c 2,18,-1
 286 490 l 2,19,20
 286 413 286 413 251 378 c 0,21,22
 224 351 224 351 196 343 c 1,23,-1
 196 337 l 1,24,25
 286 304 286 304 286 187 c 2,26,-1
 286 81 l 2,27,28
 286 12 286 12 296 -12.5 c 128,-1,29
 306 -37 306 -37 336 -37 c 1,30,-1
 411 -34 l 1,31,-1
 416 -121 l 1,32,33
 373 -123 373 -123 351 -123 c 0,34,35
 171 -123 171 -123 171 70 c 2,0,-1
EndSplineSet
EndChar

StartChar: bar
Encoding: 124 124 95
Width: 284
GlyphClass: 2
Flags: W
LayerCount: 2
Fore
SplineSet
95 -87 m 1,0,-1
 95 762 l 1,1,-1
 189 762 l 1,2,-1
 189 -87 l 1,3,-1
 95 -87 l 1,0,-1
EndSplineSet
EndChar

StartChar: braceright
Encoding: 125 125 96
Width: 443
GlyphClass: 2
Flags: W
LayerCount: 2
Fore
SplineSet
31 -34 m 1,0,1
 65 -37 65 -37 100.5 -37 c 128,-1,2
 136 -37 136 -37 146 -12.5 c 128,-1,3
 156 12 156 12 156 81 c 2,4,-1
 156 187 l 2,5,6
 156 304 156 304 246 337 c 1,7,-1
 246 343 l 1,8,9
 218 351 218 351 196 372 c 1,10,11
 156 413 156 413 156 490 c 2,12,-1
 156 586 l 2,13,14
 156 658 156 658 144.5 679.5 c 128,-1,15
 133 701 133 701 102 701 c 1,16,-1
 31 698 l 1,17,-1
 26 783 l 1,18,19
 69 786 69 786 91 786 c 0,20,21
 187 786 187 786 229 734.5 c 128,-1,22
 271 683 271 683 271 588 c 2,23,-1
 271 491 l 2,24,25
 271 433 271 433 294.5 414 c 128,-1,26
 318 395 318 395 394 384 c 1,27,-1
 394 297 l 1,28,29
 316 285 316 285 293.5 267 c 128,-1,30
 271 249 271 249 271 190 c 2,31,-1
 271 70 l 2,32,33
 271 -123 271 -123 91 -123 c 1,34,-1
 26 -121 l 1,35,-1
 31 -34 l 1,0,1
EndSplineSet
EndChar

StartChar: asciitilde
Encoding: 126 126 97
Width: 536
GlyphClass: 2
Flags: W
LayerCount: 2
Fore
SplineSet
142 372 m 0,0,1
 181 372 181 372 273 338 c 128,-1,2
 365 304 365 304 395.5 304 c 128,-1,3
 426 304 426 304 475 332 c 1,4,-1
 510 271 l 1,5,6
 493 246 493 246 461.5 225 c 128,-1,7
 430 204 430 204 395.5 204 c 128,-1,8
 361 204 361 204 265.5 238 c 128,-1,9
 170 272 170 272 137.5 272 c 128,-1,10
 105 272 105 272 56 238 c 1,11,-1
 19 300 l 1,12,13
 85 372 85 372 142 372 c 0,0,1
EndSplineSet
EndChar

StartChar: exclamdown
Encoding: 161 161 98
Width: 283
GlyphClass: 2
Flags: W
LayerCount: 2
Fore
SplineSet
80 -113 m 1,0,-1
 95 389 l 1,1,-1
 191 389 l 1,2,-1
 206 -113 l 1,3,-1
 80 -113 l 1,0,-1
74 475 m 1,4,-1
 74 585 l 1,5,-1
 212 585 l 1,6,-1
 212 475 l 1,7,-1
 74 475 l 1,4,-1
EndSplineSet
EndChar

StartChar: cent
Encoding: 162 162 99
Width: 534
GlyphClass: 2
Flags: W
LayerCount: 2
Fore
SplineSet
263 -117 m 1,0,-1
 263 -9 l 1,1,2
 62 19 62 19 62 288.5 c 128,-1,3
 62 558 62 558 263 592 c 1,4,-1
 263 694 l 1,5,-1
 359 694 l 1,6,-1
 359 597 l 1,7,8
 419 595 419 595 486 579 c 1,9,-1
 473 488 l 1,10,11
 364 502 364 502 315 502 c 0,12,13
 235 502 235 502 208.5 458.5 c 128,-1,14
 182 415 182 415 182 277 c 128,-1,15
 182 139 182 139 239 97 c 0,16,17
 260 82 260 82 293.5 82 c 128,-1,18
 327 82 327 82 370 94 c 128,-1,19
 413 106 413 106 467 129 c 1,20,-1
 501 44 l 1,21,22
 444 2 444 2 359 -9 c 1,23,-1
 359 -117 l 1,24,-1
 263 -117 l 1,0,-1
EndSplineSet
EndChar

StartChar: sterling
Encoding: 163 163 100
Width: 581
GlyphClass: 2
Flags: W
LayerCount: 2
Fore
SplineSet
64 0 m 1,0,-1
 64 100 l 1,1,-1
 154 100 l 1,2,-1
 154 337 l 1,3,-1
 64 337 l 1,4,-1
 64 424 l 1,5,-1
 155 424 l 1,6,7
 161 583 161 583 224.5 647.5 c 128,-1,8
 288 712 288 712 396 712 c 0,9,10
 462 712 462 712 534 692 c 1,11,-1
 522 598 l 1,12,13
 422 612 422 612 385 612 c 0,14,15
 318 612 318 612 296 577.5 c 128,-1,16
 274 543 274 543 271 424 c 1,17,-1
 454 424 l 1,18,-1
 454 337 l 1,19,-1
 270 337 l 1,20,-1
 270 101 l 1,21,-1
 519 103 l 1,22,-1
 519 0 l 1,23,-1
 64 0 l 1,0,-1
EndSplineSet
EndChar

StartChar: currency
Encoding: 164 164 101
Width: 656
GlyphClass: 2
Flags: W
LayerCount: 2
Fore
SplineSet
126 214 m 1,0,1
 88 273 88 273 88 349 c 128,-1,2
 88 425 88 425 127 487 c 1,3,-1
 69 546 l 1,4,-1
 135 613 l 1,5,-1
 195 553 l 1,6,7
 260 593 260 593 331.5 593 c 128,-1,8
 403 593 403 593 465 554 c 1,9,-1
 526 613 l 1,10,-1
 592 547 l 1,11,-1
 533 489 l 1,12,13
 575 428 575 428 575 350.5 c 128,-1,14
 575 273 575 273 535 212 c 1,15,-1
 594 154 l 1,16,-1
 527 88 l 1,17,-1
 468 146 l 1,18,19
 403 106 403 106 331 106 c 128,-1,20
 259 106 259 106 192 148 c 1,21,-1
 133 88 l 1,22,-1
 67 155 l 1,23,-1
 126 214 l 1,0,1
226 236.5 m 128,-1,25
 265 200 265 200 336 200 c 128,-1,26
 407 200 407 200 441.5 235 c 128,-1,27
 476 270 476 270 476 348 c 128,-1,28
 476 426 476 426 437.5 462.5 c 128,-1,29
 399 499 399 499 332 499 c 128,-1,30
 265 499 265 499 226 462.5 c 128,-1,31
 187 426 187 426 187 349.5 c 128,-1,24
 187 273 187 273 226 236.5 c 128,-1,25
EndSplineSet
EndChar

StartChar: yen
Encoding: 165 165 102
Width: 572
GlyphClass: 2
Flags: W
LayerCount: 2
Fore
SplineSet
49 277 m 1,0,-1
 49 358 l 1,1,-1
 181 356 l 1,2,-1
 17 699 l 1,3,-1
 144 699 l 1,4,-1
 282 358 l 1,5,-1
 288 358 l 1,6,-1
 424 699 l 1,7,-1
 551 699 l 1,8,-1
 387 356 l 1,9,-1
 519 358 l 1,10,-1
 519 277 l 1,11,-1
 49 277 l 1,0,-1
49 138 m 1,12,-1
 49 219 l 1,13,-1
 519 219 l 1,14,-1
 519 138 l 1,15,-1
 342 138 l 1,16,-1
 342 0 l 1,17,-1
 225 0 l 1,18,-1
 225 138 l 1,19,-1
 49 138 l 1,12,-1
EndSplineSet
EndChar

StartChar: brokenbar
Encoding: 166 166 103
Width: 284
GlyphClass: 2
Flags: W
LayerCount: 2
Fore
SplineSet
95 403 m 1,0,-1
 95 762 l 1,1,-1
 189 762 l 1,2,-1
 189 403 l 1,3,-1
 95 403 l 1,0,-1
95 -87 m 1,4,-1
 95 272 l 1,5,-1
 189 272 l 1,6,-1
 189 -87 l 1,7,-1
 95 -87 l 1,4,-1
EndSplineSet
EndChar

StartChar: section
Encoding: 167 167 104
Width: 554
GlyphClass: 2
Flags: W
LayerCount: 2
Fore
SplineSet
279 6 m 0,0,1
 323 6 323 6 339 18 c 0,2,3
 359 32 359 32 359 75 c 0,4,5
 359 114 359 114 313 135 c 0,6,7
 278 151 278 151 235 162.5 c 128,-1,8
 192 174 192 174 150.5 190 c 128,-1,9
 109 206 109 206 80.5 240 c 128,-1,10
 52 274 52 274 52 326 c 0,11,12
 52 401 52 401 115 448 c 1,13,14
 73 487 73 487 73 556 c 128,-1,15
 73 625 73 625 126 668 c 128,-1,16
 179 711 179 711 273 711 c 128,-1,17
 367 711 367 711 442 685 c 1,18,-1
 423 589 l 1,19,20
 339 614 339 614 259 614 c 0,21,22
 221 614 221 614 202.5 601.5 c 128,-1,23
 184 589 184 589 184 555.5 c 128,-1,24
 184 522 184 522 217 501 c 128,-1,25
 250 480 250 480 297 467.5 c 128,-1,26
 344 455 344 455 391 439.5 c 128,-1,27
 438 424 438 424 471 390 c 128,-1,28
 504 356 504 356 504 305 c 0,29,30
 504 236 504 236 439 181 c 1,31,32
 472 144 472 144 472 85 c 0,33,34
 472 1 472 1 412.5 -46 c 128,-1,35
 353 -93 353 -93 265 -93 c 0,36,37
 214 -93 214 -93 160 -79.5 c 128,-1,38
 106 -66 106 -66 78 -52 c 2,39,-1
 50 -39 l 1,40,-1
 81 57 l 1,41,42
 194 6 194 6 279 6 c 0,0,1
359 230 m 1,43,44
 393 264 393 264 393 290.5 c 128,-1,45
 393 317 393 317 370.5 331.5 c 128,-1,46
 348 346 348 346 315 356 c 128,-1,47
 282 366 282 366 258 374 c 0,48,49
 214 387 214 387 193 396 c 1,50,51
 163 368 163 368 163 330 c 0,52,53
 163 299 163 299 199 283 c 0,54,55
 221 273 221 273 276 256.5 c 128,-1,56
 331 240 331 240 359 230 c 1,43,44
EndSplineSet
EndChar

StartChar: dieresis
Encoding: 168 168 105
Width: 588
GlyphClass: 2
Flags: W
LayerCount: 2
Fore
SplineSet
127 677 m 1,0,-1
 127 770 l 1,1,-1
 251 770 l 1,2,-1
 251 677 l 1,3,-1
 127 677 l 1,0,-1
338 677 m 1,4,-1
 338 770 l 1,5,-1
 461 770 l 1,6,-1
 461 677 l 1,7,-1
 338 677 l 1,4,-1
EndSplineSet
EndChar

StartChar: copyright
Encoding: 169 169 106
Width: 839
GlyphClass: 2
Flags: W
LayerCount: 2
Fore
SplineSet
674 64 m 128,-1,1
 574 -37 574 -37 418.5 -37 c 128,-1,2
 263 -37 263 -37 163.5 64 c 128,-1,3
 64 165 64 165 64 320 c 128,-1,4
 64 475 64 475 166.5 577 c 128,-1,5
 269 679 269 679 421.5 679 c 128,-1,6
 574 679 574 679 674 578 c 128,-1,7
 774 477 774 477 774 321 c 128,-1,0
 774 165 774 165 674 64 c 128,-1,1
217.5 116.5 m 128,-1,9
 290 42 290 42 418.5 42 c 128,-1,10
 547 42 547 42 620 117 c 128,-1,11
 693 192 693 192 693 321 c 128,-1,12
 693 450 693 450 620 525 c 128,-1,13
 547 600 547 600 421 600 c 128,-1,14
 295 600 295 600 220 524.5 c 128,-1,15
 145 449 145 449 145 320 c 128,-1,8
 145 191 145 191 217.5 116.5 c 128,-1,9
551 141 m 1,16,17
 499 106 499 106 418.5 106 c 128,-1,18
 338 106 338 106 289.5 157 c 128,-1,19
 241 208 241 208 241 317 c 0,20,21
 241 450 241 450 298 497 c 0,22,23
 347 538 347 538 428 538 c 0,24,25
 450 538 450 538 485.5 532.5 c 128,-1,26
 521 527 521 527 535 521 c 1,27,-1
 525 442 l 1,28,29
 466 451 466 451 429.5 451 c 128,-1,30
 393 451 393 451 378 444 c 0,31,32
 346 428 346 428 346 317 c 0,33,34
 346 241 346 241 362.5 217.5 c 128,-1,35
 379 194 379 194 406 194 c 0,36,37
 462 194 462 194 529 219 c 1,38,-1
 551 141 l 1,16,17
EndSplineSet
EndChar

StartChar: ordfeminine
Encoding: 170 170 107
Width: 435
GlyphClass: 2
Flags: W
LayerCount: 2
Fore
SplineSet
283 336 m 1,0,1
 214 289 214 289 158 289 c 0,2,3
 42 289 42 289 42 424 c 0,4,5
 42 489 42 489 88 520 c 0,6,7
 123 544 123 544 204 548 c 0,8,9
 231 550 231 550 275 550 c 1,10,11
 275 599 275 599 263 613.5 c 128,-1,12
 251 628 251 628 216 628 c 0,13,14
 152 628 152 628 95 606 c 1,15,-1
 76 598 l 1,16,-1
 55 673 l 1,17,18
 144 707 144 707 218 707 c 0,19,20
 364 707 364 707 364 557 c 2,21,-1
 364 298 l 1,22,-1
 301 298 l 1,23,-1
 287 336 l 1,24,-1
 283 336 l 1,0,1
275 474 m 1,25,26
 250 476 250 476 206 476 c 128,-1,27
 162 476 162 476 147.5 464 c 128,-1,28
 133 452 133 452 133 422.5 c 128,-1,29
 133 393 133 393 144.5 381 c 128,-1,30
 156 369 156 369 178 369 c 0,31,32
 217 369 217 369 275 397 c 1,33,-1
 275 474 l 1,25,26
EndSplineSet
EndChar

StartChar: guillemotleft
Encoding: 171 171 108
Width: 521
GlyphClass: 2
Flags: W
LayerCount: 2
Fore
SplineSet
182 82 m 1,0,-1
 32 337 l 1,1,-1
 182 592 l 1,2,-1
 268 541 l 1,3,-1
 145 340 l 1,4,-1
 145 334 l 1,5,-1
 268 133 l 1,6,-1
 182 82 l 1,0,-1
405 83 m 1,7,-1
 256 337 l 1,8,-1
 405 590 l 1,9,-1
 490 539 l 1,10,-1
 369 340 l 1,11,-1
 369 334 l 1,12,-1
 490 135 l 1,13,-1
 405 83 l 1,7,-1
EndSplineSet
EndChar

StartChar: logicalnot
Encoding: 172 172 109
Width: 598
GlyphClass: 2
Flags: W
LayerCount: 2
Fore
SplineSet
20 243 m 1,0,-1
 20 343 l 1,1,-1
 561 343 l 1,2,-1
 561 118 l 1,3,-1
 459 118 l 1,4,-1
 459 243 l 1,5,-1
 20 243 l 1,0,-1
EndSplineSet
EndChar

StartChar: uni00AD
Encoding: 173 173 110
Width: 348
GlyphClass: 2
Flags: W
LayerCount: 2
Fore
SplineSet
54 259 m 1,0,-1
 54 358 l 1,1,-1
 296 358 l 1,2,-1
 296 259 l 1,3,-1
 54 259 l 1,0,-1
EndSplineSet
EndChar

StartChar: registered
Encoding: 174 174 111
Width: 839
GlyphClass: 2
Flags: W
LayerCount: 2
Fore
SplineSet
674 64 m 128,-1,1
 574 -37 574 -37 418.5 -37 c 128,-1,2
 263 -37 263 -37 163.5 64 c 128,-1,3
 64 165 64 165 64 320 c 128,-1,4
 64 475 64 475 166.5 577 c 128,-1,5
 269 679 269 679 421.5 679 c 128,-1,6
 574 679 574 679 674 578 c 128,-1,7
 774 477 774 477 774 321 c 128,-1,0
 774 165 774 165 674 64 c 128,-1,1
217.5 116.5 m 128,-1,9
 290 42 290 42 418.5 42 c 128,-1,10
 547 42 547 42 620 117 c 128,-1,11
 693 192 693 192 693 321 c 128,-1,12
 693 450 693 450 620 525 c 128,-1,13
 547 600 547 600 421 600 c 128,-1,14
 295 600 295 600 220 524.5 c 128,-1,15
 145 449 145 449 145 320 c 128,-1,8
 145 191 145 191 217.5 116.5 c 128,-1,9
414 261 m 1,16,-1
 361 262 l 1,17,-1
 361 119 l 1,18,-1
 269 119 l 1,19,-1
 272 310 l 1,20,-1
 270 523 l 1,21,22
 354 531 354 531 425 531 c 0,23,24
 576 531 576 531 576 399 c 0,25,26
 576 347 576 347 554.5 315 c 128,-1,27
 533 283 533 283 500 271 c 1,28,-1
 500 268 l 1,29,-1
 580 119 l 1,30,-1
 474 119 l 1,31,-1
 414 261 l 1,16,-1
427 453 m 1,32,-1
 362 449 l 1,33,-1
 361 342 l 1,34,35
 391 339 391 339 424 339 c 128,-1,36
 457 339 457 339 468 352.5 c 128,-1,37
 479 366 479 366 479 397.5 c 128,-1,38
 479 429 479 429 468 441 c 128,-1,39
 457 453 457 453 427 453 c 1,32,-1
EndSplineSet
EndChar

StartChar: macron
Encoding: 175 175 112
Width: 586
GlyphClass: 2
Flags: W
LayerCount: 2
Fore
SplineSet
137 680 m 1,0,-1
 137 757 l 1,1,-1
 455 757 l 1,2,-1
 455 680 l 1,3,-1
 137 680 l 1,0,-1
EndSplineSet
EndChar

StartChar: degree
Encoding: 176 176 113
Width: 354
GlyphClass: 2
Flags: W
LayerCount: 2
Fore
SplineSet
177 399 m 128,-1,1
 111 399 111 399 64.5 438.5 c 128,-1,2
 18 478 18 478 18 559 c 128,-1,3
 18 640 18 640 64 678.5 c 128,-1,4
 110 717 110 717 177 717 c 128,-1,5
 244 717 244 717 290 678.5 c 128,-1,6
 336 640 336 640 336 559 c 128,-1,7
 336 478 336 478 289.5 438.5 c 128,-1,0
 243 399 243 399 177 399 c 128,-1,1
177 488 m 128,-1,9
 244 488 244 488 244 558 c 128,-1,10
 244 628 244 628 177 628 c 128,-1,11
 110 628 110 628 110 558 c 128,-1,8
 110 488 110 488 177 488 c 128,-1,9
EndSplineSet
EndChar

StartChar: plusminus
Encoding: 177 177 114
Width: 580
GlyphClass: 2
Flags: W
LayerCount: 2
Fore
SplineSet
44 9 m 1,0,-1
 44 108 l 1,1,-1
 535 108 l 1,2,-1
 535 9 l 1,3,-1
 44 9 l 1,0,-1
44 327 m 1,4,-1
 44 425 l 1,5,-1
 239 425 l 1,6,-1
 239 577 l 1,7,-1
 340 577 l 1,8,-1
 340 425 l 1,9,-1
 535 425 l 1,10,-1
 535 327 l 1,11,-1
 340 327 l 1,12,-1
 340 169 l 1,13,-1
 239 169 l 1,14,-1
 239 327 l 1,15,-1
 44 327 l 1,4,-1
EndSplineSet
EndChar

StartChar: twosuperior
Encoding: 178 178 115
Width: 394
GlyphClass: 2
Flags: W
LayerCount: 2
Fore
SplineSet
59 298 m 1,0,-1
 59 361 l 1,1,2
 123 431 123 431 161 477 c 1,3,4
 234 562 234 562 234 594.5 c 128,-1,5
 234 627 234 627 202 627 c 0,6,7
 151 627 151 627 82 587 c 1,8,-1
 48 661 l 1,9,10
 71 677 71 677 113.5 692.5 c 128,-1,11
 156 708 156 708 204 708 c 128,-1,12
 252 708 252 708 287.5 678.5 c 128,-1,13
 323 649 323 649 323 600 c 0,14,15
 323 529 323 529 199 392 c 1,16,-1
 185 376 l 1,17,-1
 185 372 l 1,18,-1
 333 378 l 1,19,-1
 333 298 l 1,20,-1
 59 298 l 1,0,-1
EndSplineSet
EndChar

StartChar: threesuperior
Encoding: 179 179 116
Width: 373
GlyphClass: 2
Flags: W
LayerCount: 2
Fore
SplineSet
62 395 m 1,0,1
 133 370 133 370 168.5 370 c 128,-1,2
 204 370 204 370 213.5 381.5 c 128,-1,3
 223 393 223 393 223 421.5 c 128,-1,4
 223 450 223 450 207.5 461 c 128,-1,5
 192 472 192 472 154 472 c 2,6,-1
 102 472 l 1,7,-1
 102 542 l 1,8,9
 176 547 176 547 195 555 c 128,-1,10
 214 563 214 563 214 587 c 128,-1,11
 214 611 214 611 206 618 c 1,12,13
 197 628 197 628 147 628 c 1,14,15
 104 626 104 626 69 621 c 1,16,-1
 61 697 l 1,17,18
 123 708 123 708 168 708 c 0,19,20
 305 708 305 708 305 599 c 0,21,22
 305 547 305 547 267 524 c 0,23,24
 262 521 262 521 251 516 c 1,25,-1
 251 512 l 1,26,27
 317 494 317 494 317 418 c 0,28,29
 317 360 317 360 285.5 325 c 128,-1,30
 254 290 254 290 183 290 c 0,31,32
 150 290 150 290 114 298 c 128,-1,33
 78 306 78 306 40 321 c 1,34,-1
 62 395 l 1,0,1
EndSplineSet
EndChar

StartChar: acute
Encoding: 180 180 117
Width: 623
GlyphClass: 2
Flags: W
LayerCount: 2
Fore
SplineSet
189 652 m 1,0,-1
 167 720 l 1,1,-1
 429 813 l 1,2,-1
 461 721 l 1,3,-1
 189 652 l 1,0,-1
EndSplineSet
EndChar

StartChar: mu
Encoding: 181 181 118
AltUni2: 0003bc.ffffffff.0
Width: 620
GlyphClass: 2
Flags: W
LayerCount: 2
Fore
SplineSet
80 -166 m 1,0,-1
 80 585 l 1,1,-1
 196 585 l 1,2,-1
 196 233 l 2,3,4
 196 128 196 128 209 109 c 1,5,6
 225 90 225 90 261.5 90 c 128,-1,7
 298 90 298 90 342 106.5 c 128,-1,8
 386 123 386 123 410 138 c 1,9,-1
 410 585 l 1,10,-1
 526 585 l 1,11,-1
 526 0 l 1,12,-1
 451 0 l 1,13,-1
 437 58 l 1,14,-1
 431 58 l 1,15,16
 306 -13 306 -13 240 -13 c 0,17,18
 206 -13 206 -13 182 0 c 1,19,-1
 178 -4 l 1,20,-1
 188 -166 l 1,21,-1
 80 -166 l 1,0,-1
EndSplineSet
EndChar

StartChar: paragraph
Encoding: 182 182 119
Width: 697
GlyphClass: 2
Flags: W
LayerCount: 2
Fore
SplineSet
263 -164 m 1,0,-1
 263 184 l 1,1,2
 154 187 154 187 97.5 246 c 128,-1,3
 41 305 41 305 41 444 c 128,-1,4
 41 583 41 583 101.5 641 c 128,-1,5
 162 699 162 699 279 699 c 2,6,-1
 607 699 l 1,7,-1
 607 -164 l 1,8,-1
 491 -164 l 1,9,-1
 491 598 l 1,10,-1
 379 598 l 1,11,-1
 379 -164 l 1,12,-1
 263 -164 l 1,0,-1
EndSplineSet
EndChar

StartChar: periodcentered
Encoding: 183 183 120
Width: 328
GlyphClass: 2
Flags: W
LayerCount: 2
Fore
SplineSet
111 287 m 128,-1,1
 88 306 88 306 88 346 c 128,-1,2
 88 386 88 386 110.5 403.5 c 128,-1,3
 133 421 133 421 165 421 c 0,4,5
 242 421 242 421 242 345 c 0,6,7
 242 306 242 306 219.5 287 c 128,-1,8
 197 268 197 268 165.5 268 c 128,-1,0
 134 268 134 268 111 287 c 128,-1,1
EndSplineSet
EndChar

StartChar: cedilla
Encoding: 184 184 121
Width: 504
GlyphClass: 2
Flags: W
LayerCount: 2
Fore
SplineSet
191 -94 m 1,0,1
 236 -99 236 -99 261.5 -99 c 128,-1,2
 287 -99 287 -99 297.5 -93 c 128,-1,3
 308 -87 308 -87 308 -63.5 c 128,-1,4
 308 -40 308 -40 295 12 c 1,5,-1
 365 23 l 1,6,7
 385 -32 385 -32 385 -77 c 128,-1,8
 385 -122 385 -122 354 -150.5 c 128,-1,9
 323 -179 323 -179 271 -179 c 0,10,11
 240 -179 240 -179 191 -170 c 1,12,-1
 191 -94 l 1,0,1
EndSplineSet
EndChar

StartChar: onesuperior
Encoding: 185 185 122
Width: 392
GlyphClass: 2
Flags: W
LayerCount: 2
Fore
SplineSet
67 298 m 1,0,-1
 67 378 l 1,1,-1
 167 378 l 1,2,-1
 167 611 l 1,3,-1
 163 611 l 1,4,-1
 82 547 l 1,5,-1
 36 611 l 1,6,-1
 176 707 l 1,7,-1
 258 701 l 1,8,-1
 258 378 l 1,9,-1
 345 378 l 1,10,-1
 345 298 l 1,11,-1
 67 298 l 1,0,-1
EndSplineSet
EndChar

StartChar: ordmasculine
Encoding: 186 186 123
Width: 371
GlyphClass: 2
Flags: W
LayerCount: 2
Fore
SplineSet
317.5 342 m 128,-1,1
 279 289 279 289 186 289 c 128,-1,2
 93 289 93 289 54.5 342 c 128,-1,3
 16 395 16 395 16 498 c 128,-1,4
 16 601 16 601 54.5 654 c 128,-1,5
 93 707 93 707 186 707 c 128,-1,6
 279 707 279 707 317.5 654 c 128,-1,7
 356 601 356 601 356 498 c 128,-1,0
 356 395 356 395 317.5 342 c 128,-1,1
127 396 m 128,-1,9
 143 371 143 371 185.5 371 c 128,-1,10
 228 371 228 371 244.5 396 c 128,-1,11
 261 421 261 421 261 498.5 c 128,-1,12
 261 576 261 576 244.5 601 c 128,-1,13
 228 626 228 626 185.5 626 c 128,-1,14
 143 626 143 626 127 601 c 128,-1,15
 111 576 111 576 111 498.5 c 128,-1,8
 111 421 111 421 127 396 c 128,-1,9
EndSplineSet
EndChar

StartChar: guillemotright
Encoding: 187 187 124
Width: 521
GlyphClass: 2
Flags: W
LayerCount: 2
Fore
SplineSet
253 133 m 1,0,-1
 376 334 l 1,1,-1
 376 340 l 1,2,-1
 253 541 l 1,3,-1
 339 592 l 1,4,-1
 489 337 l 1,5,-1
 339 82 l 1,6,-1
 253 133 l 1,0,-1
31 135 m 1,7,-1
 153 334 l 1,8,-1
 153 340 l 1,9,-1
 31 539 l 1,10,-1
 117 590 l 1,11,-1
 266 337 l 1,12,-1
 117 83 l 1,13,-1
 31 135 l 1,7,-1
EndSplineSet
EndChar

StartChar: onequarter
Encoding: 188 188 125
Width: 953
GlyphClass: 2
Flags: W
LayerCount: 2
Fore
SplineSet
260 -9 m 1,0,-1
 466 393 l 1,1,-1
 623 733 l 1,2,-1
 728 733 l 1,3,-1
 538 347 l 1,4,-1
 367 -9 l 1,5,-1
 260 -9 l 1,0,-1
585 79 m 1,6,-1
 585 136 l 2,7,8
 585 145 585 145 587 151 c 2,9,-1
 686 418 l 1,10,-1
 767 409 l 1,11,-1
 673 155 l 1,12,-1
 773 158 l 1,13,-1
 785 305 l 1,14,-1
 859 305 l 1,15,-1
 859 158 l 1,16,-1
 899 159 l 1,17,-1
 899 79 l 1,18,-1
 859 79 l 1,19,-1
 859 0 l 1,20,-1
 771 0 l 1,21,-1
 772 79 l 1,22,-1
 585 79 l 1,6,-1
67 298 m 1,23,-1
 67 378 l 1,24,-1
 167 378 l 1,25,-1
 167 611 l 1,26,-1
 163 611 l 1,27,-1
 82 547 l 1,28,-1
 36 611 l 1,29,-1
 176 707 l 1,30,-1
 258 701 l 1,31,-1
 258 378 l 1,32,-1
 345 378 l 1,33,-1
 345 298 l 1,34,-1
 67 298 l 1,23,-1
EndSplineSet
EndChar

StartChar: onehalf
Encoding: 189 189 126
Width: 967
GlyphClass: 2
Flags: W
LayerCount: 2
Fore
SplineSet
261 -9 m 1,0,-1
 466 393 l 1,1,-1
 623 733 l 1,2,-1
 729 733 l 1,3,-1
 538 347 l 1,4,-1
 368 -9 l 1,5,-1
 261 -9 l 1,0,-1
67 298 m 1,6,-1
 67 378 l 1,7,-1
 167 378 l 1,8,-1
 167 611 l 1,9,-1
 163 611 l 1,10,-1
 82 547 l 1,11,-1
 36 611 l 1,12,-1
 176 707 l 1,13,-1
 258 701 l 1,14,-1
 258 378 l 1,15,-1
 345 378 l 1,16,-1
 345 298 l 1,17,-1
 67 298 l 1,6,-1
631 0 m 1,18,-1
 631 63 l 1,19,20
 695 133 695 133 733 179 c 1,21,22
 806 264 806 264 806 296.5 c 128,-1,23
 806 329 806 329 774 329 c 0,24,25
 723 329 723 329 654 289 c 1,26,-1
 620 363 l 1,27,28
 643 379 643 379 685.5 394.5 c 128,-1,29
 728 410 728 410 776 410 c 128,-1,30
 824 410 824 410 859.5 380.5 c 128,-1,31
 895 351 895 351 895 302 c 0,32,33
 895 231 895 231 771 94 c 1,34,-1
 757 78 l 1,35,-1
 757 74 l 1,36,-1
 905 80 l 1,37,-1
 905 0 l 1,38,-1
 631 0 l 1,18,-1
EndSplineSet
EndChar

StartChar: threequarters
Encoding: 190 190 127
Width: 905
GlyphClass: 2
Flags: W
LayerCount: 2
Fore
SplineSet
217 -9 m 1,0,-1
 423 393 l 1,1,-1
 580 733 l 1,2,-1
 685 733 l 1,3,-1
 495 347 l 1,4,-1
 324 -9 l 1,5,-1
 217 -9 l 1,0,-1
62 395 m 1,6,7
 132 370 132 370 167.5 370 c 128,-1,8
 203 370 203 370 212.5 381.5 c 128,-1,9
 222 393 222 393 222 421.5 c 128,-1,10
 222 450 222 450 206.5 461 c 128,-1,11
 191 472 191 472 153 472 c 2,12,-1
 101 472 l 1,13,-1
 101 542 l 1,14,15
 175 547 175 547 194 555 c 128,-1,16
 213 563 213 563 213 587 c 128,-1,17
 213 611 213 611 206 618 c 0,18,19
 196 628 196 628 146 628 c 1,20,21
 102 626 102 626 68 621 c 1,22,-1
 60 697 l 1,23,24
 122 708 122 708 167 708 c 0,25,26
 304 708 304 708 304 599 c 0,27,28
 304 545 304 545 266 522 c 0,29,30
 260 519 260 519 250 515 c 1,31,-1
 250 511 l 1,32,33
 316 493 316 493 316 418 c 0,34,35
 316 360 316 360 284.5 325 c 128,-1,36
 253 290 253 290 182 290 c 0,37,38
 120 290 120 290 58 314 c 1,39,-1
 39 321 l 1,40,-1
 62 395 l 1,6,7
537 79 m 1,41,-1
 537 136 l 2,42,43
 537 145 537 145 539 151 c 2,44,-1
 637 418 l 1,45,-1
 719 409 l 1,46,-1
 625 155 l 1,47,-1
 724 158 l 1,48,-1
 737 305 l 1,49,-1
 811 305 l 1,50,-1
 811 158 l 1,51,-1
 851 159 l 1,52,-1
 851 79 l 1,53,-1
 811 79 l 1,54,-1
 811 0 l 1,55,-1
 722 0 l 1,56,-1
 724 79 l 1,57,-1
 537 79 l 1,41,-1
EndSplineSet
EndChar

StartChar: questiondown
Encoding: 191 191 128
Width: 481
GlyphClass: 2
Flags: W
LayerCount: 2
Fore
SplineSet
419 27 m 1,0,1
 432 1 432 1 458 -64 c 1,2,3
 446 -71 446 -71 426 -81.5 c 128,-1,4
 406 -92 406 -92 348.5 -109 c 128,-1,5
 291 -126 291 -126 241 -126 c 0,6,7
 145 -126 145 -126 83.5 -73 c 128,-1,8
 22 -20 22 -20 22 63 c 0,9,10
 22 147 22 147 81 203 c 0,11,12
 109 230 109 230 144.5 255 c 128,-1,13
 180 280 180 280 195 293 c 128,-1,14
 210 306 210 306 223.5 331.5 c 128,-1,15
 237 357 237 357 239 389 c 1,16,-1
 342 389 l 1,17,18
 342 384 342 384 342 379 c 0,19,20
 342 327 342 327 323 286.5 c 128,-1,21
 304 246 304 246 274.5 222 c 128,-1,22
 245 198 245 198 215 177 c 0,23,24
 143 127 143 127 143 59 c 0,25,26
 143 11 143 11 175 -10 c 0,27,28
 193 -22 193 -22 231 -22 c 128,-1,29
 269 -22 269 -22 315.5 -10 c 128,-1,30
 362 2 362 2 419 27 c 1,0,1
221 476 m 1,31,-1
 221 585 l 1,32,-1
 359 585 l 1,33,-1
 359 476 l 1,34,-1
 221 476 l 1,31,-1
EndSplineSet
EndChar

StartChar: Agrave
Encoding: 192 192 129
Width: 542
GlyphClass: 2
Flags: W
LayerCount: 2
Fore
SplineSet
-3 0 m 1,0,-1
 196 699 l 1,1,-1
 338 699 l 1,2,-1
 536 0 l 1,3,-1
 415 0 l 1,4,-1
 371 172 l 1,5,-1
 163 172 l 1,6,-1
 118 0 l 1,7,-1
 -3 0 l 1,0,-1
185 270 m 1,8,-1
 349 270 l 1,9,-1
 270 596 l 1,10,-1
 264 596 l 1,11,-1
 185 270 l 1,8,-1
128 798 m 1,12,-1
 154 886 l 1,13,-1
 412 809 l 1,14,-1
 394 743 l 1,15,-1
 128 798 l 1,12,-1
EndSplineSet
EndChar

StartChar: Aacute
Encoding: 193 193 130
Width: 542
GlyphClass: 2
Flags: W
LayerCount: 2
Fore
SplineSet
-3 0 m 1,0,-1
 196 699 l 1,1,-1
 338 699 l 1,2,-1
 536 0 l 1,3,-1
 415 0 l 1,4,-1
 371 172 l 1,5,-1
 163 172 l 1,6,-1
 118 0 l 1,7,-1
 -3 0 l 1,0,-1
185 270 m 1,8,-1
 349 270 l 1,9,-1
 270 596 l 1,10,-1
 264 596 l 1,11,-1
 185 270 l 1,8,-1
157 742 m 1,12,-1
 138 808 l 1,13,-1
 394 887 l 1,14,-1
 422 798 l 1,15,-1
 157 742 l 1,12,-1
EndSplineSet
EndChar

StartChar: Acircumflex
Encoding: 194 194 131
Width: 542
GlyphClass: 2
Flags: W
LayerCount: 2
Fore
SplineSet
-3 0 m 1,0,-1
 196 699 l 1,1,-1
 338 699 l 1,2,-1
 536 0 l 1,3,-1
 415 0 l 1,4,-1
 371 172 l 1,5,-1
 163 172 l 1,6,-1
 118 0 l 1,7,-1
 -3 0 l 1,0,-1
185 270 m 1,8,-1
 349 270 l 1,9,-1
 270 596 l 1,10,-1
 264 596 l 1,11,-1
 185 270 l 1,8,-1
126 738 m 1,12,-1
 96 786 l 1,13,-1
 237 884 l 1,14,-1
 298 884 l 1,15,-1
 440 786 l 1,16,-1
 410 738 l 1,17,-1
 271 798 l 1,18,-1
 264 798 l 1,19,20
 256 794 256 794 126 738 c 1,12,-1
EndSplineSet
EndChar

StartChar: Atilde
Encoding: 195 195 132
Width: 542
GlyphClass: 2
Flags: W
LayerCount: 2
Fore
SplineSet
-3 0 m 1,0,-1
 196 699 l 1,1,-1
 338 699 l 1,2,-1
 536 0 l 1,3,-1
 415 0 l 1,4,-1
 371 172 l 1,5,-1
 163 172 l 1,6,-1
 118 0 l 1,7,-1
 -3 0 l 1,0,-1
185 270 m 1,8,-1
 349 270 l 1,9,-1
 270 596 l 1,10,-1
 264 596 l 1,11,-1
 185 270 l 1,8,-1
165 870 m 0,12,13
 194 870 194 870 275 847.5 c 128,-1,14
 356 825 356 825 363 825 c 0,15,16
 376 825 376 825 392 867 c 1,17,-1
 455 858 l 1,18,19
 454 746 454 746 373 746 c 0,20,21
 344 746 344 746 262.5 769.5 c 128,-1,22
 181 793 181 793 174 793 c 128,-1,23
 167 793 167 793 159.5 782.5 c 128,-1,24
 152 772 152 772 144 750 c 1,25,-1
 82 758 l 1,26,27
 82 870 82 870 165 870 c 0,12,13
EndSplineSet
EndChar

StartChar: Adieresis
Encoding: 196 196 133
Width: 542
GlyphClass: 2
Flags: W
LayerCount: 2
Fore
SplineSet
-3 0 m 1,0,-1
 196 699 l 1,1,-1
 338 699 l 1,2,-1
 536 0 l 1,3,-1
 415 0 l 1,4,-1
 371 172 l 1,5,-1
 163 172 l 1,6,-1
 118 0 l 1,7,-1
 -3 0 l 1,0,-1
185 270 m 1,8,-1
 349 270 l 1,9,-1
 270 596 l 1,10,-1
 264 596 l 1,11,-1
 185 270 l 1,8,-1
103 764 m 1,12,-1
 103 857 l 1,13,-1
 223 857 l 1,14,-1
 223 764 l 1,15,-1
 103 764 l 1,12,-1
316 764 m 1,16,-1
 316 857 l 1,17,-1
 436 857 l 1,18,-1
 436 764 l 1,19,-1
 316 764 l 1,16,-1
EndSplineSet
EndChar

StartChar: Aring
Encoding: 197 197 134
Width: 542
GlyphClass: 2
Flags: W
LayerCount: 2
Fore
SplineSet
-3 0 m 1,0,-1
 196 699 l 1,1,-1
 338 699 l 1,2,-1
 536 0 l 1,3,-1
 415 0 l 1,4,-1
 371 172 l 1,5,-1
 163 172 l 1,6,-1
 118 0 l 1,7,-1
 -3 0 l 1,0,-1
185 270 m 1,8,-1
 349 270 l 1,9,-1
 270 596 l 1,10,-1
 264 596 l 1,11,-1
 185 270 l 1,8,-1
201 747.5 m 128,-1,13
 174 768 174 768 174 815 c 128,-1,14
 174 862 174 862 201 882.5 c 128,-1,15
 228 903 228 903 268.5 903 c 128,-1,16
 309 903 309 903 335.5 882.5 c 128,-1,17
 362 862 362 862 362 815 c 128,-1,18
 362 768 362 768 335 747.5 c 128,-1,19
 308 727 308 727 268 727 c 128,-1,12
 228 727 228 727 201 747.5 c 128,-1,13
240.5 841.5 m 128,-1,21
 232 835 232 835 232 815 c 128,-1,22
 232 795 232 795 240.5 788 c 128,-1,23
 249 781 249 781 268.5 781 c 128,-1,24
 288 781 288 781 295.5 787.5 c 128,-1,25
 303 794 303 794 303 814.5 c 128,-1,26
 303 835 303 835 295.5 841.5 c 128,-1,27
 288 848 288 848 268.5 848 c 128,-1,20
 249 848 249 848 240.5 841.5 c 128,-1,21
EndSplineSet
EndChar

StartChar: AE
Encoding: 198 198 135
Width: 808
GlyphClass: 2
Flags: W
LayerCount: 2
Fore
SplineSet
747 699 m 1,0,-1
 747 596 l 1,1,-1
 485 599 l 1,2,-1
 481 404 l 1,3,-1
 723 404 l 1,4,-1
 723 305 l 1,5,-1
 481 305 l 1,6,-1
 485 100 l 1,7,-1
 747 102 l 1,8,-1
 747 0 l 1,9,-1
 370 0 l 1,10,-1
 370 171 l 1,11,-1
 187 171 l 1,12,-1
 114 0 l 1,13,-1
 -7 0 l 1,14,-1
 301 699 l 1,15,-1
 747 699 l 1,0,-1
370 270 m 1,16,-1
 370 592 l 1,17,-1
 352 592 l 1,18,-1
 217 270 l 1,19,-1
 370 270 l 1,16,-1
EndSplineSet
EndChar

StartChar: Ccedilla
Encoding: 199 199 136
Width: 604
GlyphClass: 2
Flags: W
LayerCount: 2
Fore
SplineSet
216 -94 m 1,0,1
 260 -99 260 -99 286 -99 c 128,-1,2
 312 -99 312 -99 322 -93 c 128,-1,3
 332 -87 332 -87 332 -64 c 128,-1,4
 332 -41 332 -41 325 -13 c 1,5,6
 64 -13 64 -13 64 342 c 0,7,8
 64 595 64 595 176 670 c 0,9,10
 212 694 212 694 251 703 c 128,-1,11
 290 712 290 712 366.5 712 c 128,-1,12
 443 712 443 712 525 692 c 1,13,-1
 512 594 l 1,14,15
 418 608 418 608 338.5 608 c 128,-1,16
 259 608 259 608 237 585 c 0,17,18
 188 534 188 534 188 339 c 0,19,20
 188 248 188 248 205 187.5 c 128,-1,21
 222 127 222 127 245.5 106.5 c 128,-1,22
 269 86 269 86 314.5 86 c 128,-1,23
 360 86 360 86 410 100 c 128,-1,24
 460 114 460 114 518 141 c 1,25,-1
 554 52 l 1,26,27
 492 10 492 10 399 -6 c 1,28,29
 409 -46 409 -46 409 -74 c 0,30,31
 409 -122 409 -122 378 -150.5 c 128,-1,32
 347 -179 347 -179 295 -179 c 0,33,34
 266 -179 266 -179 216 -170 c 1,35,-1
 216 -94 l 1,0,1
EndSplineSet
EndChar

StartChar: Egrave
Encoding: 200 200 137
Width: 535
GlyphClass: 2
Flags: W
LayerCount: 2
Fore
SplineSet
97 0 m 1,0,-1
 97 699 l 1,1,-1
 475 699 l 1,2,-1
 475 596 l 1,3,-1
 214 599 l 1,4,-1
 209 404 l 1,5,-1
 450 404 l 1,6,-1
 450 305 l 1,7,-1
 209 305 l 1,8,-1
 214 100 l 1,9,-1
 475 102 l 1,10,-1
 475 0 l 1,11,-1
 97 0 l 1,0,-1
136 798 m 1,12,-1
 162 886 l 1,13,-1
 421 809 l 1,14,-1
 402 743 l 1,15,-1
 136 798 l 1,12,-1
EndSplineSet
EndChar

StartChar: Eacute
Encoding: 201 201 138
Width: 535
GlyphClass: 2
Flags: W
LayerCount: 2
Fore
SplineSet
97 0 m 1,0,-1
 97 699 l 1,1,-1
 475 699 l 1,2,-1
 475 596 l 1,3,-1
 214 599 l 1,4,-1
 209 404 l 1,5,-1
 450 404 l 1,6,-1
 450 305 l 1,7,-1
 209 305 l 1,8,-1
 214 100 l 1,9,-1
 475 102 l 1,10,-1
 475 0 l 1,11,-1
 97 0 l 1,0,-1
166 742 m 1,12,-1
 147 808 l 1,13,-1
 403 887 l 1,14,-1
 431 798 l 1,15,-1
 166 742 l 1,12,-1
EndSplineSet
EndChar

StartChar: Ecircumflex
Encoding: 202 202 139
Width: 535
GlyphClass: 2
Flags: W
LayerCount: 2
Fore
SplineSet
97 0 m 1,0,-1
 97 699 l 1,1,-1
 475 699 l 1,2,-1
 475 596 l 1,3,-1
 214 599 l 1,4,-1
 209 404 l 1,5,-1
 450 404 l 1,6,-1
 450 305 l 1,7,-1
 209 305 l 1,8,-1
 214 100 l 1,9,-1
 475 102 l 1,10,-1
 475 0 l 1,11,-1
 97 0 l 1,0,-1
280 798 m 1,12,-1
 141 738 l 1,13,-1
 111 786 l 1,14,-1
 253 884 l 1,15,-1
 314 884 l 1,16,-1
 455 786 l 1,17,-1
 425 738 l 1,18,-1
 287 798 l 1,19,-1
 280 798 l 1,12,-1
EndSplineSet
EndChar

StartChar: Edieresis
Encoding: 203 203 140
Width: 535
GlyphClass: 2
Flags: W
LayerCount: 2
Fore
SplineSet
97 0 m 1,0,-1
 97 699 l 1,1,-1
 475 699 l 1,2,-1
 475 596 l 1,3,-1
 214 599 l 1,4,-1
 209 404 l 1,5,-1
 450 404 l 1,6,-1
 450 305 l 1,7,-1
 209 305 l 1,8,-1
 214 100 l 1,9,-1
 475 102 l 1,10,-1
 475 0 l 1,11,-1
 97 0 l 1,0,-1
122 764 m 1,12,-1
 122 857 l 1,13,-1
 243 857 l 1,14,-1
 243 764 l 1,15,-1
 122 764 l 1,12,-1
335 764 m 1,16,-1
 335 857 l 1,17,-1
 455 857 l 1,18,-1
 455 764 l 1,19,-1
 335 764 l 1,16,-1
EndSplineSet
EndChar

StartChar: Igrave
Encoding: 204 204 141
Width: 313
GlyphClass: 2
Flags: W
LayerCount: 2
Fore
SplineSet
-3 797 m 1,0,-1
 23 886 l 1,1,-1
 268 809 l 1,2,-1
 249 743 l 1,3,-1
 -3 797 l 1,0,-1
215 0 m 1,4,-1
 97 -1 l 1,5,-1
 101 321 l 1,6,-1
 97 699 l 1,7,-1
 215 699 l 1,8,-1
 211 389 l 1,9,-1
 215 0 l 1,4,-1
EndSplineSet
EndChar

StartChar: Iacute
Encoding: 205 205 142
Width: 313
GlyphClass: 2
Flags: W
LayerCount: 2
Fore
SplineSet
63 742 m 1,0,-1
 45 809 l 1,1,-1
 288 887 l 1,2,-1
 316 797 l 1,3,-1
 63 742 l 1,0,-1
215 0 m 1,4,-1
 97 -1 l 1,5,-1
 101 321 l 1,6,-1
 97 699 l 1,7,-1
 215 699 l 1,8,-1
 211 389 l 1,9,-1
 215 0 l 1,4,-1
EndSplineSet
EndChar

StartChar: Icircumflex
Encoding: 206 206 143
Width: 313
GlyphClass: 2
Flags: W
LayerCount: 2
Fore
SplineSet
25 741 m 1,0,-1
 -4 792 l 1,1,-1
 126 884 l 1,2,-1
 187 884 l 1,3,-1
 316 792 l 1,4,-1
 287 741 l 1,5,-1
 160 798 l 1,6,-1
 153 798 l 1,7,-1
 25 741 l 1,0,-1
215 0 m 1,8,-1
 97 -1 l 1,9,-1
 101 321 l 1,10,-1
 97 699 l 1,11,-1
 215 699 l 1,12,-1
 211 389 l 1,13,-1
 215 0 l 1,8,-1
EndSplineSet
EndChar

StartChar: Idieresis
Encoding: 207 207 144
Width: 313
GlyphClass: 2
Flags: W
LayerCount: 2
Fore
SplineSet
3 764 m 1,0,-1
 3 857 l 1,1,-1
 122 857 l 1,2,-1
 122 764 l 1,3,-1
 3 764 l 1,0,-1
191 764 m 1,4,-1
 191 857 l 1,5,-1
 310 857 l 1,6,-1
 310 764 l 1,7,-1
 191 764 l 1,4,-1
215 0 m 1,8,-1
 97 -1 l 1,9,-1
 101 321 l 1,10,-1
 97 699 l 1,11,-1
 215 699 l 1,12,-1
 211 389 l 1,13,-1
 215 0 l 1,8,-1
EndSplineSet
EndChar

StartChar: Eth
Encoding: 208 208 145
Width: 667
GlyphClass: 2
Flags: W
LayerCount: 2
Fore
SplineSet
110 311 m 1,0,-1
 44 311 l 1,1,-1
 44 402 l 1,2,-1
 110 402 l 1,3,-1
 110 699 l 1,4,5
 259 712 259 712 330 712 c 128,-1,6
 401 712 401 712 449 692.5 c 128,-1,7
 497 673 497 673 526 641.5 c 128,-1,8
 555 610 555 610 572 563 c 0,9,10
 603 481 603 481 603 358 c 0,11,12
 603 -13 603 -13 326 -13 c 0,13,14
 279 -13 279 -13 110 0 c 1,15,-1
 110 311 l 1,0,-1
226 311 m 1,16,-1
 226 95 l 1,17,18
 280 88 280 88 323 88 c 0,19,20
 400 88 400 88 425 111 c 0,21,22
 476 160 476 160 476 357 c 128,-1,23
 476 554 476 554 427 592 c 1,24,25
 406 611 406 611 339 611 c 1,26,-1
 226 604 l 1,27,-1
 226 402 l 1,28,-1
 340 402 l 1,29,-1
 340 311 l 1,30,-1
 226 311 l 1,16,-1
EndSplineSet
EndChar

StartChar: Ntilde
Encoding: 209 209 146
Width: 699
GlyphClass: 2
Flags: W
LayerCount: 2
Fore
SplineSet
97 0 m 1,0,-1
 97 699 l 1,1,-1
 250 699 l 1,2,-1
 501 135 l 1,3,-1
 506 135 l 1,4,-1
 492 699 l 1,5,-1
 603 699 l 1,6,-1
 603 0 l 1,7,-1
 450 0 l 1,8,-1
 200 563 l 1,9,-1
 195 563 l 1,10,-1
 208 0 l 1,11,-1
 97 0 l 1,0,-1
250 870 m 0,12,13
 279 870 279 870 359.5 847.5 c 128,-1,14
 440 825 440 825 447 825 c 0,15,16
 460 825 460 825 476 867 c 1,17,-1
 539 858 l 1,18,19
 538 746 538 746 457 746 c 0,20,21
 428 746 428 746 346.5 769.5 c 128,-1,22
 265 793 265 793 258.5 793 c 128,-1,23
 252 793 252 793 244.5 782.5 c 128,-1,24
 237 772 237 772 229 750 c 1,25,-1
 166 758 l 1,26,27
 167 870 167 870 250 870 c 0,12,13
EndSplineSet
EndChar

StartChar: Ograve
Encoding: 210 210 147
Width: 681
GlyphClass: 2
Flags: W
LayerCount: 2
Fore
SplineSet
340 -13 m 0,0,1
 292 -13 292 -13 253 -3.5 c 128,-1,2
 214 6 214 6 178 30.5 c 128,-1,3
 142 55 142 55 118 95 c 0,4,5
 64 182 64 182 64 351 c 0,6,7
 64 564 64 564 146 642 c 0,8,9
 186 680 186 680 232.5 696 c 128,-1,10
 279 712 279 712 340 712 c 128,-1,11
 401 712 401 712 447.5 696 c 128,-1,12
 494 680 494 680 534 642 c 0,13,14
 616 564 616 564 616 351 c 0,15,16
 616 108 616 108 502 30 c 0,17,18
 438 -13 438 -13 340 -13 c 0,0,1
283.5 96.5 m 128,-1,20
 306 91 306 91 352 91 c 128,-1,21
 398 91 398 91 428 108 c 0,22,23
 494 145 494 145 494 348 c 0,24,25
 494 432 494 432 486 483 c 128,-1,26
 478 534 478 534 457.5 562 c 128,-1,27
 437 590 437 590 410.5 599 c 128,-1,28
 384 608 384 608 340 608 c 128,-1,29
 296 608 296 608 270 599 c 128,-1,30
 244 590 244 590 223.5 562 c 128,-1,31
 203 534 203 534 195 483 c 128,-1,32
 187 432 187 432 187 356.5 c 128,-1,33
 187 281 187 281 193 235 c 128,-1,34
 199 189 199 189 210 160.5 c 128,-1,35
 221 132 221 132 241 117 c 128,-1,19
 261 102 261 102 283.5 96.5 c 128,-1,20
208 798 m 1,36,-1
 234 886 l 1,37,-1
 493 809 l 1,38,-1
 474 743 l 1,39,-1
 208 798 l 1,36,-1
EndSplineSet
EndChar

StartChar: Oacute
Encoding: 211 211 148
Width: 681
GlyphClass: 2
Flags: W
LayerCount: 2
Fore
SplineSet
340 -13 m 0,0,1
 292 -13 292 -13 253 -3.5 c 128,-1,2
 214 6 214 6 178 30.5 c 128,-1,3
 142 55 142 55 118 95 c 0,4,5
 64 182 64 182 64 351 c 0,6,7
 64 564 64 564 146 642 c 0,8,9
 186 680 186 680 232.5 696 c 128,-1,10
 279 712 279 712 340 712 c 128,-1,11
 401 712 401 712 447.5 696 c 128,-1,12
 494 680 494 680 534 642 c 0,13,14
 616 564 616 564 616 351 c 0,15,16
 616 108 616 108 502 30 c 0,17,18
 438 -13 438 -13 340 -13 c 0,0,1
283.5 96.5 m 128,-1,20
 306 91 306 91 352 91 c 128,-1,21
 398 91 398 91 428 108 c 0,22,23
 494 145 494 145 494 348 c 0,24,25
 494 432 494 432 486 483 c 128,-1,26
 478 534 478 534 457.5 562 c 128,-1,27
 437 590 437 590 410.5 599 c 128,-1,28
 384 608 384 608 340 608 c 128,-1,29
 296 608 296 608 270 599 c 128,-1,30
 244 590 244 590 223.5 562 c 128,-1,31
 203 534 203 534 195 483 c 128,-1,32
 187 432 187 432 187 356.5 c 128,-1,33
 187 281 187 281 193 235 c 128,-1,34
 199 189 199 189 210 160.5 c 128,-1,35
 221 132 221 132 241 117 c 128,-1,19
 261 102 261 102 283.5 96.5 c 128,-1,20
237 742 m 1,36,-1
 218 808 l 1,37,-1
 474 887 l 1,38,-1
 502 798 l 1,39,-1
 237 742 l 1,36,-1
EndSplineSet
EndChar

StartChar: Ocircumflex
Encoding: 212 212 149
Width: 681
GlyphClass: 2
Flags: W
LayerCount: 2
Fore
SplineSet
340 -13 m 0,0,1
 292 -13 292 -13 253 -3.5 c 128,-1,2
 214 6 214 6 178 30.5 c 128,-1,3
 142 55 142 55 118 95 c 0,4,5
 64 182 64 182 64 351 c 0,6,7
 64 564 64 564 146 642 c 0,8,9
 186 680 186 680 232.5 696 c 128,-1,10
 279 712 279 712 340 712 c 128,-1,11
 401 712 401 712 447.5 696 c 128,-1,12
 494 680 494 680 534 642 c 0,13,14
 616 564 616 564 616 351 c 0,15,16
 616 108 616 108 502 30 c 0,17,18
 438 -13 438 -13 340 -13 c 0,0,1
283.5 96.5 m 128,-1,20
 306 91 306 91 352 91 c 128,-1,21
 398 91 398 91 428 108 c 0,22,23
 494 145 494 145 494 348 c 0,24,25
 494 432 494 432 486 483 c 128,-1,26
 478 534 478 534 457.5 562 c 128,-1,27
 437 590 437 590 410.5 599 c 128,-1,28
 384 608 384 608 340 608 c 128,-1,29
 296 608 296 608 270 599 c 128,-1,30
 244 590 244 590 223.5 562 c 128,-1,31
 203 534 203 534 195 483 c 128,-1,32
 187 432 187 432 187 356.5 c 128,-1,33
 187 281 187 281 193 235 c 128,-1,34
 199 189 199 189 210 160.5 c 128,-1,35
 221 132 221 132 241 117 c 128,-1,19
 261 102 261 102 283.5 96.5 c 128,-1,20
202 738 m 1,36,-1
 171 786 l 1,37,-1
 313 884 l 1,38,-1
 374 884 l 1,39,-1
 516 786 l 1,40,-1
 486 738 l 1,41,-1
 347 798 l 1,42,-1
 340 798 l 1,43,-1
 202 738 l 1,36,-1
EndSplineSet
EndChar

StartChar: Otilde
Encoding: 213 213 150
Width: 681
GlyphClass: 2
Flags: W
LayerCount: 2
Fore
SplineSet
340 -13 m 0,0,1
 292 -13 292 -13 253 -3.5 c 128,-1,2
 214 6 214 6 178 30.5 c 128,-1,3
 142 55 142 55 118 95 c 0,4,5
 64 182 64 182 64 351 c 0,6,7
 64 564 64 564 146 642 c 0,8,9
 186 680 186 680 232.5 696 c 128,-1,10
 279 712 279 712 340 712 c 128,-1,11
 401 712 401 712 447.5 696 c 128,-1,12
 494 680 494 680 534 642 c 0,13,14
 616 564 616 564 616 351 c 0,15,16
 616 108 616 108 502 30 c 0,17,18
 438 -13 438 -13 340 -13 c 0,0,1
283.5 96.5 m 128,-1,20
 306 91 306 91 352 91 c 128,-1,21
 398 91 398 91 428 108 c 0,22,23
 494 145 494 145 494 348 c 0,24,25
 494 432 494 432 486 483 c 128,-1,26
 478 534 478 534 457.5 562 c 128,-1,27
 437 590 437 590 410.5 599 c 128,-1,28
 384 608 384 608 340 608 c 128,-1,29
 296 608 296 608 270 599 c 128,-1,30
 244 590 244 590 223.5 562 c 128,-1,31
 203 534 203 534 195 483 c 128,-1,32
 187 432 187 432 187 356.5 c 128,-1,33
 187 281 187 281 193 235 c 128,-1,34
 199 189 199 189 210 160.5 c 128,-1,35
 221 132 221 132 241 117 c 128,-1,19
 261 102 261 102 283.5 96.5 c 128,-1,20
238 870 m 0,36,37
 268 870 268 870 348 847.5 c 128,-1,38
 428 825 428 825 436 825 c 0,39,40
 449 825 449 825 465 867 c 1,41,-1
 528 858 l 1,42,43
 527 746 527 746 446 746 c 0,44,45
 417 746 417 746 335.5 769.5 c 128,-1,46
 254 793 254 793 247 793 c 128,-1,47
 240 793 240 793 232.5 782.5 c 128,-1,48
 225 772 225 772 217 750 c 1,49,-1
 154 758 l 1,50,51
 155 870 155 870 238 870 c 0,36,37
EndSplineSet
EndChar

StartChar: Odieresis
Encoding: 214 214 151
Width: 681
GlyphClass: 2
Flags: W
LayerCount: 2
Fore
SplineSet
340 -13 m 0,0,1
 292 -13 292 -13 253 -3.5 c 128,-1,2
 214 6 214 6 178 30.5 c 128,-1,3
 142 55 142 55 118 95 c 0,4,5
 64 182 64 182 64 351 c 0,6,7
 64 564 64 564 146 642 c 0,8,9
 186 680 186 680 232.5 696 c 128,-1,10
 279 712 279 712 340 712 c 128,-1,11
 401 712 401 712 447.5 696 c 128,-1,12
 494 680 494 680 534 642 c 0,13,14
 616 564 616 564 616 351 c 0,15,16
 616 108 616 108 502 30 c 0,17,18
 438 -13 438 -13 340 -13 c 0,0,1
283.5 96.5 m 128,-1,20
 306 91 306 91 352 91 c 128,-1,21
 398 91 398 91 428 108 c 0,22,23
 494 145 494 145 494 348 c 0,24,25
 494 432 494 432 486 483 c 128,-1,26
 478 534 478 534 457.5 562 c 128,-1,27
 437 590 437 590 410.5 599 c 128,-1,28
 384 608 384 608 340 608 c 128,-1,29
 296 608 296 608 270 599 c 128,-1,30
 244 590 244 590 223.5 562 c 128,-1,31
 203 534 203 534 195 483 c 128,-1,32
 187 432 187 432 187 356.5 c 128,-1,33
 187 281 187 281 193 235 c 128,-1,34
 199 189 199 189 210 160.5 c 128,-1,35
 221 132 221 132 241 117 c 128,-1,19
 261 102 261 102 283.5 96.5 c 128,-1,20
176 764 m 1,36,-1
 176 857 l 1,37,-1
 297 857 l 1,38,-1
 297 764 l 1,39,-1
 176 764 l 1,36,-1
389 764 m 1,40,-1
 389 857 l 1,41,-1
 509 857 l 1,42,-1
 509 764 l 1,43,-1
 389 764 l 1,40,-1
EndSplineSet
EndChar

StartChar: multiply
Encoding: 215 215 152
Width: 587
GlyphClass: 2
Flags: W
LayerCount: 2
Fore
SplineSet
117 48 m 1,0,-1
 47 119 l 1,1,-1
 223 295 l 1,2,-1
 48 470 l 1,3,-1
 117 540 l 1,4,-1
 292 364 l 1,5,-1
 470 542 l 1,6,-1
 540 471 l 1,7,-1
 363 294 l 1,8,-1
 538 119 l 1,9,-1
 469 49 l 1,10,-1
 294 224 l 1,11,-1
 117 48 l 1,0,-1
EndSplineSet
EndChar

StartChar: Oslash
Encoding: 216 216 153
Width: 681
GlyphClass: 2
Flags: W
LayerCount: 2
Fore
SplineSet
146 642 m 0,0,1
 186 680 186 680 232.5 696 c 128,-1,2
 279 712 279 712 341.5 712 c 128,-1,3
 404 712 404 712 454 692 c 1,4,-1
 470 729 l 1,5,-1
 566 729 l 1,6,-1
 527 647 l 1,7,8
 616 563 616 563 616 351 c 0,9,10
 616 108 616 108 502 30 c 0,11,12
 438 -13 438 -13 340 -13 c 0,13,14
 275 -13 275 -13 228 5 c 1,15,-1
 208 -39 l 1,16,-1
 111 -39 l 1,17,-1
 154 49 l 1,18,19
 64 136 64 136 64 350 c 128,-1,20
 64 564 64 564 146 642 c 0,0,1
271 100 m 1,21,22
 301 91 301 91 349.5 91 c 128,-1,23
 398 91 398 91 428 108 c 0,24,25
 494 145 494 145 494 348 c 0,26,27
 494 476 494 476 472 532 c 1,28,-1
 375 328 l 1,29,-1
 271 100 l 1,21,22
411 597 m 1,30,31
 385 608 385 608 333.5 608 c 128,-1,32
 282 608 282 608 252 590 c 0,33,34
 187 553 187 553 187 348 c 0,35,36
 187 222 187 222 210 165 c 1,37,-1
 289 327 l 1,38,-1
 411 597 l 1,30,31
EndSplineSet
EndChar

StartChar: Ugrave
Encoding: 217 217 154
Width: 684
GlyphClass: 2
Flags: W
LayerCount: 2
Fore
SplineSet
97 305 m 2,0,-1
 97 699 l 1,1,-1
 214 699 l 1,2,-1
 214 332 l 2,3,4
 214 223 214 223 225.5 172.5 c 128,-1,5
 237 122 237 122 262 106 c 128,-1,6
 287 90 287 90 342.5 90.5 c 128,-1,7
 398 91 398 91 422.5 106.5 c 128,-1,8
 447 122 447 122 458.5 172 c 128,-1,9
 470 222 470 222 470 332 c 2,10,-1
 470 699 l 1,11,-1
 587 699 l 1,12,-1
 587 314 l 2,13,14
 587 124 587 124 523 54 c 0,15,16
 490 17 490 17 447 2 c 128,-1,17
 404 -13 404 -13 342 -13 c 0,18,19
 218 -13 218 -13 157.5 57 c 128,-1,20
 97 127 97 127 97 305 c 2,0,-1
185 798 m 1,21,-1
 211 886 l 1,22,-1
 470 809 l 1,23,-1
 451 743 l 1,24,-1
 185 798 l 1,21,-1
EndSplineSet
EndChar

StartChar: Uacute
Encoding: 218 218 155
Width: 684
GlyphClass: 2
Flags: W
LayerCount: 2
Fore
SplineSet
97 305 m 2,0,-1
 97 699 l 1,1,-1
 214 699 l 1,2,-1
 214 332 l 2,3,4
 214 223 214 223 225.5 172.5 c 128,-1,5
 237 122 237 122 262 106 c 128,-1,6
 287 90 287 90 342.5 90.5 c 128,-1,7
 398 91 398 91 422.5 106.5 c 128,-1,8
 447 122 447 122 458.5 172 c 128,-1,9
 470 222 470 222 470 332 c 2,10,-1
 470 699 l 1,11,-1
 587 699 l 1,12,-1
 587 314 l 2,13,14
 587 124 587 124 523 54 c 0,15,16
 490 17 490 17 447 2 c 128,-1,17
 404 -13 404 -13 342 -13 c 0,18,19
 218 -13 218 -13 157.5 57 c 128,-1,20
 97 127 97 127 97 305 c 2,0,-1
235 742 m 1,21,-1
 217 808 l 1,22,-1
 473 887 l 1,23,-1
 501 798 l 1,24,-1
 235 742 l 1,21,-1
EndSplineSet
EndChar

StartChar: Ucircumflex
Encoding: 219 219 156
Width: 684
GlyphClass: 2
Flags: W
LayerCount: 2
Fore
SplineSet
97 305 m 2,0,-1
 97 699 l 1,1,-1
 214 699 l 1,2,-1
 214 332 l 2,3,4
 214 223 214 223 225.5 172.5 c 128,-1,5
 237 122 237 122 262 106 c 128,-1,6
 287 90 287 90 342.5 90.5 c 128,-1,7
 398 91 398 91 422.5 106.5 c 128,-1,8
 447 122 447 122 458.5 172 c 128,-1,9
 470 222 470 222 470 332 c 2,10,-1
 470 699 l 1,11,-1
 587 699 l 1,12,-1
 587 314 l 2,13,14
 587 124 587 124 523 54 c 0,15,16
 490 17 490 17 447 2 c 128,-1,17
 404 -13 404 -13 342 -13 c 0,18,19
 218 -13 218 -13 157.5 57 c 128,-1,20
 97 127 97 127 97 305 c 2,0,-1
201 738 m 1,21,-1
 170 786 l 1,22,-1
 312 884 l 1,23,-1
 373 884 l 1,24,-1
 515 786 l 1,25,-1
 484 738 l 1,26,-1
 346 798 l 1,27,-1
 339 798 l 1,28,-1
 201 738 l 1,21,-1
EndSplineSet
EndChar

StartChar: Udieresis
Encoding: 220 220 157
Width: 684
GlyphClass: 2
Flags: W
LayerCount: 2
Fore
SplineSet
97 305 m 2,0,-1
 97 699 l 1,1,-1
 214 699 l 1,2,-1
 214 332 l 2,3,4
 214 223 214 223 225.5 172.5 c 128,-1,5
 237 122 237 122 262 106 c 128,-1,6
 287 90 287 90 342.5 90.5 c 128,-1,7
 398 91 398 91 422.5 106.5 c 128,-1,8
 447 122 447 122 458.5 172 c 128,-1,9
 470 222 470 222 470 332 c 2,10,-1
 470 699 l 1,11,-1
 587 699 l 1,12,-1
 587 314 l 2,13,14
 587 124 587 124 523 54 c 0,15,16
 490 17 490 17 447 2 c 128,-1,17
 404 -13 404 -13 342 -13 c 0,18,19
 218 -13 218 -13 157.5 57 c 128,-1,20
 97 127 97 127 97 305 c 2,0,-1
176 762 m 1,21,-1
 176 856 l 1,22,-1
 296 856 l 1,23,-1
 296 762 l 1,24,-1
 176 762 l 1,21,-1
389 762 m 1,25,-1
 389 856 l 1,26,-1
 509 856 l 1,27,-1
 509 762 l 1,28,-1
 389 762 l 1,25,-1
EndSplineSet
EndChar

StartChar: Yacute
Encoding: 221 221 158
Width: 547
GlyphClass: 2
Flags: W
LayerCount: 2
Fore
SplineSet
210 0 m 1,0,-1
 213 256 l 1,1,-1
 3 699 l 1,2,-1
 130 699 l 1,3,-1
 267 352 l 1,4,-1
 272 352 l 1,5,-1
 410 699 l 1,6,-1
 537 699 l 1,7,-1
 327 256 l 1,8,-1
 329 0 l 1,9,-1
 210 0 l 1,0,-1
168 742 m 1,10,-1
 150 808 l 1,11,-1
 406 887 l 1,12,-1
 434 798 l 1,13,-1
 168 742 l 1,10,-1
EndSplineSet
EndChar

StartChar: Thorn
Encoding: 222 222 159
Width: 616
GlyphClass: 2
Flags: W
LayerCount: 2
Fore
SplineSet
99 343 m 1,0,-1
 95 699 l 1,1,-1
 212 699 l 1,2,-1
 212 611 l 1,3,4
 298 617 298 617 348 617 c 0,5,6
 450 617 450 617 505 556.5 c 128,-1,7
 560 496 560 496 560 378 c 0,8,9
 560 235 560 235 486 178 c 0,10,11
 421 129 421 129 325 129 c 1,12,-1
 212 134 l 1,13,-1
 212 0 l 1,14,-1
 95 0 l 1,15,-1
 99 343 l 1,0,-1
211 238 m 1,16,17
 274 228 274 228 339.5 228 c 128,-1,18
 405 228 405 228 422 257 c 128,-1,19
 439 286 439 286 439 388 c 128,-1,20
 439 490 439 490 408 509 c 1,21,22
 390 524 390 524 327.5 524 c 128,-1,23
 265 524 265 524 211 516 c 1,24,-1
 211 238 l 1,16,17
EndSplineSet
EndChar

StartChar: germandbls
Encoding: 223 223 160
Width: 645
GlyphClass: 2
Flags: W
LayerCount: 2
Fore
SplineSet
97 0 m 1,0,-1
 97 474 l 2,1,2
 97 593 97 593 160 652.5 c 128,-1,3
 223 712 223 712 315.5 712 c 128,-1,4
 408 712 408 712 472.5 662.5 c 128,-1,5
 537 613 537 613 537 523 c 0,6,7
 537 460 537 460 509 423.5 c 128,-1,8
 481 387 481 387 447 375 c 1,9,-1
 447 369 l 1,10,11
 573 338 573 338 573 199 c 0,12,13
 573 96 573 96 514 41.5 c 128,-1,14
 455 -13 455 -13 363 -13 c 0,15,16
 327 -13 327 -13 283 -5 c 1,17,-1
 295 84 l 1,18,19
 319 80 319 80 362.5 80 c 128,-1,20
 406 80 406 80 428.5 107 c 128,-1,21
 451 134 451 134 451 199 c 128,-1,22
 451 264 451 264 423 293.5 c 128,-1,23
 395 323 395 323 330 323 c 2,24,-1
 307 323 l 1,25,-1
 307 409 l 1,26,27
 371 414 371 414 396.5 438.5 c 128,-1,28
 422 463 422 463 422 518 c 0,29,30
 422 622 422 622 317 622 c 0,31,32
 263 622 263 622 238.5 588.5 c 128,-1,33
 214 555 214 555 214 480 c 2,34,-1
 214 0 l 1,35,-1
 97 0 l 1,0,-1
EndSplineSet
EndChar

StartChar: agrave
Encoding: 224 224 161
Width: 588
GlyphClass: 2
Flags: W
LayerCount: 2
Fore
SplineSet
216 -13 m 0,0,1
 139 -13 139 -13 92.5 35.5 c 128,-1,2
 46 84 46 84 46 180.5 c 128,-1,3
 46 277 46 277 108.5 321 c 128,-1,4
 171 365 171 365 289 365 c 1,5,-1
 385 364 l 1,6,7
 385 461 385 461 369.5 481.5 c 128,-1,8
 354 502 354 502 309 502 c 128,-1,9
 264 502 264 502 208.5 491 c 128,-1,10
 153 480 153 480 91 457 c 1,11,-1
 60 542 l 1,12,13
 74 548 74 548 97.5 557.5 c 128,-1,14
 121 567 121 567 185 582.5 c 128,-1,15
 249 598 249 598 302 598 c 0,16,17
 501 598 501 598 501 382 c 2,18,-1
 501 0 l 1,19,-1
 427 0 l 1,20,-1
 411 63 l 1,21,-1
 406 63 l 1,22,23
 395 54 395 54 376.5 41.5 c 128,-1,24
 358 29 358 29 307.5 8 c 128,-1,25
 257 -13 257 -13 216 -13 c 0,0,1
385 270 m 1,26,27
 344 276 344 276 274 276 c 128,-1,28
 204 276 204 276 187 259 c 1,29,30
 165 239 165 239 165 182.5 c 128,-1,31
 165 126 165 126 179.5 105.5 c 128,-1,32
 194 85 194 85 226.5 85 c 128,-1,33
 259 85 259 85 298.5 96.5 c 128,-1,34
 338 108 338 108 385 130 c 1,35,-1
 385 270 l 1,26,27
147 721 m 1,36,-1
 179 813 l 1,37,-1
 441 720 l 1,38,-1
 419 652 l 1,39,-1
 147 721 l 1,36,-1
EndSplineSet
EndChar

StartChar: aacute
Encoding: 225 225 162
Width: 588
GlyphClass: 2
Flags: W
LayerCount: 2
Fore
SplineSet
216 -13 m 0,0,1
 139 -13 139 -13 92.5 35.5 c 128,-1,2
 46 84 46 84 46 180.5 c 128,-1,3
 46 277 46 277 108.5 321 c 128,-1,4
 171 365 171 365 289 365 c 1,5,-1
 385 364 l 1,6,7
 385 461 385 461 369.5 481.5 c 128,-1,8
 354 502 354 502 309 502 c 128,-1,9
 264 502 264 502 208.5 491 c 128,-1,10
 153 480 153 480 91 457 c 1,11,-1
 60 542 l 1,12,13
 74 548 74 548 97.5 557.5 c 128,-1,14
 121 567 121 567 185 582.5 c 128,-1,15
 249 598 249 598 302 598 c 0,16,17
 501 598 501 598 501 382 c 2,18,-1
 501 0 l 1,19,-1
 427 0 l 1,20,-1
 411 63 l 1,21,-1
 406 63 l 1,22,23
 395 54 395 54 376.5 41.5 c 128,-1,24
 358 29 358 29 307.5 8 c 128,-1,25
 257 -13 257 -13 216 -13 c 0,0,1
385 270 m 1,26,27
 344 276 344 276 274 276 c 128,-1,28
 204 276 204 276 187 259 c 1,29,30
 165 239 165 239 165 182.5 c 128,-1,31
 165 126 165 126 179.5 105.5 c 128,-1,32
 194 85 194 85 226.5 85 c 128,-1,33
 259 85 259 85 298.5 96.5 c 128,-1,34
 338 108 338 108 385 130 c 1,35,-1
 385 270 l 1,26,27
169 652 m 1,36,-1
 147 720 l 1,37,-1
 409 813 l 1,38,-1
 441 721 l 1,39,-1
 169 652 l 1,36,-1
EndSplineSet
EndChar

StartChar: acircumflex
Encoding: 226 226 163
Width: 588
GlyphClass: 2
Flags: W
LayerCount: 2
Fore
SplineSet
216 -13 m 0,0,1
 139 -13 139 -13 92.5 35.5 c 128,-1,2
 46 84 46 84 46 180.5 c 128,-1,3
 46 277 46 277 108.5 321 c 128,-1,4
 171 365 171 365 289 365 c 1,5,-1
 385 364 l 1,6,7
 385 461 385 461 369.5 481.5 c 128,-1,8
 354 502 354 502 309 502 c 128,-1,9
 264 502 264 502 208.5 491 c 128,-1,10
 153 480 153 480 91 457 c 1,11,-1
 60 542 l 1,12,13
 74 548 74 548 97.5 557.5 c 128,-1,14
 121 567 121 567 185 582.5 c 128,-1,15
 249 598 249 598 302 598 c 0,16,17
 501 598 501 598 501 382 c 2,18,-1
 501 0 l 1,19,-1
 427 0 l 1,20,-1
 411 63 l 1,21,-1
 406 63 l 1,22,23
 395 54 395 54 376.5 41.5 c 128,-1,24
 358 29 358 29 307.5 8 c 128,-1,25
 257 -13 257 -13 216 -13 c 0,0,1
385 270 m 1,26,27
 344 276 344 276 274 276 c 128,-1,28
 204 276 204 276 187 259 c 1,29,30
 165 239 165 239 165 182.5 c 128,-1,31
 165 126 165 126 179.5 105.5 c 128,-1,32
 194 85 194 85 226.5 85 c 128,-1,33
 259 85 259 85 298.5 96.5 c 128,-1,34
 338 108 338 108 385 130 c 1,35,-1
 385 270 l 1,26,27
150 647 m 1,36,-1
 117 697 l 1,37,-1
 263 804 l 1,38,-1
 324 804 l 1,39,-1
 471 697 l 1,40,-1
 436 647 l 1,41,-1
 297 716 l 1,42,-1
 290 716 l 1,43,-1
 150 647 l 1,36,-1
EndSplineSet
EndChar

StartChar: atilde
Encoding: 227 227 164
Width: 588
GlyphClass: 2
Flags: W
LayerCount: 2
Fore
SplineSet
216 -13 m 0,0,1
 139 -13 139 -13 92.5 35.5 c 128,-1,2
 46 84 46 84 46 180.5 c 128,-1,3
 46 277 46 277 108.5 321 c 128,-1,4
 171 365 171 365 289 365 c 1,5,-1
 385 364 l 1,6,7
 385 461 385 461 369.5 481.5 c 128,-1,8
 354 502 354 502 309 502 c 128,-1,9
 264 502 264 502 208.5 491 c 128,-1,10
 153 480 153 480 91 457 c 1,11,-1
 60 542 l 1,12,13
 74 548 74 548 97.5 557.5 c 128,-1,14
 121 567 121 567 185 582.5 c 128,-1,15
 249 598 249 598 302 598 c 0,16,17
 501 598 501 598 501 382 c 2,18,-1
 501 0 l 1,19,-1
 427 0 l 1,20,-1
 411 63 l 1,21,-1
 406 63 l 1,22,23
 395 54 395 54 376.5 41.5 c 128,-1,24
 358 29 358 29 307.5 8 c 128,-1,25
 257 -13 257 -13 216 -13 c 0,0,1
385 270 m 1,26,27
 344 276 344 276 274 276 c 128,-1,28
 204 276 204 276 187 259 c 1,29,30
 165 239 165 239 165 182.5 c 128,-1,31
 165 126 165 126 179.5 105.5 c 128,-1,32
 194 85 194 85 226.5 85 c 128,-1,33
 259 85 259 85 298.5 96.5 c 128,-1,34
 338 108 338 108 385 130 c 1,35,-1
 385 270 l 1,26,27
191 786 m 0,36,37
 221 786 221 786 301.5 764.5 c 128,-1,38
 382 743 382 743 389 743 c 0,39,40
 402 743 402 743 418 785 c 1,41,-1
 481 776 l 1,42,43
 480 661 480 661 399 661 c 0,44,45
 370 661 370 661 288.5 683.5 c 128,-1,46
 207 706 207 706 200 706 c 0,47,48
 186 706 186 706 170 663 c 1,49,-1
 107 671 l 1,50,51
 108 786 108 786 191 786 c 0,36,37
EndSplineSet
EndChar

StartChar: adieresis
Encoding: 228 228 165
Width: 588
GlyphClass: 2
Flags: W
LayerCount: 2
Fore
SplineSet
216 -13 m 0,0,1
 139 -13 139 -13 92.5 35.5 c 128,-1,2
 46 84 46 84 46 180.5 c 128,-1,3
 46 277 46 277 108.5 321 c 128,-1,4
 171 365 171 365 289 365 c 1,5,-1
 385 364 l 1,6,7
 385 461 385 461 369.5 481.5 c 128,-1,8
 354 502 354 502 309 502 c 128,-1,9
 264 502 264 502 208.5 491 c 128,-1,10
 153 480 153 480 91 457 c 1,11,-1
 60 542 l 1,12,13
 74 548 74 548 97.5 557.5 c 128,-1,14
 121 567 121 567 185 582.5 c 128,-1,15
 249 598 249 598 302 598 c 0,16,17
 501 598 501 598 501 382 c 2,18,-1
 501 0 l 1,19,-1
 427 0 l 1,20,-1
 411 63 l 1,21,-1
 406 63 l 1,22,23
 395 54 395 54 376.5 41.5 c 128,-1,24
 358 29 358 29 307.5 8 c 128,-1,25
 257 -13 257 -13 216 -13 c 0,0,1
385 270 m 1,26,27
 344 276 344 276 274 276 c 128,-1,28
 204 276 204 276 187 259 c 1,29,30
 165 239 165 239 165 182.5 c 128,-1,31
 165 126 165 126 179.5 105.5 c 128,-1,32
 194 85 194 85 226.5 85 c 128,-1,33
 259 85 259 85 298.5 96.5 c 128,-1,34
 338 108 338 108 385 130 c 1,35,-1
 385 270 l 1,26,27
127 677 m 1,36,-1
 127 770 l 1,37,-1
 251 770 l 1,38,-1
 251 677 l 1,39,-1
 127 677 l 1,36,-1
338 677 m 1,40,-1
 338 770 l 1,41,-1
 461 770 l 1,42,-1
 461 677 l 1,43,-1
 338 677 l 1,40,-1
EndSplineSet
EndChar

StartChar: aring
Encoding: 229 229 166
Width: 588
GlyphClass: 2
Flags: W
LayerCount: 2
Fore
SplineSet
216 -13 m 0,0,1
 139 -13 139 -13 92.5 35.5 c 128,-1,2
 46 84 46 84 46 180.5 c 128,-1,3
 46 277 46 277 108.5 321 c 128,-1,4
 171 365 171 365 289 365 c 1,5,-1
 385 364 l 1,6,7
 385 461 385 461 369.5 481.5 c 128,-1,8
 354 502 354 502 309 502 c 128,-1,9
 264 502 264 502 208.5 491 c 128,-1,10
 153 480 153 480 91 457 c 1,11,-1
 60 542 l 1,12,13
 74 548 74 548 97.5 557.5 c 128,-1,14
 121 567 121 567 185 582.5 c 128,-1,15
 249 598 249 598 302 598 c 0,16,17
 501 598 501 598 501 382 c 2,18,-1
 501 0 l 1,19,-1
 427 0 l 1,20,-1
 411 63 l 1,21,-1
 406 63 l 1,22,23
 395 54 395 54 376.5 41.5 c 128,-1,24
 358 29 358 29 307.5 8 c 128,-1,25
 257 -13 257 -13 216 -13 c 0,0,1
385 270 m 1,26,27
 344 276 344 276 274 276 c 128,-1,28
 204 276 204 276 187 259 c 1,29,30
 165 239 165 239 165 182.5 c 128,-1,31
 165 126 165 126 179.5 105.5 c 128,-1,32
 194 85 194 85 226.5 85 c 128,-1,33
 259 85 259 85 298.5 96.5 c 128,-1,34
 338 108 338 108 385 130 c 1,35,-1
 385 270 l 1,26,27
188 731 m 0,36,37
 188 821 188 821 281.5 821 c 128,-1,38
 375 821 375 821 375 731 c 0,39,40
 375 683 375 683 348.5 662.5 c 128,-1,41
 322 642 322 642 282 642 c 128,-1,42
 242 642 242 642 215 662.5 c 128,-1,43
 188 683 188 683 188 731 c 0,36,37
252.5 760.5 m 128,-1,45
 244 753 244 753 244 731.5 c 128,-1,46
 244 710 244 710 253 702 c 128,-1,47
 262 694 262 694 281.5 694 c 128,-1,48
 301 694 301 694 309.5 702 c 128,-1,49
 318 710 318 710 318 731.5 c 128,-1,50
 318 753 318 753 310 760.5 c 128,-1,51
 302 768 302 768 281.5 768 c 128,-1,44
 261 768 261 768 252.5 760.5 c 128,-1,45
EndSplineSet
EndChar

StartChar: ae
Encoding: 230 230 167
Width: 919
GlyphClass: 2
Flags: W
LayerCount: 2
Fore
SplineSet
225 -13 m 0,0,1
 148 -13 148 -13 102.5 35.5 c 128,-1,2
 57 84 57 84 57 178 c 128,-1,3
 57 272 57 272 121.5 313 c 128,-1,4
 186 354 186 354 304 354 c 2,5,-1
 396 354 l 1,6,7
 396 458 396 458 381 480 c 128,-1,8
 366 502 366 502 319.5 502 c 128,-1,9
 273 502 273 502 219 491 c 128,-1,10
 165 480 165 480 102 457 c 1,11,-1
 71 543 l 1,12,13
 115 563 115 563 184 580.5 c 128,-1,14
 253 598 253 598 304 598 c 0,15,16
 417 598 417 598 467 534 c 1,17,-1
 471 534 l 1,18,19
 531 598 531 598 641 598 c 128,-1,20
 751 598 751 598 806 535.5 c 128,-1,21
 861 473 861 473 861 328 c 2,22,-1
 861 258 l 1,23,-1
 514 258 l 1,24,25
 514 138 514 138 545 108 c 0,26,27
 562 91 562 91 579.5 86.5 c 128,-1,28
 597 82 597 82 629.5 82 c 128,-1,29
 662 82 662 82 709.5 92 c 128,-1,30
 757 102 757 102 819 123 c 1,31,-1
 848 35 l 1,32,33
 806 16 806 16 747.5 1.5 c 128,-1,34
 689 -13 689 -13 641 -13 c 0,35,36
 509 -13 509 -13 450 71 c 1,37,-1
 446 71 l 1,38,39
 399 33 399 33 335 10 c 128,-1,40
 271 -13 271 -13 225 -13 c 0,0,1
396 260 m 1,41,42
 358 266 358 266 289 266 c 128,-1,43
 220 266 220 266 198 250 c 128,-1,44
 176 234 176 234 176 180 c 128,-1,45
 176 126 176 126 193 105.5 c 128,-1,46
 210 85 210 85 244 85 c 0,47,48
 306 85 306 85 374 118 c 2,49,-1
 396 129 l 1,50,-1
 396 260 l 1,41,42
643 503 m 0,51,52
 564 503 564 503 540 468 c 128,-1,53
 516 433 516 433 514 345 c 1,54,-1
 743 349 l 1,55,56
 743 459 743 459 722 478 c 0,57,58
 694 503 694 503 643 503 c 0,51,52
EndSplineSet
EndChar

StartChar: ccedilla
Encoding: 231 231 168
Width: 534
GlyphClass: 2
Flags: W
LayerCount: 2
Fore
SplineSet
201 -94 m 1,0,1
 246 -99 246 -99 271.5 -99 c 128,-1,2
 297 -99 297 -99 307.5 -93 c 128,-1,3
 318 -87 318 -87 318 -64 c 128,-1,4
 318 -41 318 -41 311 -13 c 1,5,6
 196 -13 196 -13 129 61 c 128,-1,7
 62 135 62 135 62 294 c 0,8,9
 62 468 62 468 142 537 c 0,10,11
 214 598 214 598 332 598 c 0,12,13
 410 598 410 598 486 579 c 1,14,-1
 473 488 l 1,15,16
 364 502 364 502 306 502 c 128,-1,17
 248 502 248 502 224 478 c 1,18,19
 182 433 182 433 182 286 c 128,-1,20
 182 139 182 139 239 97 c 0,21,22
 260 82 260 82 293.5 82 c 128,-1,23
 327 82 327 82 370 94 c 128,-1,24
 413 106 413 106 467 129 c 1,25,-1
 501 44 l 1,26,27
 456 11 456 11 384 -5 c 1,28,29
 395 -47 395 -47 395 -74 c 0,30,31
 395 -122 395 -122 364 -150.5 c 128,-1,32
 333 -179 333 -179 281 -179 c 0,33,34
 251 -179 251 -179 201 -170 c 1,35,-1
 201 -94 l 1,0,1
EndSplineSet
EndChar

StartChar: egrave
Encoding: 232 232 169
Width: 589
GlyphClass: 2
Flags: W
LayerCount: 2
Fore
SplineSet
312 -13 m 0,0,1
 62 -13 62 -13 62 292.5 c 128,-1,2
 62 598 62 598 310 598 c 0,3,4
 421 598 421 598 476.5 534 c 128,-1,5
 532 470 532 470 532 322 c 2,6,-1
 532 250 l 1,7,-1
 183 250 l 1,8,9
 183 139 183 139 221 104 c 0,10,11
 246 82 246 82 288 82 c 0,12,13
 369 82 369 82 459 112 c 1,14,-1
 490 123 l 1,15,-1
 518 35 l 1,16,17
 420 -13 420 -13 312 -13 c 0,0,1
414 372 m 2,18,19
 414 378 414 378 413 398.5 c 128,-1,20
 412 419 412 419 411 423.5 c 128,-1,21
 410 428 410 428 407.5 443.5 c 128,-1,22
 405 459 405 459 401.5 462.5 c 128,-1,23
 398 466 398 466 392.5 476 c 128,-1,24
 387 486 387 486 380 488.5 c 128,-1,25
 373 491 373 491 364 496 c 0,26,27
 350 503 350 503 310.5 503 c 128,-1,28
 271 503 271 503 245.5 494 c 128,-1,29
 220 485 220 485 206.5 462 c 128,-1,30
 193 439 193 439 189 412 c 128,-1,31
 185 385 185 385 184 337 c 1,32,-1
 414 342 l 1,33,-1
 414 372 l 2,18,19
148 721 m 1,34,-1
 180 813 l 1,35,-1
 442 720 l 1,36,-1
 420 652 l 1,37,-1
 148 721 l 1,34,-1
EndSplineSet
EndChar

StartChar: eacute
Encoding: 233 233 170
Width: 589
GlyphClass: 2
Flags: W
LayerCount: 2
Fore
SplineSet
312 -13 m 0,0,1
 62 -13 62 -13 62 292.5 c 128,-1,2
 62 598 62 598 310 598 c 0,3,4
 421 598 421 598 476.5 534 c 128,-1,5
 532 470 532 470 532 322 c 2,6,-1
 532 250 l 1,7,-1
 183 250 l 1,8,9
 183 139 183 139 221 104 c 0,10,11
 246 82 246 82 288 82 c 0,12,13
 369 82 369 82 459 112 c 1,14,-1
 490 123 l 1,15,-1
 518 35 l 1,16,17
 420 -13 420 -13 312 -13 c 0,0,1
414 372 m 2,18,19
 414 378 414 378 413 398.5 c 128,-1,20
 412 419 412 419 411 423.5 c 128,-1,21
 410 428 410 428 407.5 443.5 c 128,-1,22
 405 459 405 459 401.5 462.5 c 128,-1,23
 398 466 398 466 392.5 476 c 128,-1,24
 387 486 387 486 380 488.5 c 128,-1,25
 373 491 373 491 364 496 c 0,26,27
 350 503 350 503 310.5 503 c 128,-1,28
 271 503 271 503 245.5 494 c 128,-1,29
 220 485 220 485 206.5 462 c 128,-1,30
 193 439 193 439 189 412 c 128,-1,31
 185 385 185 385 184 337 c 1,32,-1
 414 342 l 1,33,-1
 414 372 l 2,18,19
170 652 m 1,34,-1
 148 720 l 1,35,-1
 410 813 l 1,36,-1
 442 721 l 1,37,-1
 170 652 l 1,34,-1
EndSplineSet
EndChar

StartChar: ecircumflex
Encoding: 234 234 171
Width: 589
GlyphClass: 2
Flags: W
LayerCount: 2
Fore
SplineSet
312 -13 m 0,0,1
 62 -13 62 -13 62 292.5 c 128,-1,2
 62 598 62 598 310 598 c 0,3,4
 421 598 421 598 476.5 534 c 128,-1,5
 532 470 532 470 532 322 c 2,6,-1
 532 250 l 1,7,-1
 183 250 l 1,8,9
 183 139 183 139 221 104 c 0,10,11
 246 82 246 82 288 82 c 0,12,13
 369 82 369 82 459 112 c 1,14,-1
 490 123 l 1,15,-1
 518 35 l 1,16,17
 420 -13 420 -13 312 -13 c 0,0,1
414 372 m 2,18,19
 414 378 414 378 413 398.5 c 128,-1,20
 412 419 412 419 411 423.5 c 128,-1,21
 410 428 410 428 407.5 443.5 c 128,-1,22
 405 459 405 459 401.5 462.5 c 128,-1,23
 398 466 398 466 392.5 476 c 128,-1,24
 387 486 387 486 380 488.5 c 128,-1,25
 373 491 373 491 364 496 c 0,26,27
 350 503 350 503 310.5 503 c 128,-1,28
 271 503 271 503 245.5 494 c 128,-1,29
 220 485 220 485 206.5 462 c 128,-1,30
 193 439 193 439 189 412 c 128,-1,31
 185 385 185 385 184 337 c 1,32,-1
 414 342 l 1,33,-1
 414 372 l 2,18,19
150 647 m 1,34,-1
 117 697 l 1,35,-1
 263 804 l 1,36,-1
 324 804 l 1,37,-1
 471 697 l 1,38,-1
 436 647 l 1,39,-1
 297 716 l 1,40,-1
 290 716 l 1,41,-1
 150 647 l 1,34,-1
EndSplineSet
EndChar

StartChar: edieresis
Encoding: 235 235 172
Width: 589
GlyphClass: 2
Flags: W
LayerCount: 2
Fore
SplineSet
312 -13 m 0,0,1
 62 -13 62 -13 62 292.5 c 128,-1,2
 62 598 62 598 310 598 c 0,3,4
 421 598 421 598 476.5 534 c 128,-1,5
 532 470 532 470 532 322 c 2,6,-1
 532 250 l 1,7,-1
 183 250 l 1,8,9
 183 139 183 139 221 104 c 0,10,11
 246 82 246 82 288 82 c 0,12,13
 369 82 369 82 459 112 c 1,14,-1
 490 123 l 1,15,-1
 518 35 l 1,16,17
 420 -13 420 -13 312 -13 c 0,0,1
414 372 m 2,18,19
 414 378 414 378 413 398.5 c 128,-1,20
 412 419 412 419 411 423.5 c 128,-1,21
 410 428 410 428 407.5 443.5 c 128,-1,22
 405 459 405 459 401.5 462.5 c 128,-1,23
 398 466 398 466 392.5 476 c 128,-1,24
 387 486 387 486 380 488.5 c 128,-1,25
 373 491 373 491 364 496 c 0,26,27
 350 503 350 503 310.5 503 c 128,-1,28
 271 503 271 503 245.5 494 c 128,-1,29
 220 485 220 485 206.5 462 c 128,-1,30
 193 439 193 439 189 412 c 128,-1,31
 185 385 185 385 184 337 c 1,32,-1
 414 342 l 1,33,-1
 414 372 l 2,18,19
127 677 m 1,34,-1
 127 770 l 1,35,-1
 251 770 l 1,36,-1
 251 677 l 1,37,-1
 127 677 l 1,34,-1
338 677 m 1,38,-1
 338 770 l 1,39,-1
 461 770 l 1,40,-1
 461 677 l 1,41,-1
 338 677 l 1,38,-1
EndSplineSet
EndChar

StartChar: igrave
Encoding: 236 236 173
Width: 310
GlyphClass: 2
Flags: W
LayerCount: 2
Fore
SplineSet
-9 720 m 1,0,-1
 23 813 l 1,1,-1
 275 720 l 1,2,-1
 253 652 l 1,3,-1
 -9 720 l 1,0,-1
97 0 m 1,4,-1
 97 585 l 1,5,-1
 213 585 l 1,6,-1
 213 0 l 1,7,-1
 97 0 l 1,4,-1
EndSplineSet
EndChar

StartChar: iacute
Encoding: 237 237 174
Width: 310
GlyphClass: 2
Flags: W
LayerCount: 2
Fore
SplineSet
44 652 m 1,0,-1
 22 720 l 1,1,-1
 274 813 l 1,2,-1
 306 720 l 1,3,-1
 44 652 l 1,0,-1
97 0 m 1,4,-1
 97 585 l 1,5,-1
 213 585 l 1,6,-1
 213 0 l 1,7,-1
 97 0 l 1,4,-1
EndSplineSet
EndChar

StartChar: icircumflex
Encoding: 238 238 175
Width: 310
GlyphClass: 2
Flags: W
LayerCount: 2
Fore
SplineSet
20 649 m 1,0,-1
 -13 700 l 1,1,-1
 124 804 l 1,2,-1
 185 804 l 1,3,-1
 323 700 l 1,4,-1
 288 649 l 1,5,-1
 158 716 l 1,6,-1
 151 716 l 1,7,-1
 20 649 l 1,0,-1
97 0 m 1,8,-1
 97 585 l 1,9,-1
 213 585 l 1,10,-1
 213 0 l 1,11,-1
 97 0 l 1,8,-1
EndSplineSet
EndChar

StartChar: idieresis
Encoding: 239 239 176
Width: 310
GlyphClass: 2
Flags: W
LayerCount: 2
Fore
SplineSet
1 677 m 1,0,-1
 1 770 l 1,1,-1
 122 770 l 1,2,-1
 122 677 l 1,3,-1
 1 677 l 1,0,-1
188 677 m 1,4,-1
 188 770 l 1,5,-1
 308 770 l 1,6,-1
 308 677 l 1,7,-1
 188 677 l 1,4,-1
97 0 m 1,8,-1
 97 585 l 1,9,-1
 213 585 l 1,10,-1
 213 0 l 1,11,-1
 97 0 l 1,8,-1
EndSplineSet
EndChar

StartChar: eth
Encoding: 240 240 177
Width: 603
GlyphClass: 2
Flags: W
LayerCount: 2
Fore
SplineSet
294 660 m 1,0,-1
 232 706 l 1,1,-1
 292 770 l 1,2,3
 344 742 344 742 388 707 c 1,4,-1
 491 762 l 1,5,-1
 498 681 l 1,6,-1
 441 651 l 1,7,8
 532 545 532 545 537 327 c 0,9,10
 537 289 537 289 536 271 c 0,11,12
 531 132 531 132 476.5 59.5 c 128,-1,13
 422 -13 422 -13 300 -13 c 0,14,15
 65 -13 65 -13 65 266 c 0,16,17
 65 383 65 383 119 452 c 128,-1,18
 173 521 173 521 291 521 c 0,19,20
 368 521 368 521 428 480 c 1,21,-1
 433 483 l 1,22,23
 412 547 412 547 352 607 c 1,24,-1
 241 553 l 1,25,-1
 233 632 l 1,26,-1
 294 660 l 1,0,-1
207 116.5 m 128,-1,28
 232 79 232 79 301.5 79 c 128,-1,29
 371 79 371 79 395 116.5 c 128,-1,30
 419 154 419 154 419 257.5 c 128,-1,31
 419 361 419 361 394 394.5 c 128,-1,32
 369 428 369 428 301.5 428 c 128,-1,33
 234 428 234 428 208 394.5 c 128,-1,34
 182 361 182 361 182 257.5 c 128,-1,27
 182 154 182 154 207 116.5 c 128,-1,28
EndSplineSet
EndChar

StartChar: ntilde
Encoding: 241 241 178
Width: 620
GlyphClass: 2
Flags: W
LayerCount: 2
Fore
SplineSet
93 0 m 1,0,-1
 93 585 l 1,1,-1
 169 585 l 1,2,-1
 182 527 l 1,3,-1
 187 527 l 1,4,5
 310 598 310 598 394.5 598 c 128,-1,6
 479 598 479 598 509.5 543 c 128,-1,7
 540 488 540 488 540 386 c 2,8,-1
 540 0 l 1,9,-1
 424 0 l 1,10,-1
 424 357 l 2,11,12
 424 446 424 446 412.5 469.5 c 128,-1,13
 401 493 401 493 362 493 c 128,-1,14
 323 493 323 493 278.5 477 c 128,-1,15
 234 461 234 461 209 445 c 1,16,-1
 209 0 l 1,17,-1
 93 0 l 1,0,-1
207 786 m 0,18,19
 236 786 236 786 317 764.5 c 128,-1,20
 398 743 398 743 405 743 c 0,21,22
 418 743 418 743 434 785 c 1,23,-1
 497 776 l 1,24,25
 496 661 496 661 415 661 c 0,26,27
 386 661 386 661 304.5 683.5 c 128,-1,28
 223 706 223 706 216 706 c 0,29,30
 202 706 202 706 186 663 c 1,31,-1
 123 671 l 1,32,33
 124 786 124 786 207 786 c 0,18,19
EndSplineSet
EndChar

StartChar: ograve
Encoding: 242 242 179
Width: 598
GlyphClass: 2
Flags: W
LayerCount: 2
Fore
SplineSet
482 64.5 m 128,-1,1
 428 -13 428 -13 299.5 -13 c 128,-1,2
 171 -13 171 -13 116.5 64.5 c 128,-1,3
 62 142 62 142 62 292 c 128,-1,4
 62 442 62 442 116.5 520 c 128,-1,5
 171 598 171 598 299.5 598 c 128,-1,6
 428 598 428 598 482 520 c 128,-1,7
 536 442 536 442 536 292 c 128,-1,0
 536 142 536 142 482 64.5 c 128,-1,1
300 79 m 128,-1,9
 369 79 369 79 393 120.5 c 128,-1,10
 417 162 417 162 417 292.5 c 128,-1,11
 417 423 417 423 393 464 c 128,-1,12
 369 505 369 505 300 505 c 128,-1,13
 231 505 231 505 206.5 464 c 128,-1,14
 182 423 182 423 182 292.5 c 128,-1,15
 182 162 182 162 206.5 120.5 c 128,-1,8
 231 79 231 79 300 79 c 128,-1,9
152 721 m 1,16,-1
 184 813 l 1,17,-1
 446 720 l 1,18,-1
 424 652 l 1,19,-1
 152 721 l 1,16,-1
EndSplineSet
EndChar

StartChar: oacute
Encoding: 243 243 180
Width: 598
GlyphClass: 2
Flags: W
LayerCount: 2
Fore
SplineSet
482 64.5 m 128,-1,1
 428 -13 428 -13 299.5 -13 c 128,-1,2
 171 -13 171 -13 116.5 64.5 c 128,-1,3
 62 142 62 142 62 292 c 128,-1,4
 62 442 62 442 116.5 520 c 128,-1,5
 171 598 171 598 299.5 598 c 128,-1,6
 428 598 428 598 482 520 c 128,-1,7
 536 442 536 442 536 292 c 128,-1,0
 536 142 536 142 482 64.5 c 128,-1,1
300 79 m 128,-1,9
 369 79 369 79 393 120.5 c 128,-1,10
 417 162 417 162 417 292.5 c 128,-1,11
 417 423 417 423 393 464 c 128,-1,12
 369 505 369 505 300 505 c 128,-1,13
 231 505 231 505 206.5 464 c 128,-1,14
 182 423 182 423 182 292.5 c 128,-1,15
 182 162 182 162 206.5 120.5 c 128,-1,8
 231 79 231 79 300 79 c 128,-1,9
174 652 m 1,16,-1
 152 720 l 1,17,-1
 414 813 l 1,18,-1
 446 721 l 1,19,-1
 174 652 l 1,16,-1
EndSplineSet
EndChar

StartChar: ocircumflex
Encoding: 244 244 181
Width: 598
GlyphClass: 2
Flags: W
LayerCount: 2
Fore
SplineSet
482 64.5 m 128,-1,1
 428 -13 428 -13 299.5 -13 c 128,-1,2
 171 -13 171 -13 116.5 64.5 c 128,-1,3
 62 142 62 142 62 292 c 128,-1,4
 62 442 62 442 116.5 520 c 128,-1,5
 171 598 171 598 299.5 598 c 128,-1,6
 428 598 428 598 482 520 c 128,-1,7
 536 442 536 442 536 292 c 128,-1,0
 536 142 536 142 482 64.5 c 128,-1,1
300 79 m 128,-1,9
 369 79 369 79 393 120.5 c 128,-1,10
 417 162 417 162 417 292.5 c 128,-1,11
 417 423 417 423 393 464 c 128,-1,12
 369 505 369 505 300 505 c 128,-1,13
 231 505 231 505 206.5 464 c 128,-1,14
 182 423 182 423 182 292.5 c 128,-1,15
 182 162 182 162 206.5 120.5 c 128,-1,8
 231 79 231 79 300 79 c 128,-1,9
155 647 m 1,16,-1
 122 697 l 1,17,-1
 268 804 l 1,18,-1
 329 804 l 1,19,-1
 476 697 l 1,20,-1
 441 647 l 1,21,-1
 302 716 l 1,22,-1
 295 716 l 1,23,-1
 155 647 l 1,16,-1
EndSplineSet
EndChar

StartChar: otilde
Encoding: 245 245 182
Width: 598
GlyphClass: 2
Flags: W
LayerCount: 2
Fore
SplineSet
482 64.5 m 128,-1,1
 428 -13 428 -13 299.5 -13 c 128,-1,2
 171 -13 171 -13 116.5 64.5 c 128,-1,3
 62 142 62 142 62 292 c 128,-1,4
 62 442 62 442 116.5 520 c 128,-1,5
 171 598 171 598 299.5 598 c 128,-1,6
 428 598 428 598 482 520 c 128,-1,7
 536 442 536 442 536 292 c 128,-1,0
 536 142 536 142 482 64.5 c 128,-1,1
300 79 m 128,-1,9
 369 79 369 79 393 120.5 c 128,-1,10
 417 162 417 162 417 292.5 c 128,-1,11
 417 423 417 423 393 464 c 128,-1,12
 369 505 369 505 300 505 c 128,-1,13
 231 505 231 505 206.5 464 c 128,-1,14
 182 423 182 423 182 292.5 c 128,-1,15
 182 162 182 162 206.5 120.5 c 128,-1,8
 231 79 231 79 300 79 c 128,-1,9
196 786 m 0,16,17
 226 786 226 786 306 764.5 c 128,-1,18
 386 743 386 743 394 743 c 0,19,20
 407 743 407 743 423 785 c 1,21,-1
 486 776 l 1,22,23
 485 661 485 661 404 661 c 0,24,25
 375 661 375 661 293.5 683.5 c 128,-1,26
 212 706 212 706 205 706 c 0,27,28
 191 706 191 706 175 663 c 1,29,-1
 112 671 l 1,30,31
 113 786 113 786 196 786 c 0,16,17
EndSplineSet
EndChar

StartChar: odieresis
Encoding: 246 246 183
Width: 598
GlyphClass: 2
Flags: W
LayerCount: 2
Fore
SplineSet
482 64.5 m 128,-1,1
 428 -13 428 -13 299.5 -13 c 128,-1,2
 171 -13 171 -13 116.5 64.5 c 128,-1,3
 62 142 62 142 62 292 c 128,-1,4
 62 442 62 442 116.5 520 c 128,-1,5
 171 598 171 598 299.5 598 c 128,-1,6
 428 598 428 598 482 520 c 128,-1,7
 536 442 536 442 536 292 c 128,-1,0
 536 142 536 142 482 64.5 c 128,-1,1
300 79 m 128,-1,9
 369 79 369 79 393 120.5 c 128,-1,10
 417 162 417 162 417 292.5 c 128,-1,11
 417 423 417 423 393 464 c 128,-1,12
 369 505 369 505 300 505 c 128,-1,13
 231 505 231 505 206.5 464 c 128,-1,14
 182 423 182 423 182 292.5 c 128,-1,15
 182 162 182 162 206.5 120.5 c 128,-1,8
 231 79 231 79 300 79 c 128,-1,9
132 677 m 1,16,-1
 132 770 l 1,17,-1
 256 770 l 1,18,-1
 256 677 l 1,19,-1
 132 677 l 1,16,-1
343 677 m 1,20,-1
 343 770 l 1,21,-1
 466 770 l 1,22,-1
 466 677 l 1,23,-1
 343 677 l 1,20,-1
EndSplineSet
EndChar

StartChar: divide
Encoding: 247 247 184
Width: 636
GlyphClass: 2
Flags: W
LayerCount: 2
Fore
SplineSet
44 243 m 1,0,-1
 44 342 l 1,1,-1
 592 342 l 1,2,-1
 592 243 l 1,3,-1
 44 243 l 1,0,-1
248 28 m 1,4,-1
 248 137 l 1,5,-1
 387 137 l 1,6,-1
 387 28 l 1,7,-1
 248 28 l 1,4,-1
248 449 m 1,8,-1
 248 559 l 1,9,-1
 387 559 l 1,10,-1
 387 449 l 1,11,-1
 248 449 l 1,8,-1
EndSplineSet
EndChar

StartChar: oslash
Encoding: 248 248 185
Width: 599
GlyphClass: 2
Flags: W
LayerCount: 2
Fore
SplineSet
132 49 m 1,0,1
 63 121 63 121 63 281.5 c 128,-1,2
 63 442 63 442 117.5 520 c 128,-1,3
 172 598 172 598 300 598 c 0,4,5
 349 598 349 598 385 586 c 1,6,-1
 404 627 l 1,7,-1
 493 627 l 1,8,-1
 455 549 l 1,9,10
 536 478 536 478 536 292 c 0,11,12
 536 142 536 142 482 64.5 c 128,-1,13
 428 -13 428 -13 300 -13 c 0,14,15
 243 -13 243 -13 199 6 c 1,16,-1
 179 -38 l 1,17,-1
 90 -38 l 1,18,-1
 132 49 l 1,0,1
346 500 m 1,19,20
 330 505 330 505 292 505 c 128,-1,21
 254 505 254 505 230 489 c 128,-1,22
 206 473 206 473 194.5 427.5 c 128,-1,23
 183 382 183 382 183 295 c 128,-1,24
 183 208 183 208 190 166 c 1,25,-1
 266 324 l 1,26,-1
 346 500 l 1,19,20
300 79 m 0,27,28
 369 79 369 79 392.5 120 c 128,-1,29
 416 161 416 161 416 277 c 128,-1,30
 416 393 416 393 400 437 c 1,31,-1
 239 91 l 1,32,33
 257 79 257 79 300 79 c 0,27,28
EndSplineSet
EndChar

StartChar: ugrave
Encoding: 249 249 186
Width: 619
GlyphClass: 2
Flags: W
LayerCount: 2
Fore
SplineSet
80 199 m 2,0,-1
 80 585 l 1,1,-1
 196 585 l 1,2,-1
 196 222 l 2,3,4
 196 126 196 126 209 107 c 1,5,6
 223 90 223 90 260 90 c 0,7,8
 320 90 320 90 410 138 c 1,9,-1
 410 585 l 1,10,-1
 526 585 l 1,11,-1
 526 0 l 1,12,-1
 450 0 l 1,13,-1
 436 58 l 1,14,-1
 431 58 l 1,15,16
 430 57 430 57 408.5 45 c 128,-1,17
 387 33 387 33 378.5 29 c 128,-1,18
 370 25 370 25 348 14.5 c 128,-1,19
 326 4 326 4 311 0 c 0,20,21
 269 -13 269 -13 235 -13 c 0,22,23
 80 -13 80 -13 80 199 c 2,0,-1
162 721 m 1,24,-1
 194 813 l 1,25,-1
 456 720 l 1,26,-1
 434 652 l 1,27,-1
 162 721 l 1,24,-1
EndSplineSet
EndChar

StartChar: uacute
Encoding: 250 250 187
Width: 619
GlyphClass: 2
Flags: W
LayerCount: 2
Fore
SplineSet
80 199 m 2,0,-1
 80 585 l 1,1,-1
 196 585 l 1,2,-1
 196 222 l 2,3,4
 196 126 196 126 209 107 c 1,5,6
 223 90 223 90 260 90 c 0,7,8
 320 90 320 90 410 138 c 1,9,-1
 410 585 l 1,10,-1
 526 585 l 1,11,-1
 526 0 l 1,12,-1
 450 0 l 1,13,-1
 436 58 l 1,14,-1
 431 58 l 1,15,16
 430 57 430 57 408.5 45 c 128,-1,17
 387 33 387 33 378.5 29 c 128,-1,18
 370 25 370 25 348 14.5 c 128,-1,19
 326 4 326 4 311 0 c 0,20,21
 269 -13 269 -13 235 -13 c 0,22,23
 80 -13 80 -13 80 199 c 2,0,-1
185 652 m 1,24,-1
 163 720 l 1,25,-1
 425 813 l 1,26,-1
 457 721 l 1,27,-1
 185 652 l 1,24,-1
EndSplineSet
EndChar

StartChar: ucircumflex
Encoding: 251 251 188
Width: 619
GlyphClass: 2
Flags: W
LayerCount: 2
Fore
SplineSet
80 199 m 2,0,-1
 80 585 l 1,1,-1
 196 585 l 1,2,-1
 196 222 l 2,3,4
 196 126 196 126 209 107 c 1,5,6
 223 90 223 90 260 90 c 0,7,8
 320 90 320 90 410 138 c 1,9,-1
 410 585 l 1,10,-1
 526 585 l 1,11,-1
 526 0 l 1,12,-1
 450 0 l 1,13,-1
 436 58 l 1,14,-1
 431 58 l 1,15,16
 430 57 430 57 408.5 45 c 128,-1,17
 387 33 387 33 378.5 29 c 128,-1,18
 370 25 370 25 348 14.5 c 128,-1,19
 326 4 326 4 311 0 c 0,20,21
 269 -13 269 -13 235 -13 c 0,22,23
 80 -13 80 -13 80 199 c 2,0,-1
165 647 m 1,24,-1
 132 697 l 1,25,-1
 278 804 l 1,26,-1
 339 804 l 1,27,-1
 486 697 l 1,28,-1
 451 647 l 1,29,-1
 312 716 l 1,30,-1
 305 716 l 1,31,-1
 165 647 l 1,24,-1
EndSplineSet
EndChar

StartChar: udieresis
Encoding: 252 252 189
Width: 619
GlyphClass: 2
Flags: W
LayerCount: 2
Fore
SplineSet
80 199 m 2,0,-1
 80 585 l 1,1,-1
 196 585 l 1,2,-1
 196 222 l 2,3,4
 196 126 196 126 209 107 c 1,5,6
 223 90 223 90 260 90 c 0,7,8
 320 90 320 90 410 138 c 1,9,-1
 410 585 l 1,10,-1
 526 585 l 1,11,-1
 526 0 l 1,12,-1
 450 0 l 1,13,-1
 436 58 l 1,14,-1
 431 58 l 1,15,16
 430 57 430 57 408.5 45 c 128,-1,17
 387 33 387 33 378.5 29 c 128,-1,18
 370 25 370 25 348 14.5 c 128,-1,19
 326 4 326 4 311 0 c 0,20,21
 269 -13 269 -13 235 -13 c 0,22,23
 80 -13 80 -13 80 199 c 2,0,-1
142 677 m 1,24,-1
 142 770 l 1,25,-1
 266 770 l 1,26,-1
 266 677 l 1,27,-1
 142 677 l 1,24,-1
353 677 m 1,28,-1
 353 770 l 1,29,-1
 476 770 l 1,30,-1
 476 677 l 1,31,-1
 353 677 l 1,28,-1
EndSplineSet
EndChar

StartChar: yacute
Encoding: 253 253 190
Width: 499
GlyphClass: 2
Flags: W
LayerCount: 2
Fore
SplineSet
117 -166 m 1,0,-1
 199 54 l 1,1,-1
 -5 585 l 1,2,-1
 124 585 l 1,3,-1
 248 173 l 1,4,-1
 253 173 l 1,5,-1
 375 585 l 1,6,-1
 497 585 l 1,7,-1
 292 34 l 1,8,-1
 237 -166 l 1,9,-1
 117 -166 l 1,0,-1
125 652 m 1,10,-1
 103 720 l 1,11,-1
 365 813 l 1,12,-1
 397 721 l 1,13,-1
 125 652 l 1,10,-1
EndSplineSet
EndChar

StartChar: thorn
Encoding: 254 254 191
Width: 613
GlyphClass: 2
Flags: W
LayerCount: 2
Fore
SplineSet
211 97 m 1,0,1
 288 83 288 83 330 83 c 128,-1,2
 372 83 372 83 389 98 c 0,3,4
 431 133 431 133 431 306 c 0,5,6
 431 410 431 410 424.5 433.5 c 128,-1,7
 418 457 418 457 416 467 c 128,-1,8
 414 477 414 477 407 483.5 c 128,-1,9
 400 490 400 490 397 493.5 c 128,-1,10
 394 497 394 497 384.5 498.5 c 128,-1,11
 375 500 375 500 371 500.5 c 128,-1,12
 367 501 367 501 355 500.5 c 128,-1,13
 343 500 343 500 326 500 c 0,14,15
 283 500 283 500 211 480 c 1,16,-1
 211 97 l 1,0,1
96 -166 m 1,17,-1
 96 757 l 1,18,-1
 211 757 l 1,19,-1
 211 579 l 1,20,21
 296 598 296 598 351 598 c 0,22,23
 450 598 450 598 500 525.5 c 128,-1,24
 550 453 550 453 550 297 c 0,25,26
 550 -13 550 -13 328 -13 c 0,27,28
 293 -13 293 -13 211 0 c 1,29,-1
 211 -166 l 1,30,-1
 96 -166 l 1,17,-1
EndSplineSet
EndChar

StartChar: ydieresis
Encoding: 255 255 192
Width: 499
GlyphClass: 2
Flags: W
LayerCount: 2
Fore
SplineSet
117 -166 m 1,0,-1
 199 54 l 1,1,-1
 -5 585 l 1,2,-1
 124 585 l 1,3,-1
 248 173 l 1,4,-1
 253 173 l 1,5,-1
 375 585 l 1,6,-1
 497 585 l 1,7,-1
 292 34 l 1,8,-1
 237 -166 l 1,9,-1
 117 -166 l 1,0,-1
83 677 m 1,10,-1
 83 770 l 1,11,-1
 207 770 l 1,12,-1
 207 677 l 1,13,-1
 83 677 l 1,10,-1
294 677 m 1,14,-1
 294 770 l 1,15,-1
 417 770 l 1,16,-1
 417 677 l 1,17,-1
 294 677 l 1,14,-1
EndSplineSet
EndChar

StartChar: hbar
Encoding: 295 295 193
Width: 619
GlyphClass: 2
Flags: W
LayerCount: 2
Fore
SplineSet
89 0 m 1,0,-1
 89 642 l 1,1,-1
 8 642 l 1,2,-1
 8 722 l 1,3,-1
 89 722 l 1,4,-1
 89 757 l 1,5,-1
 205 757 l 1,6,-1
 205 722 l 1,7,-1
 385 722 l 1,8,-1
 385 642 l 1,9,-1
 205 642 l 1,10,-1
 205 548 l 1,11,12
 316 599 316 599 394 599 c 128,-1,13
 472 599 472 599 505.5 545.5 c 128,-1,14
 539 492 539 492 539 386 c 2,15,-1
 539 0 l 1,16,-1
 423 0 l 1,17,-1
 423 358 l 2,18,19
 423 443 423 443 409 469 c 128,-1,20
 395 495 395 495 353 495 c 0,21,22
 327 495 327 495 290 485.5 c 128,-1,23
 253 476 253 476 205 456 c 1,24,-1
 205 0 l 1,25,-1
 89 0 l 1,0,-1
EndSplineSet
EndChar

StartChar: Itilde
Encoding: 296 296 194
Width: 313
GlyphClass: 2
Flags: W
LayerCount: 2
Fore
SplineSet
71 870 m 0,0,1
 98 870 98 870 160 848 c 128,-1,2
 222 826 222 826 229 826 c 128,-1,3
 236 826 236 826 243 836 c 128,-1,4
 250 846 250 846 257 867 c 1,5,-1
 320 858 l 1,6,7
 319 746 319 746 243 746 c 0,8,9
 216 746 216 746 153.5 769 c 128,-1,10
 91 792 91 792 84 792 c 0,11,12
 72 792 72 792 56 750 c 1,13,-1
 -7 758 l 1,14,15
 -6 870 -6 870 71 870 c 0,0,1
215 0 m 1,16,-1
 97 -1 l 1,17,-1
 101 321 l 1,18,-1
 97 699 l 1,19,-1
 215 699 l 1,20,-1
 211 389 l 1,21,-1
 215 0 l 1,16,-1
EndSplineSet
EndChar

StartChar: itilde
Encoding: 297 297 195
Width: 310
GlyphClass: 2
Flags: W
LayerCount: 2
Fore
SplineSet
52 786 m 0,0,1
 78 786 78 786 149 765.5 c 128,-1,2
 220 745 220 745 226 745 c 0,3,4
 238 745 238 745 248 785 c 1,5,-1
 313 776 l 1,6,7
 312 661 312 661 242 661 c 0,8,9
 216 661 216 661 144.5 682.5 c 128,-1,10
 73 704 73 704 67 704 c 0,11,12
 56 704 56 704 44 663 c 1,13,-1
 -21 671 l 1,14,15
 -20 786 -20 786 52 786 c 0,0,1
97 0 m 1,16,-1
 97 585 l 1,17,-1
 213 585 l 1,18,-1
 213 0 l 1,19,-1
 97 0 l 1,16,-1
EndSplineSet
EndChar

StartChar: dotlessi
Encoding: 305 305 196
Width: 310
GlyphClass: 2
Flags: W
LayerCount: 2
Fore
SplineSet
97 0 m 1,0,-1
 97 585 l 1,1,-1
 213 585 l 1,2,-1
 213 0 l 1,3,-1
 97 0 l 1,0,-1
EndSplineSet
EndChar

StartChar: IJ
Encoding: 306 306 197
Width: 636
GlyphClass: 2
Flags: W
LayerCount: 2
Fore
SplineSet
215 0 m 1,0,-1
 97 -1 l 1,1,-1
 101 321 l 1,2,-1
 97 699 l 1,3,-1
 215 699 l 1,4,-1
 211 389 l 1,5,-1
 215 0 l 1,0,-1
294 95 m 1,6,7
 329 87 329 87 360.5 87 c 128,-1,8
 392 87 392 87 402 96 c 1,9,10
 427 115 427 115 427 233 c 2,11,-1
 427 699 l 1,12,-1
 543 699 l 1,13,-1
 543 241 l 2,14,15
 543 -13 543 -13 361 -13 c 0,16,17
 328 -13 328 -13 281 -4 c 1,18,-1
 294 95 l 1,6,7
EndSplineSet
EndChar

StartChar: ij
Encoding: 307 307 198
Width: 611
GlyphClass: 2
Flags: W
LayerCount: 2
Fore
SplineSet
99 0 m 1,0,-1
 99 585 l 1,1,-1
 214 585 l 1,2,-1
 214 0 l 1,3,-1
 99 0 l 1,0,-1
271 -74 m 1,4,5
 310 -80 310 -80 344.5 -80 c 128,-1,6
 379 -80 379 -80 388.5 -56.5 c 128,-1,7
 398 -33 398 -33 398 60 c 2,8,-1
 398 582 l 1,9,-1
 513 582 l 1,10,-1
 513 61 l 2,11,12
 513 -178 513 -178 337 -178 c 1,13,-1
 259 -171 l 1,14,-1
 271 -74 l 1,4,5
88 663 m 1,15,-1
 88 757 l 1,16,-1
 223 757 l 1,17,-1
 223 663 l 1,18,-1
 88 663 l 1,15,-1
388 663 m 1,19,-1
 388 757 l 1,20,-1
 523 757 l 1,21,-1
 523 663 l 1,22,-1
 388 663 l 1,19,-1
EndSplineSet
EndChar

StartChar: Jcircumflex
Encoding: 308 308 199
Width: 331
GlyphClass: 2
Flags: W
LayerCount: 2
Fore
SplineSet
0 95 m 1,0,1
 35 87 35 87 66.5 87 c 128,-1,2
 98 87 98 87 108 96 c 1,3,4
 133 115 133 115 133 233 c 2,5,-1
 133 699 l 1,6,-1
 249 699 l 1,7,-1
 249 241 l 2,8,9
 249 -13 249 -13 67 -13 c 0,10,11
 34 -13 34 -13 -13 -4 c 1,12,-1
 0 95 l 1,0,1
58 741 m 1,13,-1
 29 792 l 1,14,-1
 159 884 l 1,15,-1
 220 884 l 1,16,-1
 349 792 l 1,17,-1
 320 741 l 1,18,-1
 193 798 l 1,19,-1
 186 798 l 1,20,-1
 58 741 l 1,13,-1
EndSplineSet
EndChar

StartChar: jcircumflex
Encoding: 309 309 200
Width: 327
GlyphClass: 2
Flags: W
LayerCount: 2
Fore
SplineSet
31 649 m 1,0,-1
 -2 700 l 1,1,-1
 137 804 l 1,2,-1
 198 804 l 1,3,-1
 338 700 l 1,4,-1
 303 649 l 1,5,-1
 171 716 l 1,6,-1
 164 716 l 1,7,-1
 31 649 l 1,0,-1
-12 -74 m 1,8,9
 27 -80 27 -80 61 -80 c 128,-1,10
 95 -80 95 -80 105 -56.5 c 128,-1,11
 115 -33 115 -33 115 60 c 2,12,-1
 115 585 l 1,13,-1
 230 585 l 1,14,-1
 230 61 l 2,15,16
 230 -66 230 -66 182 -122 c 128,-1,17
 134 -178 134 -178 57 -178 c 1,18,-1
 -25 -171 l 1,19,-1
 -12 -74 l 1,8,9
EndSplineSet
EndChar

StartChar: kcommaaccent
Encoding: 311 311 201
Width: 571
GlyphClass: 2
Flags: W
LayerCount: 2
Fore
SplineSet
198 753 m 1,0,-1
 198 0 l 1,1,-1
 82 0 l 1,2,-1
 87 321 l 1,3,-1
 82 753 l 1,4,-1
 198 753 l 1,0,-1
448 0 m 1,5,-1
 199 314 l 1,6,-1
 431 582 l 1,7,-1
 570 582 l 1,8,-1
 323 319 l 1,9,-1
 323 314 l 1,10,-1
 588 0 l 1,11,-1
 448 0 l 1,5,-1
242 -126 m 2,12,-1
 242 -55 l 1,13,-1
 347 -55 l 1,14,-1
 347 -65 l 2,15,16
 347 -207 347 -207 246 -261 c 1,17,-1
 204 -224 l 1,18,19
 225 -206 225 -206 233.5 -184.5 c 128,-1,20
 242 -163 242 -163 242 -126 c 2,12,-1
EndSplineSet
EndChar

StartChar: kgreenlandic
Encoding: 312 312 202
Width: 571
GlyphClass: 2
Flags: W
LayerCount: 2
Fore
SplineSet
448 0 m 1,0,-1
 199 314 l 1,1,-1
 431 582 l 1,2,-1
 570 582 l 1,3,-1
 323 319 l 1,4,-1
 323 314 l 1,5,-1
 588 0 l 1,6,-1
 448 0 l 1,0,-1
93 0 m 1,7,-1
 93 582 l 1,8,-1
 173 582 l 1,9,-1
 199 506 l 1,10,-1
 199 0 l 1,11,-1
 93 0 l 1,7,-1
EndSplineSet
EndChar

StartChar: Ldotaccent
Encoding: 319 319 203
Width: 467
GlyphClass: 2
Flags: W
LayerCount: 2
Fore
SplineSet
97 0 m 1,0,-1
 97 699 l 1,1,-1
 214 699 l 1,2,-1
 209 102 l 1,3,-1
 464 104 l 1,4,-1
 464 0 l 1,5,-1
 97 0 l 1,0,-1
300 341 m 1,6,-1
 300 449 l 1,7,-1
 430 449 l 1,8,-1
 430 341 l 1,9,-1
 300 341 l 1,6,-1
EndSplineSet
EndChar

StartChar: ldot
Encoding: 320 320 204
Width: 419
GlyphClass: 2
Flags: W
LayerCount: 2
Fore
SplineSet
82 0 m 1,0,-1
 82 757 l 1,1,-1
 197 757 l 1,2,-1
 197 0 l 1,3,-1
 82 0 l 1,0,-1
274 352 m 1,4,-1
 274 464 l 1,5,-1
 401 464 l 1,6,-1
 401 352 l 1,7,-1
 274 352 l 1,4,-1
EndSplineSet
EndChar

StartChar: Lslash
Encoding: 321 321 205
Width: 464
GlyphClass: 2
Flags: W
LayerCount: 2
Fore
SplineSet
97 0 m 1,0,-1
 97 253 l 1,1,-1
 31 212 l 1,2,-1
 31 306 l 1,3,-1
 97 347 l 1,4,-1
 97 699 l 1,5,-1
 214 699 l 1,6,-1
 211 417 l 1,7,-1
 367 517 l 1,8,-1
 367 422 l 1,9,-1
 211 322 l 1,10,-1
 209 102 l 1,11,-1
 464 104 l 1,12,-1
 464 0 l 1,13,-1
 97 0 l 1,0,-1
EndSplineSet
EndChar

StartChar: lslash
Encoding: 322 322 206
Width: 326
GlyphClass: 2
Flags: W
LayerCount: 2
Fore
SplineSet
108 0 m 1,0,-1
 108 312 l 1,1,-1
 21 258 l 1,2,-1
 21 353 l 1,3,-1
 108 407 l 1,4,-1
 108 757 l 1,5,-1
 223 757 l 1,6,-1
 223 480 l 1,7,-1
 305 532 l 1,8,-1
 305 435 l 1,9,-1
 223 384 l 1,10,-1
 223 0 l 1,11,-1
 108 0 l 1,0,-1
EndSplineSet
EndChar

StartChar: Nacute
Encoding: 323 323 207
Width: 699
GlyphClass: 2
Flags: W
LayerCount: 2
Fore
SplineSet
97 0 m 1,0,-1
 97 699 l 1,1,-1
 250 699 l 1,2,-1
 501 135 l 1,3,-1
 506 135 l 1,4,-1
 492 699 l 1,5,-1
 603 699 l 1,6,-1
 603 0 l 1,7,-1
 450 0 l 1,8,-1
 200 563 l 1,9,-1
 195 563 l 1,10,-1
 208 0 l 1,11,-1
 97 0 l 1,0,-1
259 742 m 1,12,-1
 240 808 l 1,13,-1
 496 887 l 1,14,-1
 524 798 l 1,15,-1
 259 742 l 1,12,-1
EndSplineSet
EndChar

StartChar: nacute
Encoding: 324 324 208
Width: 620
GlyphClass: 2
Flags: W
LayerCount: 2
Fore
SplineSet
93 0 m 1,0,-1
 93 585 l 1,1,-1
 169 585 l 1,2,-1
 182 527 l 1,3,-1
 187 527 l 1,4,5
 310 598 310 598 394.5 598 c 128,-1,6
 479 598 479 598 509.5 543 c 128,-1,7
 540 488 540 488 540 386 c 2,8,-1
 540 0 l 1,9,-1
 424 0 l 1,10,-1
 424 357 l 2,11,12
 424 446 424 446 412.5 469.5 c 128,-1,13
 401 493 401 493 362 493 c 128,-1,14
 323 493 323 493 278.5 477 c 128,-1,15
 234 461 234 461 209 445 c 1,16,-1
 209 0 l 1,17,-1
 93 0 l 1,0,-1
199 652 m 1,18,-1
 177 720 l 1,19,-1
 439 813 l 1,20,-1
 471 721 l 1,21,-1
 199 652 l 1,18,-1
EndSplineSet
EndChar

StartChar: OE
Encoding: 338 338 209
Width: 941
GlyphClass: 2
Flags: W
LayerCount: 2
Fore
SplineSet
503 0 m 1,0,-1
 503 41 l 1,1,-1
 499 41 l 1,2,3
 434 -13 434 -13 340 -13 c 0,4,5
 184 -13 184 -13 118 95 c 0,6,7
 64 182 64 182 64 351 c 0,8,9
 64 564 64 564 146 642 c 0,10,11
 186 680 186 680 232.5 696 c 128,-1,12
 279 712 279 712 340 712 c 0,13,14
 436 712 436 712 499 659 c 1,15,-1
 503 659 l 1,16,-1
 503 699 l 1,17,-1
 881 699 l 1,18,-1
 881 596 l 1,19,-1
 619 599 l 1,20,-1
 615 404 l 1,21,-1
 856 404 l 1,22,-1
 856 305 l 1,23,-1
 615 305 l 1,24,-1
 619 100 l 1,25,-1
 881 102 l 1,26,-1
 881 0 l 1,27,-1
 503 0 l 1,0,-1
283.5 96.5 m 128,-1,29
 306 91 306 91 352 91 c 128,-1,30
 398 91 398 91 428 108 c 0,31,32
 494 145 494 145 494 348 c 0,33,34
 494 432 494 432 486 483 c 128,-1,35
 478 534 478 534 457.5 562 c 128,-1,36
 437 590 437 590 410.5 599 c 128,-1,37
 384 608 384 608 340 608 c 128,-1,38
 296 608 296 608 270 599 c 128,-1,39
 244 590 244 590 223.5 562 c 128,-1,40
 203 534 203 534 195 483 c 128,-1,41
 187 432 187 432 187 356.5 c 128,-1,42
 187 281 187 281 193 235 c 128,-1,43
 199 189 199 189 210 160.5 c 128,-1,44
 221 132 221 132 241 117 c 128,-1,28
 261 102 261 102 283.5 96.5 c 128,-1,29
EndSplineSet
EndChar

StartChar: oe
Encoding: 339 339 210
Width: 945
GlyphClass: 2
Flags: W
LayerCount: 2
Fore
SplineSet
480 65 m 1,0,1
 422 -13 422 -13 296.5 -13 c 128,-1,2
 171 -13 171 -13 116.5 64.5 c 128,-1,3
 62 142 62 142 62 292 c 128,-1,4
 62 442 62 442 116.5 520 c 128,-1,5
 171 598 171 598 297 598 c 128,-1,6
 423 598 423 598 480 519 c 1,7,-1
 484 519 l 1,8,9
 544 598 544 598 660.5 598 c 128,-1,10
 777 598 777 598 832.5 534 c 128,-1,11
 888 470 888 470 888 322 c 2,12,-1
 888 250 l 1,13,-1
 539 250 l 1,14,15
 539 139 539 139 577 104 c 0,16,17
 602 82 602 82 644 82 c 0,18,19
 725 82 725 82 815 112 c 1,20,-1
 846 123 l 1,21,-1
 874 35 l 1,22,23
 776 -13 776 -13 660.5 -13 c 128,-1,24
 545 -13 545 -13 484 65 c 1,25,-1
 480 65 l 1,0,1
300 79 m 128,-1,27
 369 79 369 79 393 120.5 c 128,-1,28
 417 162 417 162 417 292.5 c 128,-1,29
 417 423 417 423 393 464 c 128,-1,30
 369 505 369 505 300 505 c 128,-1,31
 231 505 231 505 206.5 464 c 128,-1,32
 182 423 182 423 182 292.5 c 128,-1,33
 182 162 182 162 206.5 120.5 c 128,-1,26
 231 79 231 79 300 79 c 128,-1,27
540 337 m 1,34,-1
 770 342 l 1,35,36
 769 436 769 436 759 461 c 1,37,38
 739 503 739 503 670 503 c 0,39,40
 627 503 627 503 601.5 494 c 128,-1,41
 576 485 576 485 562.5 462 c 128,-1,42
 549 439 549 439 545 412 c 128,-1,43
 541 385 541 385 540 337 c 1,34,-1
EndSplineSet
EndChar

StartChar: Racute
Encoding: 340 340 211
Width: 667
GlyphClass: 2
Flags: W
LayerCount: 2
Fore
SplineSet
340 712 m 0,0,1
 581 712 581 712 581 487 c 0,2,3
 581 321 581 321 435 280 c 1,4,-1
 435 275 l 1,5,-1
 598 0 l 1,6,-1
 461 0 l 1,7,-1
 325 264 l 1,8,-1
 215 268 l 1,9,-1
 215 0 l 1,10,-1
 97 0 l 1,11,-1
 102 328 l 1,12,-1
 99 698 l 1,13,14
 211 712 211 712 340 712 c 0,0,1
214 368 m 1,15,16
 293 359 293 359 352.5 359 c 128,-1,17
 412 359 412 359 435.5 388.5 c 128,-1,18
 459 418 459 418 459 494.5 c 128,-1,19
 459 571 459 571 435 598 c 1,20,21
 414 620 414 620 348.5 620 c 128,-1,22
 283 620 283 620 215 611 c 1,23,-1
 214 368 l 1,15,16
216 740 m 1,24,-1
 196 805 l 1,25,-1
 450 892 l 1,26,-1
 480 805 l 1,27,-1
 216 740 l 1,24,-1
EndSplineSet
EndChar

StartChar: Rcommaaccent
Encoding: 342 342 212
Width: 667
GlyphClass: 2
Flags: W
LayerCount: 2
Fore
SplineSet
340 712 m 0,0,1
 581 712 581 712 581 487 c 0,2,3
 581 321 581 321 435 280 c 1,4,-1
 435 275 l 1,5,-1
 598 0 l 1,6,-1
 461 0 l 1,7,-1
 325 264 l 1,8,-1
 215 268 l 1,9,-1
 215 0 l 1,10,-1
 97 0 l 1,11,-1
 102 328 l 1,12,-1
 99 698 l 1,13,14
 211 712 211 712 340 712 c 0,0,1
214 368 m 1,15,16
 293 359 293 359 352.5 359 c 128,-1,17
 412 359 412 359 435.5 388.5 c 128,-1,18
 459 418 459 418 459 494.5 c 128,-1,19
 459 571 459 571 435 598 c 1,20,21
 414 620 414 620 348.5 620 c 128,-1,22
 283 620 283 620 215 611 c 1,23,-1
 214 368 l 1,15,16
269 -126 m 2,24,-1
 269 -55 l 1,25,-1
 374 -55 l 1,26,-1
 374 -65 l 2,27,28
 374 -207 374 -207 273 -261 c 1,29,-1
 231 -224 l 1,30,31
 252 -206 252 -206 260.5 -184.5 c 128,-1,32
 269 -163 269 -163 269 -126 c 2,24,-1
EndSplineSet
EndChar

StartChar: rcommaaccent
Encoding: 343 343 213
Width: 416
GlyphClass: 2
Flags: W
LayerCount: 2
Fore
SplineSet
98 -126 m 2,0,-1
 98 -55 l 1,1,-1
 203 -55 l 1,2,-1
 203 -65 l 2,3,4
 203 -207 203 -207 102 -261 c 1,5,-1
 60 -224 l 1,6,7
 81 -206 81 -206 89.5 -184.5 c 128,-1,8
 98 -163 98 -163 98 -126 c 2,0,-1
347 598 m 128,-1,10
 376 598 376 598 400 590 c 1,11,-1
 391 486 l 1,12,13
 366 488 366 488 346 488 c 0,14,15
 271 488 271 488 209 444 c 1,16,-1
 209 0 l 1,17,-1
 93 0 l 1,18,-1
 93 585 l 1,19,-1
 166 585 l 1,20,-1
 181 524 l 1,21,-1
 187 524 l 1,22,23
 223 553 223 553 270.5 575.5 c 128,-1,9
 318 598 318 598 347 598 c 128,-1,10
EndSplineSet
EndChar

StartChar: Rcaron
Encoding: 344 344 214
Width: 667
GlyphClass: 2
Flags: W
LayerCount: 2
Fore
SplineSet
340 712 m 0,0,1
 581 712 581 712 581 487 c 0,2,3
 581 321 581 321 435 280 c 1,4,-1
 435 275 l 1,5,-1
 598 0 l 1,6,-1
 461 0 l 1,7,-1
 325 264 l 1,8,-1
 215 268 l 1,9,-1
 215 0 l 1,10,-1
 97 0 l 1,11,-1
 102 328 l 1,12,-1
 99 698 l 1,13,14
 211 712 211 712 340 712 c 0,0,1
214 368 m 1,15,16
 293 359 293 359 352.5 359 c 128,-1,17
 412 359 412 359 435.5 388.5 c 128,-1,18
 459 418 459 418 459 494.5 c 128,-1,19
 459 571 459 571 435 598 c 1,20,21
 414 620 414 620 348.5 620 c 128,-1,22
 283 620 283 620 215 611 c 1,23,-1
 214 368 l 1,15,16
152 847 m 1,24,-1
 183 895 l 1,25,-1
 321 835 l 1,26,-1
 328 835 l 1,27,-1
 466 895 l 1,28,-1
 497 847 l 1,29,-1
 355 750 l 1,30,-1
 294 750 l 1,31,-1
 152 847 l 1,24,-1
EndSplineSet
EndChar

StartChar: rcaron
Encoding: 345 345 215
Width: 416
GlyphClass: 2
Flags: W
LayerCount: 2
Fore
SplineSet
347 598 m 128,-1,1
 376 598 376 598 400 590 c 1,2,-1
 391 486 l 1,3,4
 366 488 366 488 346 488 c 0,5,6
 271 488 271 488 209 444 c 1,7,-1
 209 0 l 1,8,-1
 93 0 l 1,9,-1
 93 585 l 1,10,-1
 166 585 l 1,11,12
 175 538 175 538 181 524 c 1,13,-1
 187 524 l 1,14,15
 223 553 223 553 270.5 575.5 c 128,-1,0
 318 598 318 598 347 598 c 128,-1,1
62 768 m 1,16,-1
 93 814 l 1,17,-1
 231 746 l 1,18,-1
 238 746 l 1,19,-1
 376 814 l 1,20,-1
 407 768 l 1,21,-1
 265 661 l 1,22,-1
 204 661 l 1,23,-1
 62 768 l 1,16,-1
EndSplineSet
EndChar

StartChar: dotlessj
Encoding: 567 567 216
Width: 327
GlyphClass: 2
Flags: W
LayerCount: 2
Fore
SplineSet
-12 -74 m 1,0,1
 27 -80 27 -80 61 -80 c 128,-1,2
 95 -80 95 -80 105 -56.5 c 128,-1,3
 115 -33 115 -33 115 60 c 2,4,-1
 115 585 l 1,5,-1
 230 585 l 1,6,-1
 230 61 l 2,7,8
 230 -66 230 -66 182 -122 c 128,-1,9
 134 -178 134 -178 57 -178 c 1,10,-1
 -25 -171 l 1,11,-1
 -12 -74 l 1,0,1
EndSplineSet
EndChar

StartChar: circumflex
Encoding: 710 710 217
Width: 546
GlyphClass: 2
Flags: W
LayerCount: 2
Fore
SplineSet
130 647 m 1,0,-1
 97 697 l 1,1,-1
 243 804 l 1,2,-1
 304 804 l 1,3,-1
 451 697 l 1,4,-1
 416 647 l 1,5,-1
 277 716 l 1,6,-1
 270 716 l 1,7,-1
 130 647 l 1,0,-1
EndSplineSet
EndChar

StartChar: caron
Encoding: 711 711 218
Width: 265
GlyphClass: 2
Flags: W
LayerCount: 2
Fore
SplineSet
-39 768 m 1,0,-1
 -8 814 l 1,1,-1
 130 746 l 1,2,-1
 137 746 l 1,3,-1
 275 814 l 1,4,-1
 306 768 l 1,5,-1
 164 661 l 1,6,-1
 103 661 l 1,7,-1
 -39 768 l 1,0,-1
EndSplineSet
EndChar

StartChar: ring
Encoding: 730 730 219
Width: 232
GlyphClass: 2
Flags: W
LayerCount: 2
Fore
SplineSet
22 731 m 0,0,1
 22 821 22 821 115.5 821 c 128,-1,2
 209 821 209 821 209 731 c 0,3,4
 209 683 209 683 182.5 662.5 c 128,-1,5
 156 642 156 642 116 642 c 128,-1,6
 76 642 76 642 49 662.5 c 128,-1,7
 22 683 22 683 22 731 c 0,0,1
86.5 760.5 m 128,-1,9
 78 753 78 753 78 731.5 c 128,-1,10
 78 710 78 710 87 702 c 128,-1,11
 96 694 96 694 115.5 694 c 128,-1,12
 135 694 135 694 143.5 702 c 128,-1,13
 152 710 152 710 152 731.5 c 128,-1,14
 152 753 152 753 144 760.5 c 128,-1,15
 136 768 136 768 115.5 768 c 128,-1,8
 95 768 95 768 86.5 760.5 c 128,-1,9
EndSplineSet
EndChar

StartChar: tilde
Encoding: 732 732 220
Width: 548
GlyphClass: 2
Flags: W
LayerCount: 2
Fore
SplineSet
171 786 m 0,0,1
 200 786 200 786 281 764.5 c 128,-1,2
 362 743 362 743 369 743 c 0,3,4
 382 743 382 743 398 785 c 1,5,-1
 461 776 l 1,6,7
 460 661 460 661 379 661 c 0,8,9
 350 661 350 661 268.5 683.5 c 128,-1,10
 187 706 187 706 180 706 c 0,11,12
 166 706 166 706 150 663 c 1,13,-1
 87 671 l 1,14,15
 88 786 88 786 171 786 c 0,0,1
EndSplineSet
EndChar

StartChar: dotaccentcmb
Encoding: 775 775 221
Width: 318
GlyphClass: 2
Flags: W
LayerCount: 2
Fore
SplineSet
99 676 m 1,0,-1
 99 770 l 1,1,-1
 219 770 l 1,2,-1
 219 676 l 1,3,-1
 99 676 l 1,0,-1
EndSplineSet
EndChar

StartChar: endash
Encoding: 8211 8211 222
Width: 589
GlyphClass: 2
Flags: W
LayerCount: 2
Fore
SplineSet
547 376 m 1,0,-1
 547 278 l 1,1,-1
 42 278 l 1,2,-1
 43 376 l 1,3,-1
 547 376 l 1,0,-1
EndSplineSet
EndChar

StartChar: emdash
Encoding: 8212 8212 223
Width: 824
GlyphClass: 2
Flags: W
LayerCount: 2
Fore
SplineSet
62 278 m 1,0,-1
 62 376 l 1,1,-1
 762 376 l 1,2,-1
 762 278 l 1,3,-1
 62 278 l 1,0,-1
EndSplineSet
EndChar

StartChar: quoteleft
Encoding: 8216 8216 224
Width: 235
GlyphClass: 2
Flags: W
LayerCount: 2
Fore
SplineSet
55 535 m 0,0,1
 55 666 55 666 127 736 c 1,2,-1
 183 698 l 1,3,4
 155 653 155 653 155 584 c 1,5,-1
 161 465 l 1,6,-1
 59 465 l 1,7,8
 55 493 55 493 55 535 c 0,0,1
EndSplineSet
EndChar

StartChar: quoteright
Encoding: 8217 8217 225
Width: 235
GlyphClass: 2
Flags: W
LayerCount: 2
Fore
SplineSet
183 651 m 0,0,1
 183 520 183 520 111 450 c 1,2,-1
 55 489 l 1,3,4
 83 533 83 533 83 602 c 1,5,-1
 76 722 l 1,6,-1
 179 722 l 1,7,8
 183 684 183 684 183 651 c 0,0,1
EndSplineSet
EndChar

StartChar: quotesinglbase
Encoding: 8218 8218 226
Width: 258
GlyphClass: 2
Flags: W
LayerCount: 2
Fore
SplineSet
112 -138 m 1,0,-1
 56 -100 l 1,1,2
 84 -57 84 -57 84 13 c 1,3,-1
 78 133 l 1,4,-1
 179 133 l 1,5,6
 184 98 184 98 184 62 c 0,7,8
 183 -71 183 -71 112 -138 c 1,0,-1
EndSplineSet
EndChar

StartChar: quotedblleft
Encoding: 8220 8220 227
Width: 411
GlyphClass: 2
Flags: W
LayerCount: 2
Fore
SplineSet
338 465 m 1,0,-1
 235 465 l 1,1,2
 231 493 231 493 231 534 c 0,3,4
 232 656 232 656 305 729 c 1,5,-1
 359 694 l 1,6,7
 332 652 332 652 332 583 c 1,8,-1
 338 465 l 1,0,-1
52 535 m 0,9,10
 52 668 52 668 124 738 c 1,11,-1
 180 700 l 1,12,13
 152 655 152 655 152 584 c 1,14,-1
 158 465 l 1,15,-1
 56 465 l 1,16,17
 52 493 52 493 52 535 c 0,9,10
EndSplineSet
EndChar

StartChar: quotedblright
Encoding: 8221 8221 228
Width: 411
GlyphClass: 2
Flags: W
LayerCount: 2
Fore
SplineSet
180 653 m 0,0,1
 180 531 180 531 106 457 c 1,2,-1
 52 493 l 1,3,4
 79 533 79 533 79 604 c 1,5,-1
 73 722 l 1,6,-1
 176 722 l 1,7,8
 180 694 180 694 180 653 c 0,0,1
360 651 m 0,9,10
 360 518 360 518 288 448 c 1,11,-1
 232 487 l 1,12,13
 260 531 260 531 260 602 c 1,14,-1
 253 722 l 1,15,-1
 356 722 l 1,16,17
 360 684 360 684 360 651 c 0,9,10
EndSplineSet
EndChar

StartChar: quotedblbase
Encoding: 8222 8222 229
Width: 449
GlyphClass: 2
Flags: W
LayerCount: 2
Fore
SplineSet
110 -138 m 1,0,-1
 54 -101 l 1,1,2
 82 -60 82 -60 82 11 c 1,3,-1
 76 132 l 1,4,-1
 177 132 l 1,5,6
 182 97 182 97 182 61 c 0,7,8
 181 -73 181 -73 110 -138 c 1,0,-1
362 60 m 0,9,10
 362 -75 362 -75 291 -140 c 1,11,-1
 235 -102 l 1,12,13
 263 -61 263 -61 263 10 c 1,14,-1
 257 132 l 1,15,-1
 358 132 l 1,16,17
 362 104 362 104 362 60 c 0,9,10
EndSplineSet
EndChar

StartChar: bullet
Encoding: 8226 8226 230
Width: 392
GlyphClass: 2
Flags: W
LayerCount: 2
Fore
SplineSet
291.5 325.5 m 128,-1,1
 253 292 253 292 196.5 292 c 128,-1,2
 140 292 140 292 101 325.5 c 128,-1,3
 62 359 62 359 62 429 c 128,-1,4
 62 499 62 499 100.5 531 c 128,-1,5
 139 563 139 563 196 563 c 128,-1,6
 253 563 253 563 291.5 530.5 c 128,-1,7
 330 498 330 498 330 428.5 c 128,-1,0
 330 359 330 359 291.5 325.5 c 128,-1,1
EndSplineSet
EndChar

StartChar: guilsinglleft
Encoding: 8249 8249 231
Width: 300
GlyphClass: 2
Flags: W
LayerCount: 2
Fore
SplineSet
182 83 m 1,0,-1
 32 337 l 1,1,-1
 182 590 l 1,2,-1
 269 538 l 1,3,-1
 146 340 l 1,4,-1
 146 334 l 1,5,-1
 269 136 l 1,6,-1
 182 83 l 1,0,-1
EndSplineSet
EndChar

StartChar: guilsinglright
Encoding: 8250 8250 232
Width: 300
GlyphClass: 2
Flags: W
LayerCount: 2
Fore
SplineSet
31 136 m 1,0,-1
 154 334 l 1,1,-1
 154 340 l 1,2,-1
 31 538 l 1,3,-1
 119 590 l 1,4,-1
 268 337 l 1,5,-1
 119 83 l 1,6,-1
 31 136 l 1,0,-1
EndSplineSet
EndChar

StartChar: Euro
Encoding: 8364 8364 233
Width: 610
GlyphClass: 2
Flags: W
LayerCount: 2
Fore
SplineSet
38 242 m 1,0,-1
 38 323 l 1,1,-1
 508 323 l 1,2,-1
 508 242 l 1,3,-1
 225 242 l 1,4,5
 236 148 236 148 264 117 c 128,-1,6
 292 86 292 86 343 86 c 128,-1,7
 394 86 394 86 443.5 97 c 128,-1,8
 493 108 493 108 546 130 c 1,9,-1
 579 43 l 1,10,11
 569 37 569 37 550.5 27.5 c 128,-1,12
 532 18 532 18 474.5 2.5 c 128,-1,13
 417 -13 417 -13 357 -13 c 0,14,15
 136 -13 136 -13 102 242 c 1,16,-1
 38 242 l 1,0,-1
38 383 m 1,17,-1
 38 464 l 1,18,-1
 103 464 l 1,19,20
 123 604 123 604 191 658 c 128,-1,21
 259 712 259 712 367 712 c 128,-1,22
 475 712 475 712 555 692 c 1,23,-1
 543 595 l 1,24,25
 417 608 417 608 370 608 c 0,26,27
 287 608 287 608 261.5 582.5 c 128,-1,28
 236 557 236 557 225 464 c 1,29,-1
 508 464 l 1,30,-1
 508 383 l 1,31,-1
 38 383 l 1,17,-1
EndSplineSet
EndChar

StartChar: commaaccent
Encoding: 65540 -1 235
Width: 259
GlyphClass: 2
Flags: W
LayerCount: 2
Fore
SplineSet
87 13 m 2,0,-1
 87 84 l 1,1,-1
 192 84 l 1,2,-1
 192 74 l 2,3,4
 192 -68 192 -68 91 -122 c 1,5,-1
 49 -85 l 1,6,7
 70 -67 70 -67 78.5 -45.5 c 128,-1,8
 87 -24 87 -24 87 13 c 2,0,-1
EndSplineSet
EndChar

StartChar: dieresis.cap
Encoding: 65541 -1 236
Width: 464
GlyphClass: 2
Flags: W
LayerCount: 2
Fore
SplineSet
62 764 m 1,0,-1
 62 857 l 1,1,-1
 182 857 l 1,2,-1
 182 764 l 1,3,-1
 62 764 l 1,0,-1
275 764 m 1,4,-1
 275 857 l 1,5,-1
 395 857 l 1,6,-1
 395 764 l 1,7,-1
 275 764 l 1,4,-1
EndSplineSet
EndChar

StartChar: dotaccentcmb.cap
Encoding: 65542 -1 237
Width: 375
GlyphClass: 2
Flags: W
LayerCount: 2
Fore
SplineSet
129 755 m 1,0,-1
 129 850 l 1,1,-1
 249 850 l 1,2,-1
 249 755 l 1,3,-1
 129 755 l 1,0,-1
EndSplineSet
EndChar

StartChar: grave.cap
Encoding: 65543 -1 238
Width: 477
GlyphClass: 2
Flags: W
LayerCount: 2
Fore
SplineSet
114 798 m 1,0,-1
 140 886 l 1,1,-1
 399 809 l 1,2,-1
 380 743 l 1,3,-1
 114 798 l 1,0,-1
EndSplineSet
EndChar

StartChar: acute.cap
Encoding: 65544 -1 239
Width: 486
GlyphClass: 2
Flags: W
LayerCount: 2
Fore
SplineSet
170 742 m 1,0,-1
 151 808 l 1,1,-1
 407 887 l 1,2,-1
 435 798 l 1,3,-1
 170 742 l 1,0,-1
EndSplineSet
EndChar

StartChar: circumflex.cap
Encoding: 65545 -1 240
Width: 328
GlyphClass: 2
Flags: W
LayerCount: 2
Fore
SplineSet
22 738 m 1,0,-1
 -8 786 l 1,1,-1
 133 884 l 1,2,-1
 194 884 l 1,3,-1
 336 786 l 1,4,-1
 306 738 l 1,5,-1
 167 798 l 1,6,-1
 160 798 l 1,7,8
 152 794 152 794 22 738 c 1,0,-1
EndSplineSet
EndChar

StartChar: ring.cap
Encoding: 65546 -1 241
Width: 283
GlyphClass: 2
Flags: W
LayerCount: 2
Fore
SplineSet
75 747.5 m 128,-1,1
 48 768 48 768 48 815 c 128,-1,2
 48 862 48 862 75 882.5 c 128,-1,3
 102 903 102 903 142.5 903 c 128,-1,4
 183 903 183 903 209.5 882.5 c 128,-1,5
 236 862 236 862 236 815 c 128,-1,6
 236 768 236 768 209 747.5 c 128,-1,7
 182 727 182 727 142 727 c 128,-1,0
 102 727 102 727 75 747.5 c 128,-1,1
114.5 841.5 m 128,-1,9
 106 835 106 835 106 815 c 128,-1,10
 106 795 106 795 114.5 788 c 128,-1,11
 123 781 123 781 142.5 781 c 128,-1,12
 162 781 162 781 169.5 787.5 c 128,-1,13
 177 794 177 794 177 814.5 c 128,-1,14
 177 835 177 835 169.5 841.5 c 128,-1,15
 162 848 162 848 142.5 848 c 128,-1,8
 123 848 123 848 114.5 841.5 c 128,-1,9
EndSplineSet
EndChar

StartChar: caron.cap
Encoding: 65547 -1 242
Width: 355
GlyphClass: 2
Flags: W
LayerCount: 2
Fore
SplineSet
5 847 m 1,0,-1
 36 895 l 1,1,-1
 174 835 l 1,2,-1
 181 835 l 1,3,-1
 319 895 l 1,4,-1
 350 847 l 1,5,-1
 208 750 l 1,6,-1
 147 750 l 1,7,-1
 5 847 l 1,0,-1
EndSplineSet
EndChar

StartChar: tilde.cap
Encoding: 65548 -1 243
Width: 507
GlyphClass: 2
Flags: W
LayerCount: 2
Fore
SplineSet
148 870 m 0,0,1
 177 870 177 870 257.5 847.5 c 128,-1,2
 338 825 338 825 346 825 c 0,3,4
 360 825 360 825 370 856 c 1,5,-1
 374 867 l 1,6,-1
 437 858 l 1,7,8
 436 746 436 746 355 746 c 0,9,10
 326 746 326 746 245 769.5 c 128,-1,11
 164 793 164 793 157 793 c 128,-1,12
 150 793 150 793 142.5 782.5 c 128,-1,13
 135 772 135 772 127 750 c 1,14,-1
 64 758 l 1,15,16
 65 870 65 870 148 870 c 0,0,1
EndSplineSet
EndChar
